{"glyphs":{"0":{"ha":988,"x_min":39,"x_max":1024,"o":"m 644 928 q 1024 638 1024 928 q 996 460 1024 557 q 781 101 925 210 q 417 -8 638 -8 q 39 281 39 -8 q 67 460 39 363 q 281 819 138 710 q 644 928 425 928 m 629 800 q 569 772 597 800 q 509 670 540 744 q 440 460 478 596 q 388 188 388 267 q 399 133 388 149 q 435 118 411 118 q 495 146 467 118 q 555 249 524 174 q 622 460 586 324 q 676 732 676 658 q 665 785 676 769 q 629 800 653 800 z "},"1":{"ha":628,"x_min":-36,"x_max":656,"o":"m 533 924 q 593 931 569 931 q 639 914 622 931 q 656 863 656 897 q 647 808 656 840 l 465 171 q 463 150 463 164 q 474 119 463 131 q 507 96 485 108 q 536 75 528 83 q 544 51 544 67 q 543 38 544 42 q 513 8 536 17 q 439 0 490 0 l 21 0 q -22 11 -8 0 q -36 42 -36 22 q -35 54 -36 50 q -15 80 -29 71 q 29 100 0 89 q 87 128 65 113 q 117 174 108 143 l 261 685 q 264 706 264 693 q 251 741 264 726 q 217 769 239 756 q 186 795 196 785 q 176 821 176 806 q 179 835 176 826 q 196 858 182 850 q 240 872 210 867 l 533 924 z "},"2":{"ha":986,"x_min":15,"x_max":999,"o":"m 549 925 q 790 885 688 925 q 945 782 892 846 q 999 646 999 718 q 990 592 999 619 q 925 500 971 533 q 785 440 879 467 q 494 375 690 413 q 317 335 376 353 q 235 299 258 318 q 210 249 213 279 l 610 249 q 736 271 693 249 q 817 331 779 293 q 844 356 833 349 q 868 364 854 364 q 914 330 893 364 q 935 243 935 296 q 922 164 935 208 q 822 38 894 75 q 604 0 750 0 l 114 0 q 42 38 69 0 q 15 139 15 75 q 32 242 15 186 q 139 397 61 338 q 358 496 217 456 q 504 551 453 524 q 578 605 556 578 q 613 672 600 632 q 619 718 619 700 q 596 781 619 757 q 532 804 572 804 q 493 799 521 804 q 494 774 494 790 q 438 632 494 679 q 294 585 381 585 q 193 618 231 585 q 156 708 156 651 q 163 758 156 736 q 289 883 188 840 q 549 925 390 925 z "},"3":{"ha":1003,"x_min":19,"x_max":1044,"o":"m 1036 608 q 962 494 1014 532 q 821 442 910 457 q 933 370 897 411 q 969 274 969 329 q 960 210 969 243 q 799 52 929 111 q 478 -7 668 -7 q 222 23 325 -7 q 69 103 119 53 q 19 218 19 154 q 28 269 19 244 q 93 355 46 329 q 206 381 140 381 q 343 343 290 381 q 396 246 396 306 q 388 194 396 222 q 367 147 381 167 q 457 132 403 132 q 546 160 510 132 q 596 242 582 188 q 604 293 604 269 q 574 370 604 342 q 497 399 544 399 q 418 446 418 399 q 421 465 418 451 q 448 507 431 493 q 497 521 465 521 l 538 521 q 620 553 586 522 q 671 638 654 585 q 679 694 679 671 q 650 773 679 747 q 581 799 621 799 q 528 793 551 799 q 532 747 532 771 q 528 706 532 726 q 467 619 514 653 q 339 586 419 586 q 212 619 257 586 q 167 711 167 653 q 175 761 167 735 q 299 881 197 836 q 600 925 400 925 q 828 892 726 925 q 987 799 929 858 q 1044 665 1044 740 q 1036 608 1044 638 z "},"4":{"ha":1092,"x_min":38,"x_max":1090,"o":"m 1010 378 q 1068 364 1046 378 q 1090 328 1090 350 q 1088 313 1090 324 q 972 249 1072 249 l 910 249 l 886 164 q 881 128 881 146 q 885 101 881 111 q 899 76 890 90 q 911 46 911 58 q 891 10 911 21 q 826 0 871 0 l 507 0 q 453 14 471 0 q 442 51 436 28 q 453 70 446 64 q 476 88 460 76 q 513 117 499 101 q 538 164 528 132 l 561 246 q 301 225 438 242 q 124 213 182 213 q 61 231 85 213 q 38 279 38 250 q 61 341 38 315 q 133 400 85 367 q 211 464 183 436 q 251 533 239 492 q 257 571 257 550 q 247 626 257 600 q 214 696 236 653 q 184 757 194 732 q 174 807 174 782 q 178 838 174 824 q 231 903 192 881 q 325 925 269 925 q 453 889 392 925 q 554 791 515 853 q 593 658 593 729 q 585 594 593 628 q 485 451 560 507 q 249 340 410 396 q 597 375 450 371 l 714 786 q 756 853 728 835 q 838 872 783 872 l 988 872 q 1044 856 1025 872 q 1064 811 1064 840 q 1058 776 1064 793 l 946 378 l 1010 378 z "},"5":{"ha":939,"x_min":-4,"x_max":989,"o":"m 926 938 q 969 905 949 938 q 989 819 989 872 q 982 757 989 785 q 908 626 963 668 q 749 585 853 585 q 647 598 696 585 q 531 636 599 611 q 451 663 483 654 q 392 672 419 672 q 329 618 346 672 l 294 492 q 539 538 408 538 q 717 510 635 538 q 851 427 800 482 q 901 296 901 372 q 894 242 901 274 q 748 60 868 128 q 429 -8 628 -8 q 178 19 275 -8 q 39 91 82 47 q -4 188 -4 135 q 1 228 -4 210 q 53 301 15 275 q 153 326 92 326 q 259 294 221 326 q 297 211 297 263 q 269 121 297 169 q 335 114 308 114 q 457 151 410 114 q 522 251 504 188 q 531 307 531 283 q 501 380 531 354 q 419 406 471 406 q 333 390 382 406 q 236 374 281 374 l 190 374 q 139 419 139 374 q 146 458 139 433 l 240 779 q 295 865 258 842 q 401 889 332 889 q 519 885 454 889 q 593 882 544 883 q 678 881 642 881 q 810 893 765 881 q 892 925 856 906 q 926 938 917 938 z "},"6":{"ha":1004,"x_min":76,"x_max":1032,"o":"m 861 594 q 735 631 782 594 q 688 726 688 667 q 710 811 688 767 q 676 814 688 814 q 549 751 601 814 q 460 550 497 688 q 621 583 533 583 q 806 551 725 583 q 931 462 886 519 q 975 328 975 404 q 967 265 975 299 q 820 64 936 138 q 496 -10 704 -10 q 184 84 292 -10 q 76 347 76 178 q 108 550 76 438 q 301 840 165 746 q 640 935 438 935 q 852 910 764 935 q 985 841 940 885 q 1032 744 1031 797 q 991 638 1032 681 q 861 594 950 594 m 540 446 q 469 402 501 446 q 419 278 436 358 q 411 210 411 240 q 427 140 411 165 q 471 115 443 115 q 535 159 506 115 q 586 278 565 203 q 596 351 596 317 q 581 420 596 394 q 540 446 565 446 z "},"7":{"ha":903,"x_min":93,"x_max":1007,"o":"m 854 883 q 967 851 928 883 q 1007 769 1007 819 q 1001 732 1007 749 q 968 668 992 696 q 892 601 944 640 q 747 447 800 531 q 638 207 694 364 q 540 38 594 86 q 404 -11 485 -11 q 274 39 326 -11 q 221 167 221 89 q 229 226 221 196 q 301 353 249 294 q 465 480 353 413 q 772 631 578 547 l 351 631 q 303 622 324 631 q 261 593 282 614 l 231 564 q 187 530 204 539 q 149 521 169 521 q 93 561 93 521 q 99 590 93 568 l 179 874 q 240 932 197 932 q 269 927 257 932 q 294 910 281 922 q 329 890 313 896 q 371 883 346 883 l 854 883 z "},"8":{"ha":1000,"x_min":24,"x_max":1033,"o":"m 582 925 q 832 892 731 925 q 983 806 933 860 q 1033 690 1033 753 q 1028 650 1033 668 q 944 543 1008 581 q 765 494 879 506 q 894 394 847 446 q 942 275 942 342 q 935 225 942 256 q 792 51 904 113 q 454 -11 679 -11 q 222 17 319 -11 q 74 98 125 46 q 24 219 24 150 q 32 276 24 247 q 322 464 71 419 q 203 572 246 519 q 161 689 161 625 q 168 735 161 707 q 299 877 194 829 q 582 925 403 925 m 496 742 q 492 717 492 729 q 522 649 492 681 q 608 583 551 618 q 672 685 653 618 q 678 719 678 701 q 651 781 678 758 q 588 804 625 804 q 528 789 550 804 q 496 742 506 774 m 556 204 q 558 228 558 213 q 531 300 558 265 q 450 374 503 335 q 356 254 378 333 q 350 211 350 232 q 376 142 350 165 q 443 118 403 118 q 556 204 532 118 z "},"9":{"ha":1021,"x_min":26,"x_max":1028,"o":"m 601 935 q 919 841 810 935 q 1028 576 1028 747 q 996 375 1028 488 q 797 85 942 181 q 446 -10 653 -10 q 223 22 318 -10 q 77 103 128 53 q 26 211 26 154 q 31 243 26 226 q 84 322 43 296 q 185 349 125 349 q 313 307 265 349 q 360 200 360 265 q 344 126 360 161 q 428 113 379 113 q 556 176 503 113 q 644 375 608 239 q 489 342 578 343 q 303 374 385 342 q 177 463 222 406 q 132 594 132 519 q 140 660 132 626 q 287 860 171 786 q 601 935 403 935 m 560 482 q 632 520 606 482 q 681 646 658 558 q 693 729 693 696 q 625 811 693 811 q 555 774 579 811 q 506 646 531 738 q 492 560 492 596 q 560 482 492 482 z "}," ":{"ha":278,"x_min":0,"x_max":0,"o":""},"અ":{"ha":1375,"x_min":18,"x_max":1424,"o":"m 1256 235 q 1253 217 1253 221 q 1276 192 1253 192 q 1297 197 1289 192 q 1313 215 1304 203 q 1328 226 1322 226 q 1342 215 1336 226 q 1347 189 1347 203 q 1316 99 1347 144 q 1229 25 1285 54 q 1106 -4 1174 -4 q 935 51 990 -4 q 881 190 881 106 q 901 311 881 236 q 840 331 860 322 q 708 158 799 219 q 510 97 617 97 q 331 151 404 97 q 233 297 257 206 q 118 317 167 297 q 44 370 69 338 q 18 442 18 403 q 42 506 18 486 q 100 526 67 526 q 139 519 121 526 q 179 499 157 513 q 238 559 218 528 q 258 613 258 590 q 249 639 258 629 q 224 649 240 649 q 188 638 206 649 q 164 626 169 626 q 149 650 149 626 q 154 682 149 665 q 253 818 179 764 q 428 872 326 872 q 583 815 529 872 q 638 669 638 758 q 628 597 638 642 q 543 442 606 511 q 383 344 481 372 q 471 325 422 325 q 588 352 529 325 q 693 429 646 379 q 661 531 661 475 q 668 576 661 551 q 703 631 679 613 q 760 649 726 649 q 837 608 803 649 q 871 489 871 567 q 869 461 871 471 q 929 476 907 464 q 965 518 951 489 l 1039 753 q 1143 837 1057 807 q 1319 867 1229 867 q 1402 848 1381 867 q 1424 799 1424 829 q 1417 753 1424 783 l 1256 235 z "},"આ":{"ha":1888,"x_min":18,"x_max":1936,"o":"m 1256 235 q 1253 217 1253 221 q 1276 192 1253 192 q 1297 197 1289 192 q 1313 215 1304 203 q 1328 226 1322 226 q 1342 215 1336 226 q 1347 189 1347 203 q 1316 99 1347 144 q 1229 25 1285 54 q 1106 -4 1174 -4 q 935 51 990 -4 q 881 190 881 106 q 901 311 881 236 q 840 331 860 322 q 708 158 799 219 q 510 97 617 97 q 331 151 404 97 q 233 297 257 206 q 118 317 167 297 q 44 370 69 338 q 18 442 18 403 q 42 506 18 486 q 100 526 67 526 q 139 519 121 526 q 179 499 157 513 q 238 559 218 528 q 258 613 258 590 q 249 639 258 629 q 224 649 240 649 q 188 638 206 649 q 164 626 169 626 q 149 650 149 626 q 154 682 149 665 q 253 818 179 764 q 428 872 326 872 q 583 815 529 872 q 638 669 638 758 q 628 597 638 642 q 543 442 606 511 q 383 344 481 372 q 471 325 422 325 q 588 352 529 325 q 693 429 646 379 q 661 531 661 475 q 668 576 661 551 q 703 631 679 613 q 760 649 726 649 q 837 608 803 649 q 871 489 871 567 q 869 461 871 471 q 929 476 907 464 q 965 518 951 489 l 1039 753 q 1143 837 1057 807 q 1319 867 1229 867 q 1402 848 1381 867 q 1424 799 1424 829 q 1417 753 1424 783 l 1256 235 m 1833 867 q 1915 848 1894 867 q 1936 799 1936 829 q 1929 753 1936 783 l 1771 235 q 1767 215 1767 225 q 1773 198 1767 204 q 1790 192 1779 192 q 1809 197 1801 192 q 1826 215 1817 203 q 1842 226 1836 226 q 1855 215 1850 226 q 1860 189 1860 204 q 1829 99 1860 144 q 1744 25 1799 54 q 1619 -4 1689 -4 q 1451 51 1506 -4 q 1396 190 1396 106 q 1438 388 1396 263 l 1553 753 q 1656 837 1569 807 q 1833 867 1743 867 z "},"ઇ":{"ha":883,"x_min":24,"x_max":964,"o":"m 838 1026 q 928 976 893 1026 q 964 864 964 926 q 958 819 964 838 q 903 774 947 774 l 839 774 q 817 767 822 774 q 811 740 811 761 q 821 640 811 715 q 839 414 839 499 q 821 265 839 321 q 681 72 783 143 q 407 0 578 0 q 205 35 292 0 q 71 131 118 69 q 24 271 24 193 q 36 353 24 311 q 98 451 53 408 q 203 517 143 494 q 156 633 156 564 q 164 693 156 663 q 265 828 190 779 q 444 878 339 878 q 594 838 536 878 q 651 735 651 797 q 644 694 651 718 q 623 660 639 674 q 589 647 607 647 q 578 651 582 647 q 571 669 574 656 q 535 714 563 714 q 492 675 503 714 q 488 650 488 661 q 509 596 488 618 q 569 547 531 574 q 607 519 596 529 q 614 496 618 508 q 592 475 610 483 q 514 450 575 467 q 417 410 446 432 q 378 358 388 388 q 374 331 374 344 q 402 274 374 296 q 489 253 431 253 q 697 429 643 253 q 717 594 717 494 q 714 699 717 629 q 711 796 711 765 q 731 942 711 889 q 838 1026 764 1026 z "},"ઈ":{"ha":999,"x_min":24,"x_max":1065,"o":"m 899 1026 q 1019 971 974 1026 q 1065 839 1065 915 q 1054 769 1065 807 q 1022 708 1043 735 q 976 667 1000 682 q 939 653 953 653 q 924 665 929 653 q 913 699 918 676 q 897 744 906 729 q 871 760 889 760 q 833 725 844 760 q 828 678 828 708 q 838 565 828 640 q 851 394 851 460 q 835 265 851 319 q 688 72 797 144 q 407 0 579 0 q 205 35 292 0 q 71 131 118 69 q 24 271 24 193 q 36 353 24 311 q 97 451 54 410 q 203 517 139 493 q 156 633 156 564 q 164 693 156 663 q 265 828 190 779 q 444 878 339 878 q 594 838 536 878 q 651 735 651 797 q 644 694 651 718 q 623 660 639 674 q 589 647 607 647 q 578 651 582 647 q 571 669 574 656 q 535 714 563 714 q 492 675 503 714 q 488 650 488 661 q 509 596 488 618 q 569 547 531 574 q 607 519 596 529 q 614 496 618 508 q 592 475 610 483 q 514 450 575 467 q 417 410 446 432 q 378 358 388 388 q 374 331 374 344 q 402 274 374 296 q 489 253 431 253 q 697 429 643 253 q 719 549 715 488 q 724 700 724 611 q 727 813 724 767 q 740 893 731 858 q 802 993 761 960 q 899 1026 843 1026 z "},"ઉ":{"ha":965,"x_min":93,"x_max":1093,"o":"m 796 1293 q 958 1262 892 1293 q 1059 1178 1025 1231 q 1093 1060 1093 1125 q 1079 975 1093 1017 q 1040 901 1065 931 q 992 872 1014 872 q 969 880 983 872 q 940 897 956 888 q 828 955 886 932 q 688 978 771 978 q 497 934 588 978 q 341 815 407 890 q 247 650 275 740 q 226 518 226 583 q 276 348 226 415 q 408 281 325 281 q 490 302 463 281 q 518 363 518 324 q 500 408 518 388 q 440 447 482 428 q 390 479 404 464 q 382 511 376 494 q 400 528 385 521 q 446 547 415 536 q 521 579 492 564 q 565 619 550 594 q 578 660 578 640 q 568 689 578 678 q 543 700 558 700 q 517 692 528 700 q 494 671 507 685 q 476 653 483 658 q 460 647 469 647 q 444 655 450 647 q 438 676 438 663 q 444 711 438 690 q 535 833 469 788 q 689 878 600 878 q 849 826 790 878 q 908 693 908 774 q 897 624 908 661 q 768 476 867 526 q 835 395 811 443 q 858 290 858 347 q 844 203 858 246 q 727 55 814 110 q 526 0 640 0 q 291 68 389 0 q 143 252 193 136 q 93 510 93 368 q 133 765 93 633 q 288 1044 182 924 q 529 1228 394 1164 q 796 1293 664 1293 z "},"ઊ":{"ha":1446,"x_min":90,"x_max":1469,"o":"m 1331 235 q 1326 215 1326 225 q 1347 192 1326 192 q 1368 198 1360 192 q 1386 215 1376 204 q 1401 226 1396 226 q 1414 215 1410 226 q 1418 189 1418 204 q 1388 99 1418 144 q 1302 25 1357 54 q 1179 -4 1247 -4 q 1010 51 1064 -4 q 956 190 956 106 q 965 272 956 226 q 996 388 975 317 l 1076 640 q 1093 739 1093 690 q 1056 871 1093 813 q 942 963 1018 929 q 754 996 865 996 q 497 940 604 996 q 326 799 389 885 q 240 617 264 713 q 226 508 226 565 q 273 346 226 411 q 408 281 319 281 q 490 302 463 281 q 518 363 518 324 q 500 408 518 388 q 440 447 482 428 q 390 479 404 464 q 382 511 376 494 q 400 528 385 521 q 446 547 415 536 q 521 579 492 564 q 565 619 550 594 q 578 660 578 640 q 568 689 578 678 q 543 700 558 700 q 517 692 528 700 q 494 671 507 685 q 476 653 483 658 q 460 647 469 647 q 444 655 450 647 q 438 676 438 663 q 444 711 438 690 q 535 833 469 788 q 689 878 600 878 q 849 826 790 878 q 908 693 908 774 q 897 624 908 661 q 768 476 867 526 q 835 395 811 443 q 858 290 858 347 q 844 203 858 246 q 727 53 814 110 q 526 -4 640 -4 q 293 64 392 -4 q 142 249 194 132 q 90 508 90 365 q 118 715 90 607 q 248 973 156 857 q 494 1158 340 1089 q 857 1228 649 1228 q 1176 1171 1038 1228 q 1392 1010 1315 1114 q 1469 769 1469 906 q 1444 613 1469 696 l 1331 235 z "},"ઋ":{"ha":1594,"x_min":40,"x_max":1632,"o":"m 1632 656 q 1565 517 1632 578 q 1353 435 1497 456 q 1492 274 1492 369 q 1438 170 1492 213 q 1279 128 1383 128 q 1101 163 1175 128 q 991 248 1028 197 q 954 342 954 299 q 960 367 954 357 q 974 378 967 378 q 1015 363 985 378 q 1071 339 1046 347 q 1128 331 1096 331 q 1183 349 1164 331 q 1203 396 1203 368 q 1194 426 1203 413 q 940 451 1072 429 l 874 235 q 871 217 871 228 q 877 199 871 206 q 893 192 883 192 q 913 198 906 192 q 930 215 921 204 q 943 226 939 226 q 958 215 953 226 q 964 189 964 204 q 933 99 964 144 q 847 25 901 54 q 722 -4 792 -4 q 554 51 608 -4 q 500 190 500 106 q 542 388 500 263 l 547 404 q 428 264 475 313 q 344 194 382 215 q 268 174 307 174 q 167 206 221 174 q 76 290 113 239 q 40 392 40 340 q 61 438 40 424 q 115 455 82 451 q 214 460 149 458 q 382 468 311 460 q 521 510 453 476 q 372 610 450 610 q 326 601 347 610 q 279 579 304 593 q 262 571 275 578 q 238 560 249 564 q 217 557 226 557 q 173 577 200 557 q 126 631 146 597 q 107 703 107 664 q 140 792 107 751 q 224 856 174 832 q 319 879 274 879 q 474 826 415 879 q 568 660 533 772 l 597 565 l 656 753 q 760 837 672 807 q 936 867 847 867 q 1019 848 999 867 q 1040 799 1040 829 q 1033 753 1040 783 l 975 563 q 1114 550 1056 549 q 1072 606 1089 575 q 1056 669 1056 638 q 1128 822 1056 764 q 1326 879 1200 879 q 1478 849 1408 879 q 1590 769 1549 819 q 1632 656 1632 718 m 1196 644 q 1193 621 1193 631 q 1210 565 1193 593 q 1279 632 1265 586 q 1282 651 1282 646 q 1272 680 1282 669 q 1244 690 1261 690 q 1213 677 1225 690 q 1196 644 1200 664 z "},"ૠ":{"ha":1594,"x_min":40,"x_max":1632,"o":"m 1247 426 q 1197 379 1197 418 q 1221 344 1197 358 q 1285 331 1244 331 q 1413 365 1343 331 q 1433 374 1419 368 q 1454 379 1447 379 q 1467 354 1467 379 q 1435 242 1467 294 q 1343 159 1403 190 q 1206 128 1283 128 q 1044 174 1103 128 q 985 292 985 219 q 1008 370 985 333 q 1069 433 1031 407 q 940 451 1000 440 l 874 235 q 871 217 871 228 q 877 199 871 206 q 893 192 883 192 q 913 198 906 192 q 930 215 921 204 q 943 226 939 226 q 958 215 953 226 q 964 189 964 204 q 933 99 964 144 q 847 25 901 54 q 722 -4 792 -4 q 554 51 608 -4 q 500 190 500 106 q 542 388 500 263 l 547 404 q 428 264 475 313 q 344 194 382 215 q 268 174 307 174 q 167 206 221 174 q 76 290 113 239 q 40 392 40 340 q 61 438 40 424 q 115 455 82 451 q 214 460 149 458 q 382 468 311 460 q 521 510 453 476 q 372 610 450 610 q 326 601 347 610 q 279 579 304 593 q 262 571 275 578 q 238 560 249 564 q 217 557 226 557 q 173 577 200 557 q 126 631 146 597 q 107 703 107 664 q 140 792 107 751 q 224 856 174 832 q 319 879 274 879 q 474 826 415 879 q 568 660 533 772 l 597 565 l 656 753 q 760 837 672 807 q 936 867 847 867 q 1019 848 999 867 q 1040 799 1040 829 q 1033 753 1040 783 l 975 563 q 1114 550 1056 549 q 1072 606 1089 575 q 1056 669 1056 638 q 1128 822 1056 764 q 1326 879 1200 879 q 1478 849 1408 879 q 1590 769 1549 819 q 1632 656 1632 718 q 1594 547 1632 597 q 1469 463 1556 496 q 1247 426 1383 429 m 1196 644 q 1193 621 1193 631 q 1210 565 1193 593 q 1279 632 1265 586 q 1282 651 1282 646 q 1272 680 1282 669 q 1244 690 1261 690 q 1213 677 1225 690 q 1196 644 1200 664 z "},"ઌ":{"ha":1250,"x_min":29,"x_max":1282,"o":"m 1175 653 q 1240 599 1219 632 q 1261 528 1261 567 q 1257 496 1261 513 q 1219 415 1247 451 q 1142 329 1190 378 q 1085 268 1103 290 q 1068 224 1068 246 q 1081 192 1068 204 q 1118 181 1093 181 q 1140 183 1126 181 q 1161 186 1153 186 q 1175 171 1175 186 q 1135 90 1175 132 q 1026 22 1096 49 q 869 -6 956 -6 q 706 37 761 -6 q 647 150 651 79 q 653 201 647 183 q 692 279 665 244 q 765 360 719 314 q 822 423 804 399 q 840 471 840 447 q 828 499 840 489 q 793 510 815 510 q 751 499 771 510 q 704 467 731 488 q 658 435 675 444 q 622 426 642 426 q 589 437 604 426 q 554 468 574 447 q 510 506 529 493 q 465 518 492 518 q 410 503 433 518 q 381 458 388 489 q 379 444 379 454 q 404 392 379 415 q 468 369 429 369 q 501 375 488 369 q 518 382 515 381 q 554 392 540 392 q 569 367 569 392 q 538 267 569 321 q 442 174 506 213 q 289 135 378 135 q 158 164 218 135 q 64 247 99 193 q 29 374 29 301 q 46 474 29 422 q 181 658 86 593 q 383 722 275 722 q 551 692 479 722 q 672 583 622 663 q 899 676 768 660 l 908 757 q 974 840 915 813 q 1118 868 1033 868 q 1240 847 1199 868 q 1282 792 1282 825 q 1271 746 1282 767 q 1233 704 1260 725 l 1175 653 z "},"ૡ":{"ha":1235,"x_min":29,"x_max":1282,"o":"m 1282 792 q 1271 746 1282 767 q 1233 704 1260 725 l 1156 638 q 1222 572 1199 611 q 1244 488 1244 533 q 1233 424 1244 460 q 1153 318 1211 354 q 971 250 1096 282 q 881 224 904 236 q 851 192 858 213 q 849 178 849 181 q 865 152 849 161 q 910 143 881 143 l 932 143 q 1017 100 1017 143 q 1014 85 1017 96 q 985 39 1008 54 q 911 24 961 24 l 869 24 q 800 -17 813 24 q 797 -32 797 -28 q 819 -69 797 -56 q 881 -83 840 -83 q 954 -74 922 -83 q 1021 -50 986 -65 q 1038 -43 1026 -47 q 1056 -39 1050 -39 q 1074 -64 1074 -39 q 1054 -135 1074 -89 q 953 -253 1021 -208 q 786 -297 886 -297 q 660 -272 713 -297 q 580 -202 607 -246 q 553 -107 553 -158 q 564 -40 553 -76 q 606 29 576 0 q 676 72 635 58 q 635 172 635 113 q 642 221 635 196 q 676 281 651 254 q 742 340 700 307 q 800 392 779 371 q 831 440 821 414 q 833 464 833 449 q 822 497 833 485 q 788 510 810 510 q 748 499 767 510 q 706 468 729 489 q 661 437 679 447 q 622 426 643 426 q 589 437 604 426 q 554 468 574 447 q 510 506 529 493 q 465 518 492 518 q 410 503 433 518 q 381 458 388 489 q 379 444 379 454 q 404 392 379 415 q 468 369 429 369 q 501 375 488 369 q 518 382 515 381 q 554 392 540 392 q 569 367 569 392 q 538 267 569 321 q 442 174 506 213 q 289 135 378 135 q 158 164 218 135 q 64 247 99 193 q 29 374 29 301 q 46 474 29 422 q 181 658 86 593 q 383 722 275 722 q 552 688 481 722 q 674 583 624 654 q 899 679 776 665 l 908 757 q 974 840 915 813 q 1118 868 1033 868 q 1240 847 1199 868 q 1282 792 1282 825 z "},"એ":{"ha":1375,"x_min":18,"x_max":1424,"o":"m 1256 235 q 1253 217 1253 221 q 1276 192 1253 192 q 1297 197 1289 192 q 1313 215 1304 203 q 1328 226 1322 226 q 1342 215 1336 226 q 1347 189 1347 203 q 1316 99 1347 144 q 1229 25 1285 54 q 1106 -4 1174 -4 q 935 51 990 -4 q 881 190 881 106 q 901 311 881 236 q 840 331 860 322 q 708 158 799 219 q 510 97 617 97 q 331 151 404 97 q 233 297 257 206 q 118 317 167 297 q 44 370 69 338 q 18 442 18 403 q 42 506 18 486 q 100 526 67 526 q 139 519 121 526 q 179 499 157 513 q 238 559 218 528 q 258 613 258 590 q 249 639 258 629 q 224 649 240 649 q 188 638 206 649 q 164 626 169 626 q 149 650 149 626 q 154 682 149 665 q 253 818 179 764 q 428 872 326 872 q 583 815 529 872 q 638 669 638 758 q 628 597 638 642 q 543 442 606 511 q 383 344 481 372 q 471 325 422 325 q 588 352 529 325 q 693 429 646 379 q 661 531 661 475 q 668 576 661 551 q 703 631 679 613 q 760 649 726 649 q 837 608 803 649 q 871 489 871 567 q 869 461 871 471 q 929 476 907 464 q 965 518 951 489 l 1039 753 q 1143 837 1057 807 q 1319 867 1229 867 q 1402 848 1381 867 q 1424 799 1424 829 q 1417 753 1424 783 l 1256 235 m 1383 971 q 1394 938 1394 954 q 1383 912 1394 921 q 1353 903 1371 903 q 1190 938 1281 903 q 1035 1035 1099 974 q 972 1171 972 1097 q 1004 1260 972 1226 q 1089 1293 1036 1293 q 1185 1261 1143 1293 q 1269 1158 1226 1229 l 1383 971 z "},"ઐ":{"ha":1375,"x_min":18,"x_max":1510,"o":"m 1256 235 q 1253 217 1253 221 q 1276 192 1253 192 q 1297 197 1289 192 q 1313 215 1304 203 q 1328 226 1322 226 q 1342 215 1336 226 q 1347 189 1347 203 q 1316 99 1347 144 q 1229 25 1285 54 q 1106 -4 1174 -4 q 935 51 990 -4 q 881 190 881 106 q 901 311 881 236 q 840 331 860 322 q 708 158 799 219 q 510 97 617 97 q 331 151 404 97 q 233 297 257 206 q 118 317 167 297 q 44 370 69 338 q 18 442 18 403 q 42 506 18 486 q 100 526 67 526 q 139 519 121 526 q 179 499 157 513 q 238 559 218 528 q 258 613 258 590 q 249 639 258 629 q 224 649 240 649 q 188 638 206 649 q 164 626 169 626 q 149 650 149 626 q 154 682 149 665 q 253 818 179 764 q 428 872 326 872 q 583 815 529 872 q 638 669 638 758 q 628 597 638 642 q 543 442 606 511 q 383 344 481 372 q 471 325 422 325 q 588 352 529 325 q 693 429 646 379 q 661 531 661 475 q 668 576 661 551 q 703 631 679 613 q 760 649 726 649 q 837 608 803 649 q 871 489 871 567 q 869 461 871 471 q 929 476 907 464 q 965 518 951 489 l 1039 753 q 1143 837 1057 807 q 1319 867 1229 867 q 1402 848 1381 867 q 1424 799 1424 829 q 1417 753 1424 783 l 1256 235 m 1399 1293 q 1478 1251 1446 1293 q 1510 1125 1510 1208 q 1494 1013 1510 1063 q 1453 935 1478 963 q 1403 907 1428 907 q 1224 932 1328 907 q 1042 1008 1119 957 q 965 1133 965 1058 q 992 1205 965 1179 q 1064 1231 1018 1231 q 1117 1218 1092 1231 q 1182 1172 1143 1206 q 1292 1069 1221 1139 l 1368 996 q 1315 1093 1331 1051 q 1300 1172 1300 1135 q 1328 1260 1300 1226 q 1399 1293 1356 1293 z "},"ઓ":{"ha":1889,"x_min":18,"x_max":1938,"o":"m 1869 903 q 1706 941 1797 903 q 1551 1042 1615 979 q 1486 1174 1486 1106 q 1496 1222 1486 1199 q 1603 1293 1524 1293 q 1700 1263 1658 1293 q 1785 1158 1742 1232 l 1904 963 q 1913 938 1913 949 q 1900 913 1913 922 q 1869 903 1888 903 m 1328 226 q 1342 215 1336 226 q 1347 189 1347 203 q 1316 99 1347 144 q 1229 25 1285 54 q 1106 -4 1174 -4 q 935 51 990 -4 q 881 190 881 106 q 901 311 881 236 q 840 331 860 322 q 708 158 799 219 q 510 97 617 97 q 331 151 404 97 q 233 297 257 206 q 118 317 167 297 q 44 370 69 338 q 18 442 18 403 q 42 506 18 486 q 100 526 67 526 q 139 519 121 526 q 179 499 157 513 q 238 559 218 528 q 258 613 258 590 q 249 639 258 629 q 224 649 240 649 q 188 638 206 649 q 164 626 169 626 q 149 650 149 626 q 154 682 149 665 q 253 818 179 764 q 428 872 326 872 q 583 815 529 872 q 638 669 638 758 q 628 597 638 642 q 543 442 606 511 q 383 344 481 372 q 471 325 422 325 q 588 352 529 325 q 693 429 646 379 q 661 531 661 475 q 668 576 661 551 q 703 631 679 613 q 760 649 726 649 q 837 608 803 649 q 871 489 871 567 q 869 461 871 471 q 929 476 907 464 q 965 518 951 489 l 1039 753 q 1143 837 1057 807 q 1319 867 1229 867 q 1402 848 1381 867 q 1424 799 1424 829 q 1417 753 1424 783 l 1256 235 q 1253 217 1253 221 q 1276 192 1253 192 q 1297 197 1289 192 q 1313 215 1304 203 q 1328 226 1322 226 m 1772 235 q 1768 215 1768 225 q 1774 198 1768 204 q 1792 192 1781 192 q 1810 197 1803 192 q 1828 215 1818 203 q 1843 226 1838 226 q 1856 215 1851 226 q 1861 189 1861 204 q 1831 99 1861 144 q 1745 25 1800 54 q 1621 -4 1690 -4 q 1452 51 1507 -4 q 1397 190 1397 106 q 1439 388 1397 263 l 1554 753 q 1658 837 1571 807 q 1835 867 1744 867 q 1917 848 1896 867 q 1938 799 1938 829 q 1931 753 1938 783 l 1772 235 z "},"ઔ":{"ha":1889,"x_min":18,"x_max":2026,"o":"m 1915 1293 q 1994 1251 1963 1293 q 2026 1125 2026 1208 q 2010 1013 2026 1063 q 1969 935 1994 963 q 1919 907 1944 907 q 1740 932 1844 907 q 1559 1008 1636 957 q 1482 1133 1482 1058 q 1508 1205 1482 1179 q 1581 1231 1535 1231 q 1634 1218 1608 1231 q 1699 1172 1660 1206 q 1808 1069 1738 1139 l 1885 996 q 1832 1093 1847 1051 q 1817 1172 1817 1135 q 1844 1260 1817 1226 q 1915 1293 1872 1293 m 1328 226 q 1342 215 1336 226 q 1347 189 1347 203 q 1316 99 1347 144 q 1229 25 1285 54 q 1106 -4 1174 -4 q 935 51 990 -4 q 881 190 881 106 q 901 311 881 236 q 840 331 860 322 q 708 158 799 219 q 510 97 617 97 q 331 151 404 97 q 233 297 257 206 q 118 317 167 297 q 44 370 69 338 q 18 442 18 403 q 42 506 18 486 q 100 526 67 526 q 139 519 121 526 q 179 499 157 513 q 238 559 218 528 q 258 613 258 590 q 249 639 258 629 q 224 649 240 649 q 188 638 206 649 q 164 626 169 626 q 149 650 149 626 q 154 682 149 665 q 253 818 179 764 q 428 872 326 872 q 583 815 529 872 q 638 669 638 758 q 628 597 638 642 q 543 442 606 511 q 383 344 481 372 q 471 325 422 325 q 588 352 529 325 q 693 429 646 379 q 661 531 661 475 q 668 576 661 551 q 703 631 679 613 q 760 649 726 649 q 837 608 803 649 q 871 489 871 567 q 869 461 871 471 q 929 476 907 464 q 965 518 951 489 l 1039 753 q 1143 837 1057 807 q 1319 867 1229 867 q 1402 848 1381 867 q 1424 799 1424 829 q 1417 753 1424 783 l 1256 235 q 1253 217 1253 221 q 1276 192 1253 192 q 1297 197 1289 192 q 1313 215 1304 203 q 1328 226 1322 226 m 1835 867 q 1917 848 1896 867 q 1938 799 1938 829 q 1931 753 1938 783 l 1772 235 q 1768 215 1768 225 q 1774 198 1768 204 q 1792 192 1781 192 q 1810 197 1803 192 q 1828 215 1818 203 q 1843 226 1838 226 q 1856 215 1851 226 q 1861 189 1861 204 q 1831 99 1861 144 q 1745 25 1800 54 q 1621 -4 1690 -4 q 1452 51 1507 -4 q 1397 190 1397 106 q 1439 388 1397 263 l 1554 753 q 1658 837 1571 807 q 1835 867 1744 867 z "},"ઍ":{"ha":1374,"x_min":18,"x_max":1553,"o":"m 1256 235 q 1253 217 1253 221 q 1276 192 1253 192 q 1297 197 1289 192 q 1313 215 1304 203 q 1328 226 1322 226 q 1342 215 1336 226 q 1347 189 1347 203 q 1316 99 1347 144 q 1229 25 1285 54 q 1106 -4 1174 -4 q 935 51 990 -4 q 881 190 881 106 q 901 311 881 236 q 840 331 860 322 q 708 158 799 219 q 510 97 617 97 q 331 151 404 97 q 233 297 257 206 q 118 317 167 297 q 44 370 69 338 q 18 442 18 403 q 42 506 18 486 q 100 526 67 526 q 139 519 121 526 q 179 499 157 513 q 238 559 218 528 q 258 613 258 590 q 249 639 258 629 q 224 649 240 649 q 188 638 206 649 q 164 626 169 626 q 149 650 149 626 q 154 682 149 665 q 253 818 179 764 q 428 872 326 872 q 583 815 529 872 q 638 669 638 758 q 628 597 638 642 q 543 442 606 511 q 383 344 481 372 q 471 325 422 325 q 588 352 529 325 q 693 429 646 379 q 661 531 661 475 q 668 576 661 551 q 703 631 679 613 q 760 649 726 649 q 837 608 803 649 q 871 489 871 567 q 869 461 871 471 q 929 476 907 464 q 965 518 951 489 l 1039 753 q 1143 837 1057 807 q 1319 867 1229 867 q 1402 848 1381 867 q 1424 799 1424 829 q 1417 753 1424 783 l 1256 235 m 1332 915 q 1165 960 1242 915 q 1042 1069 1088 1006 q 996 1181 996 1133 q 999 1201 996 1194 q 1028 1225 1007 1225 q 1059 1212 1042 1225 q 1101 1174 1076 1199 q 1174 1113 1142 1135 q 1242 1092 1206 1092 q 1294 1106 1271 1092 q 1351 1153 1317 1121 q 1407 1198 1385 1183 q 1458 1213 1429 1213 q 1525 1182 1497 1213 q 1553 1104 1553 1151 q 1543 1050 1553 1078 q 1462 951 1521 988 q 1332 915 1403 915 z "},"ઑ":{"ha":1888,"x_min":18,"x_max":2067,"o":"m 1256 235 q 1253 217 1253 221 q 1276 192 1253 192 q 1297 197 1289 192 q 1313 215 1304 203 q 1328 226 1322 226 q 1342 215 1336 226 q 1347 189 1347 203 q 1316 99 1347 144 q 1229 25 1285 54 q 1106 -4 1174 -4 q 935 51 990 -4 q 881 190 881 106 q 901 311 881 236 q 840 331 860 322 q 708 158 799 219 q 510 97 617 97 q 331 151 404 97 q 233 297 257 206 q 118 317 167 297 q 44 370 69 338 q 18 442 18 403 q 42 506 18 486 q 100 526 67 526 q 139 519 121 526 q 179 499 157 513 q 238 559 218 528 q 258 613 258 590 q 249 639 258 629 q 224 649 240 649 q 188 638 206 649 q 164 626 169 626 q 149 650 149 626 q 154 682 149 665 q 253 818 179 764 q 428 872 326 872 q 583 815 529 872 q 638 669 638 758 q 628 597 638 642 q 543 442 606 511 q 383 344 481 372 q 471 325 422 325 q 588 352 529 325 q 693 429 646 379 q 661 531 661 475 q 668 576 661 551 q 703 631 679 613 q 760 649 726 649 q 837 608 803 649 q 871 489 871 567 q 869 461 871 471 q 929 476 907 464 q 965 518 951 489 l 1039 753 q 1143 837 1057 807 q 1319 867 1229 867 q 1402 848 1381 867 q 1424 799 1424 829 q 1417 753 1424 783 l 1256 235 m 1846 915 q 1678 960 1756 915 q 1556 1069 1601 1006 q 1510 1181 1510 1133 q 1513 1201 1510 1194 q 1542 1225 1521 1225 q 1573 1212 1556 1225 q 1615 1174 1590 1199 q 1688 1113 1656 1135 q 1756 1092 1719 1092 q 1808 1106 1785 1092 q 1865 1153 1831 1121 q 1921 1198 1899 1183 q 1972 1213 1943 1213 q 2039 1182 2011 1213 q 2067 1104 2067 1151 q 2057 1050 2067 1078 q 1976 951 2035 988 q 1846 915 1917 915 m 1833 867 q 1915 848 1894 867 q 1936 799 1936 829 q 1929 753 1936 783 l 1771 235 q 1767 215 1767 225 q 1773 198 1767 204 q 1790 192 1779 192 q 1809 197 1801 192 q 1826 215 1817 203 q 1842 226 1836 226 q 1855 215 1850 226 q 1860 189 1860 204 q 1829 99 1860 144 q 1744 25 1799 54 q 1619 -4 1689 -4 q 1451 51 1506 -4 q 1396 190 1396 106 q 1438 388 1396 263 l 1553 753 q 1656 837 1569 807 q 1833 867 1743 867 z "},"ા":{"ha":528,"x_min":36,"x_max":576,"o":"m 474 867 q 556 848 535 867 q 576 799 576 829 q 569 753 576 783 l 411 235 q 407 215 407 225 q 413 198 407 204 q 431 192 419 192 q 449 197 442 192 q 467 215 457 203 q 482 226 476 226 q 495 215 490 226 q 500 189 500 204 q 469 99 500 144 q 384 25 439 54 q 260 -4 329 -4 q 91 51 146 -4 q 36 190 36 106 q 78 388 36 263 l 193 753 q 297 837 210 807 q 474 867 383 867 z "},"િ":{"ha":528,"x_min":36,"x_max":1165,"o":"m 639 1293 q 919 1260 800 1293 q 1102 1174 1039 1228 q 1165 1060 1165 1121 q 1160 1025 1165 1040 q 1097 945 1146 975 q 967 915 1049 915 q 813 949 865 915 q 760 1029 760 983 q 764 1053 760 1043 q 783 1075 769 1075 q 797 1065 789 1075 q 812 1048 804 1054 q 833 1042 819 1042 q 874 1071 864 1042 q 876 1085 876 1082 q 823 1145 876 1121 q 678 1169 769 1169 q 531 1140 588 1169 q 454 1054 474 1110 q 446 997 446 1025 q 472 905 446 949 q 553 808 499 861 q 569 769 569 793 q 564 732 569 753 l 410 235 q 407 217 407 228 q 413 199 407 206 q 429 192 419 192 q 448 197 440 192 q 466 215 456 203 q 482 226 476 226 q 495 215 490 226 q 500 189 500 203 q 469 99 500 144 q 382 25 438 54 q 258 -4 326 -4 q 90 51 143 -4 q 36 190 36 106 q 78 388 36 261 l 183 736 q 186 750 186 747 q 172 779 186 765 q 72 990 72 882 q 85 1064 72 1026 q 253 1235 119 1176 q 639 1293 388 1293 z "},"ી":{"ha":528,"x_min":-260,"x_max":619,"o":"m 146 1293 q 415 1249 308 1293 q 570 1132 521 1206 q 619 969 619 1058 q 604 868 619 921 l 411 235 q 407 215 407 225 q 413 198 407 204 q 431 192 419 192 q 449 197 442 192 q 467 215 457 203 q 482 226 476 226 q 495 215 490 226 q 500 189 500 204 q 469 99 500 144 q 384 25 439 54 q 260 -4 329 -4 q 91 51 146 -4 q 36 190 36 106 q 46 272 36 226 q 78 388 56 317 l 257 971 q 269 1050 269 1015 q 231 1149 269 1115 q 138 1183 193 1183 q 59 1157 90 1183 q 28 1086 28 1131 q 39 1053 28 1065 q 69 1040 50 1040 q 106 1053 89 1040 q 128 1067 122 1067 q 140 1046 140 1067 q 136 1022 140 1038 q -57 915 103 915 q -206 956 -153 915 q -260 1063 -260 997 q -251 1113 -260 1088 q -128 1244 -229 1194 q 146 1293 -26 1293 z "},"ુ":{"ha":0,"x_min":-704,"x_max":-133,"o":"m -368 121 q -257 94 -311 121 q -168 22 -203 68 q -133 -82 -133 -25 q -167 -188 -133 -140 q -261 -264 -200 -236 q -401 -292 -322 -292 q -556 -263 -486 -292 q -665 -192 -625 -235 q -704 -108 -704 -150 q -699 -89 -704 -94 q -681 -83 -693 -83 q -661 -90 -674 -83 q -636 -107 -649 -97 q -576 -143 -604 -129 q -517 -157 -549 -157 q -453 -135 -479 -157 q -428 -75 -428 -112 q -440 -38 -428 -51 q -468 -25 -453 -25 q -489 -32 -479 -25 q -511 -51 -499 -39 q -528 -67 -519 -60 q -546 -74 -537 -74 q -558 -66 -553 -74 q -562 -44 -562 -58 q -508 74 -562 28 q -368 121 -454 121 z "},"ૂ":{"ha":0,"x_min":-600,"x_max":46,"o":"m -328 176 q -139 135 -225 176 q -3 31 -53 93 q 46 -83 46 -31 q 40 -112 46 -101 q 22 -124 33 -124 q -3 -114 10 -124 q -36 -83 -15 -104 q -106 -27 -74 -47 q -179 -7 -137 -7 q -246 -33 -222 -7 q -269 -94 -269 -60 q -259 -131 -269 -117 q -232 -146 -249 -146 q -205 -140 -217 -146 q -179 -122 -193 -133 q -144 -106 -157 -106 q -122 -132 -122 -106 q -147 -206 -122 -169 q -219 -267 -172 -243 q -328 -292 -265 -292 q -463 -264 -401 -292 q -562 -184 -525 -236 q -600 -62 -600 -132 q -524 110 -600 44 q -328 176 -449 176 z "},"ૃ":{"ha":0,"x_min":-544,"x_max":-181,"o":"m -340 54 q -282 40 -301 54 q -262 11 -262 26 q -268 0 -262 4 q -292 -8 -274 -4 q -347 -56 -347 -21 q -285 -96 -347 -96 q -248 -89 -262 -96 q -217 -70 -233 -82 q -196 -58 -201 -58 q -181 -100 -181 -58 q -233 -248 -181 -189 q -372 -307 -286 -307 q -495 -262 -446 -307 q -544 -144 -544 -218 q -513 -43 -544 -89 q -434 28 -482 3 q -340 54 -386 54 z "},"ૄ":{"ha":0,"x_min":-675,"x_max":-157,"o":"m -174 -217 q -157 -233 -157 -217 q -176 -289 -157 -253 q -274 -376 -203 -340 q -436 -411 -346 -411 q -567 -390 -512 -411 q -648 -335 -621 -369 q -675 -260 -675 -300 q -668 -218 -675 -236 q -543 -119 -637 -142 q -569 -56 -569 -93 q -562 -19 -569 -40 q -382 68 -537 68 l -285 0 q -339 -17 -324 -10 q -360 -39 -354 -25 q -362 -51 -362 -47 q -349 -71 -362 -64 q -308 -78 -335 -78 l -286 -78 q -223 -88 -242 -78 q -210 -121 -204 -99 q -306 -169 -218 -169 l -343 -169 q -386 -176 -369 -169 q -408 -199 -403 -182 q -411 -212 -411 -207 q -335 -246 -411 -246 q -208 -225 -278 -246 q -174 -217 -186 -217 z "},"ૢ":{"ha":0,"x_min":-810,"x_max":-183,"o":"m -236 -125 q -193 -186 -193 -147 q -209 -238 -193 -215 q -253 -287 -225 -261 q -290 -342 -290 -322 q -265 -361 -287 -361 q -254 -360 -260 -361 q -244 -358 -249 -358 q -236 -367 -236 -358 q -256 -407 -236 -386 q -311 -441 -276 -428 q -389 -454 -346 -454 q -470 -433 -443 -454 q -500 -376 -497 -412 q -497 -351 -500 -360 q -478 -314 -492 -331 q -440 -272 -465 -297 q -424 -255 -437 -269 q -406 -228 -411 -240 l -403 -217 q -428 -197 -403 -197 q -455 -206 -442 -197 q -471 -218 -468 -215 q -494 -234 -485 -229 q -512 -239 -503 -239 q -529 -234 -522 -239 q -547 -218 -536 -229 q -592 -193 -569 -193 q -619 -200 -607 -193 q -633 -222 -631 -207 q -625 -253 -637 -239 q -590 -267 -612 -267 q -566 -261 -579 -267 q -547 -256 -553 -256 q -539 -268 -539 -256 q -555 -319 -539 -292 q -603 -365 -571 -346 q -679 -385 -635 -385 q -772 -352 -735 -385 q -810 -265 -810 -319 q -801 -215 -810 -243 q -734 -123 -782 -156 q -632 -90 -686 -90 q -549 -106 -585 -90 q -487 -160 -512 -121 q -375 -112 -442 -124 l -369 -74 q -337 -32 -367 -46 q -265 -18 -307 -18 q -204 -28 -225 -18 q -183 -56 -183 -39 q -207 -100 -183 -81 l -236 -125 z "},"ૣ":{"ha":0,"x_min":-810,"x_max":-183,"o":"m -183 -56 q -207 -100 -183 -81 l -246 -133 q -201 -208 -201 -161 q -207 -240 -201 -225 q -247 -293 -218 -275 q -339 -326 -276 -311 q -383 -340 -371 -333 q -399 -356 -396 -346 q -400 -362 -400 -358 q -392 -376 -400 -371 q -369 -381 -383 -381 l -358 -381 q -317 -410 -308 -381 q -368 -440 -324 -440 l -389 -440 q -425 -468 -425 -440 q -383 -493 -425 -493 q -326 -482 -353 -493 q -296 -471 -300 -471 q -287 -483 -287 -471 q -297 -519 -287 -497 q -348 -578 -314 -556 q -431 -600 -382 -600 q -516 -572 -485 -600 q -547 -506 -547 -544 q -542 -472 -547 -487 q -485 -415 -531 -431 q -507 -367 -507 -397 q -503 -342 -507 -354 q -488 -315 -499 -326 q -467 -294 -478 -304 q -453 -282 -456 -285 q -426 -258 -439 -271 q -408 -232 -412 -244 q -407 -219 -407 -228 q -431 -197 -407 -197 q -456 -206 -443 -197 q -472 -218 -469 -215 q -512 -239 -496 -239 q -529 -234 -522 -239 q -547 -218 -536 -229 q -592 -193 -569 -193 q -619 -200 -607 -193 q -633 -222 -631 -207 q -625 -253 -637 -239 q -590 -267 -612 -267 q -566 -261 -579 -267 q -547 -256 -553 -256 q -539 -268 -539 -256 q -555 -319 -539 -292 q -603 -365 -571 -346 q -679 -385 -635 -385 q -772 -352 -735 -385 q -810 -265 -810 -319 q -801 -215 -810 -243 q -734 -123 -782 -156 q -632 -90 -686 -90 q -487 -160 -537 -90 q -374 -112 -436 -118 l -369 -74 q -337 -32 -367 -46 q -265 -18 -307 -18 q -204 -28 -225 -18 q -183 -56 -183 -39 z "},"ે":{"ha":0,"x_min":-379,"x_max":43,"o":"m 32 971 q 43 938 43 954 q 31 912 43 921 q 1 903 19 903 q -162 938 -71 903 q -316 1035 -253 974 q -379 1171 -379 1097 q -347 1260 -379 1226 q -262 1293 -315 1293 q -167 1261 -208 1293 q -82 1158 -125 1229 l 32 971 z "},"ૈ":{"ha":0,"x_min":-421,"x_max":124,"o":"m 13 1293 q 92 1251 60 1293 q 124 1125 124 1208 q 108 1013 124 1063 q 67 935 92 963 q 17 907 42 907 q -162 932 -58 907 q -344 1008 -267 957 q -421 1133 -421 1058 q -394 1205 -421 1179 q -322 1231 -368 1231 q -269 1218 -294 1231 q -204 1172 -243 1206 q -94 1069 -165 1139 l -18 996 q -71 1093 -56 1051 q -86 1172 -86 1135 q -58 1260 -86 1226 q 13 1293 -31 1293 z "},"ો":{"ha":528,"x_min":36,"x_max":576,"o":"m 543 963 q 551 938 551 949 q 539 913 551 922 q 508 903 526 903 q 345 941 436 903 q 190 1042 254 979 q 125 1174 125 1106 q 135 1222 125 1199 q 242 1293 161 1293 q 339 1263 297 1293 q 424 1158 381 1232 l 543 963 m 474 867 q 556 848 535 867 q 576 799 576 829 q 569 753 576 783 l 411 235 q 407 215 407 225 q 413 198 407 204 q 431 192 419 192 q 449 197 442 192 q 467 215 457 203 q 482 226 476 226 q 495 215 490 226 q 500 189 500 204 q 469 99 500 144 q 384 25 439 54 q 260 -4 329 -4 q 91 51 146 -4 q 36 190 36 106 q 78 388 36 263 l 193 753 q 297 837 210 807 q 474 867 383 867 z "},"ૌ":{"ha":528,"x_min":36,"x_max":665,"o":"m 554 1293 q 633 1251 601 1293 q 665 1125 665 1208 q 649 1013 665 1063 q 608 935 633 963 q 558 907 583 907 q 379 932 483 907 q 198 1008 275 957 q 121 1133 121 1058 q 147 1205 121 1179 q 219 1231 174 1231 q 273 1218 247 1231 q 338 1172 299 1206 q 447 1069 376 1139 l 524 996 q 471 1093 486 1051 q 456 1172 456 1135 q 483 1260 456 1226 q 554 1293 511 1293 m 474 867 q 556 848 535 867 q 576 799 576 829 q 569 753 576 783 l 411 235 q 407 215 407 225 q 413 198 407 204 q 431 192 419 192 q 449 197 442 192 q 467 215 457 203 q 482 226 476 226 q 495 215 490 226 q 500 189 500 204 q 469 99 500 144 q 384 25 439 54 q 260 -4 329 -4 q 91 51 146 -4 q 36 190 36 106 q 78 388 36 263 l 193 753 q 297 837 210 807 q 474 867 383 867 z "},"ૅ":{"ha":0,"x_min":-378,"x_max":179,"o":"m -42 915 q -209 960 -132 915 q -332 1069 -286 1006 q -378 1181 -378 1133 q -375 1201 -378 1194 q -346 1225 -367 1225 q -315 1212 -332 1225 q -272 1174 -297 1199 q -200 1113 -232 1135 q -132 1092 -168 1092 q -80 1106 -103 1092 q -22 1153 -57 1121 q 33 1198 11 1183 q 85 1213 56 1213 q 151 1182 124 1213 q 179 1104 179 1151 q 169 1050 179 1078 q 88 951 147 988 q -42 915 29 915 z "},"ૉ":{"ha":528,"x_min":36,"x_max":707,"o":"m 486 915 q 319 960 396 915 q 196 1069 242 1006 q 150 1181 150 1133 q 153 1201 150 1194 q 182 1225 161 1225 q 213 1212 196 1225 q 256 1174 231 1199 q 328 1113 296 1135 q 396 1092 360 1092 q 448 1106 425 1092 q 506 1153 471 1121 q 561 1198 539 1183 q 613 1213 583 1213 q 679 1182 651 1213 q 707 1104 707 1151 q 697 1050 707 1078 q 616 951 675 988 q 486 915 557 915 m 474 867 q 556 848 535 867 q 576 799 576 829 q 569 753 576 783 l 411 235 q 407 215 407 225 q 413 198 407 204 q 431 192 419 192 q 449 197 442 192 q 467 215 457 203 q 482 226 476 226 q 495 215 490 226 q 500 189 500 204 q 469 99 500 144 q 384 25 439 54 q 260 -4 329 -4 q 91 51 146 -4 q 36 190 36 106 q 78 388 36 263 l 193 753 q 297 837 210 807 q 474 867 383 867 z "},"ક":{"ha":749,"x_min":18,"x_max":775,"o":"m 472 879 q 637 845 568 879 q 740 758 706 811 q 775 646 775 704 q 763 599 775 614 q 736 583 751 583 q 686 600 719 583 q 624 624 651 615 q 557 633 596 633 q 476 611 507 633 q 443 551 446 589 q 456 511 443 529 l 518 543 q 600 568 574 568 q 645 553 621 568 q 687 515 669 538 q 704 475 704 493 q 690 442 704 454 q 635 431 676 431 l 543 431 q 680 343 629 394 q 729 229 731 292 q 678 109 725 163 q 551 26 632 56 q 363 -4 469 -4 q 183 25 263 -4 q 61 106 104 54 q 21 219 18 157 q 40 286 24 256 q 75 335 56 317 q 107 353 94 353 q 140 332 119 353 q 218 282 175 301 q 338 263 261 263 q 416 283 389 263 q 443 335 443 303 q 415 399 447 371 q 333 361 360 371 q 290 351 307 351 q 224 366 260 351 q 165 402 189 381 q 143 444 142 424 q 158 476 143 463 q 204 490 172 490 l 326 490 q 252 567 281 522 q 224 661 224 611 q 252 768 224 718 q 337 849 281 818 q 472 879 393 879 z "},"ખ":{"ha":1290,"x_min":86,"x_max":1339,"o":"m 1174 235 q 1169 215 1169 225 q 1176 198 1169 204 q 1192 192 1182 192 q 1211 197 1203 192 q 1229 215 1219 203 q 1244 226 1239 226 q 1258 215 1253 226 q 1263 189 1263 203 q 1231 99 1263 144 q 1145 25 1200 54 q 1021 -4 1090 -4 q 851 51 906 -4 q 796 190 796 106 q 824 333 796 246 q 736 364 775 344 q 566 226 667 279 q 365 174 465 174 q 168 228 231 174 q 106 381 106 283 q 132 518 106 444 l 174 642 l 176 658 q 154 685 176 685 q 133 678 140 685 q 117 661 125 672 q 104 650 108 650 q 91 661 96 650 q 86 689 86 672 q 116 778 86 733 q 200 851 146 822 q 324 879 254 879 q 494 826 433 879 q 556 690 556 772 q 525 558 556 624 l 489 467 q 482 435 482 449 q 494 403 482 415 q 526 392 506 392 q 626 447 582 392 q 599 496 608 474 q 590 551 590 518 q 628 657 590 619 q 718 694 667 694 q 793 665 765 694 q 821 581 821 635 q 804 483 821 532 q 853 497 833 485 q 888 539 874 510 l 954 753 q 1058 837 972 807 q 1235 867 1144 867 q 1318 848 1297 867 q 1339 799 1339 829 q 1331 753 1339 781 l 1174 235 z "},"ગ":{"ha":1039,"x_min":36,"x_max":1090,"o":"m 250 272 q 90 321 143 272 q 36 440 36 369 q 40 481 36 463 q 64 514 47 514 q 78 501 71 514 q 92 480 85 489 q 111 471 100 471 q 161 499 138 471 q 199 570 185 526 q 213 658 213 614 q 206 694 213 682 q 188 707 199 707 q 158 690 174 707 q 135 674 142 674 q 122 685 126 674 q 118 710 118 696 q 146 792 118 753 q 222 855 174 831 q 329 879 271 879 q 509 809 444 879 q 574 631 574 739 q 535 442 574 524 q 422 317 496 361 q 250 272 349 272 m 986 867 q 1068 848 1046 867 q 1090 799 1090 829 q 1082 753 1090 789 l 924 235 q 921 217 921 221 q 942 192 921 192 q 963 198 954 192 q 981 215 971 204 q 994 226 990 226 q 1006 215 1001 226 q 1011 189 1011 203 q 981 99 1011 144 q 896 25 950 54 q 774 -4 842 -4 q 601 51 657 -4 q 546 190 546 106 q 556 269 546 225 q 590 388 567 313 l 707 753 q 810 837 724 807 q 986 867 896 867 z "},"ઘ":{"ha":1079,"x_min":35,"x_max":1129,"o":"m 963 235 q 958 215 958 225 q 965 198 958 204 q 982 192 971 192 q 1001 198 993 192 q 1019 215 1010 204 q 1033 226 1028 226 q 1047 215 1042 226 q 1051 189 1051 204 q 1020 99 1051 144 q 934 25 989 54 q 811 -4 879 -4 q 642 51 697 -4 q 588 190 588 106 q 604 301 588 233 q 293 174 479 174 q 103 228 171 174 q 35 368 35 282 q 175 546 35 493 q 121 664 121 597 q 151 772 121 724 q 238 850 182 821 q 368 879 294 879 q 498 855 440 879 q 588 791 556 831 q 621 706 621 751 q 615 684 621 692 q 600 676 610 676 q 579 684 590 676 q 558 701 568 692 q 534 721 544 714 q 513 728 524 728 q 480 713 494 728 q 465 675 465 699 q 489 616 465 636 q 556 575 513 596 q 587 560 576 567 q 597 544 597 553 q 576 519 597 529 q 515 500 556 510 q 426 467 457 485 q 394 417 394 450 q 478 365 394 365 q 595 410 544 365 q 674 528 646 454 l 743 753 q 849 837 763 807 q 1025 867 935 867 q 1108 848 1086 867 q 1129 799 1129 829 q 1122 753 1129 783 l 963 235 z "},"ઙ":{"ha":767,"x_min":25,"x_max":801,"o":"m 522 735 q 513 705 522 713 q 481 697 503 697 q 439 654 439 697 q 453 613 439 635 q 504 556 468 590 q 662 384 617 449 q 707 250 707 319 q 699 183 707 219 q 592 47 678 99 q 378 -4 507 -4 q 190 36 269 -4 q 67 146 110 76 q 25 301 25 215 q 37 382 25 350 q 64 414 49 414 q 87 404 71 414 q 121 382 103 394 q 226 318 178 342 q 331 294 275 294 q 424 321 390 294 q 458 394 458 347 q 431 460 458 429 q 343 539 403 490 q 233 642 271 597 q 194 744 194 688 q 235 840 194 801 q 340 879 275 879 q 430 856 388 879 q 497 799 472 833 q 522 735 522 765 m 683 851 q 591 808 626 851 q 556 696 556 765 q 589 611 556 644 q 674 578 622 578 q 766 621 731 578 q 801 733 801 664 q 768 818 801 785 q 683 851 735 851 z "},"ચ":{"ha":1103,"x_min":18,"x_max":1151,"o":"m 983 235 q 981 217 981 221 q 1004 192 981 192 q 1024 198 1015 192 q 1041 215 1032 204 q 1056 226 1050 226 q 1069 215 1063 226 q 1075 189 1075 203 q 1044 99 1075 144 q 958 25 1013 54 q 835 -4 903 -4 q 675 42 729 -4 q 611 163 621 88 q 311 307 419 174 q 219 297 271 297 q 117 317 163 297 q 44 369 71 336 q 18 440 18 403 q 42 506 18 486 q 100 526 65 526 q 139 519 121 526 q 179 499 157 513 q 238 559 218 528 q 258 613 258 590 q 249 639 258 629 q 224 649 240 649 q 188 638 206 649 q 164 626 169 626 q 149 650 149 626 q 154 682 149 665 q 253 818 179 764 q 428 872 326 872 q 583 815 529 872 q 638 669 638 758 q 628 597 638 642 q 557 458 610 525 q 426 350 504 392 q 538 324 489 324 q 617 351 586 324 q 667 432 649 379 l 767 753 q 871 837 785 807 q 1047 867 957 867 q 1130 848 1108 867 q 1151 799 1151 829 q 1143 753 1151 781 l 983 235 z "},"છ":{"ha":1007,"x_min":29,"x_max":1036,"o":"m 853 797 q 989 730 942 797 q 1036 558 1036 663 q 1019 435 1036 497 q 901 210 989 308 q 685 56 814 111 q 403 0 556 0 q 204 35 289 0 q 74 131 119 69 q 29 268 29 192 q 42 350 29 308 q 204 513 76 464 q 143 640 143 563 q 154 708 143 671 q 247 831 176 782 q 428 879 318 879 q 577 835 519 879 q 635 728 635 792 q 616 673 635 693 q 576 653 597 653 q 558 674 564 653 q 521 715 549 715 q 497 705 507 715 q 481 676 486 694 q 476 647 476 663 q 499 592 476 614 q 561 549 522 571 q 595 528 585 536 q 606 510 606 519 q 580 485 606 496 q 489 457 554 475 q 415 426 440 443 q 382 382 390 408 q 379 361 379 375 q 428 300 379 322 q 546 278 476 278 q 665 297 607 278 q 772 347 724 315 q 692 450 719 393 q 665 569 665 507 q 678 653 665 611 q 744 760 700 722 q 853 797 788 797 m 882 485 q 889 528 889 508 q 877 579 889 558 q 844 600 865 600 q 801 557 814 600 q 796 517 796 540 q 808 458 796 488 q 840 408 819 429 q 882 485 868 443 z "},"જ":{"ha":972,"x_min":89,"x_max":1083,"o":"m 1083 714 q 1026 565 1083 631 q 824 421 969 499 l 710 360 q 797 290 768 329 q 825 196 825 250 q 757 51 825 107 q 578 -4 689 -4 q 426 28 493 -4 q 322 119 360 61 q 283 251 283 178 q 323 383 283 321 q 465 535 363 446 l 457 547 q 353 613 410 613 q 310 599 326 613 q 294 563 294 586 q 303 533 294 550 q 313 510 313 517 q 283 489 313 489 q 185 518 229 489 q 115 596 140 547 q 89 699 89 644 q 99 761 89 732 q 162 849 117 818 q 269 879 207 879 q 424 815 354 879 q 546 601 493 750 q 653 702 626 671 q 679 754 679 733 q 674 769 679 764 q 657 781 668 775 q 641 791 646 786 q 636 806 636 796 q 660 856 636 829 q 731 902 685 883 q 840 921 778 921 q 965 892 910 921 q 1052 816 1021 864 q 1083 714 1083 768 m 600 188 q 639 203 624 188 q 654 242 654 218 q 635 292 654 267 l 621 310 q 554 233 554 272 q 567 200 554 213 q 600 188 579 188 z "},"ઝ":{"ha":1007,"x_min":36,"x_max":1074,"o":"m 1074 793 q 1068 765 1074 779 q 1050 728 1063 751 l 913 489 q 947 356 947 428 q 946 322 947 333 q 891 150 936 225 q 777 35 846 75 q 629 -6 708 -6 q 469 43 522 -6 q 415 163 415 92 q 419 203 415 185 q 443 236 426 236 q 457 224 450 236 q 472 202 464 211 q 490 193 479 193 q 535 219 513 193 q 572 285 557 244 q 586 364 586 325 q 576 409 586 392 q 551 426 567 426 q 513 404 531 426 q 403 306 471 340 q 250 272 336 272 q 90 321 143 272 q 36 440 36 369 q 40 481 36 463 q 64 514 47 514 q 78 501 71 514 q 92 480 85 489 q 111 471 100 471 q 161 499 138 471 q 199 570 185 526 q 213 658 213 614 q 206 694 213 682 q 188 707 199 707 q 158 690 174 707 q 135 674 142 674 q 122 685 126 674 q 118 710 118 696 q 146 792 118 753 q 222 855 174 831 q 329 879 271 879 q 509 809 444 879 q 574 631 574 739 q 569 561 574 594 q 635 590 599 579 l 681 753 q 779 838 696 808 q 953 867 863 867 q 1042 847 1011 867 q 1074 793 1074 828 z "},"ઞ":{"ha":1051,"x_min":36,"x_max":1103,"o":"m 936 235 q 933 217 933 221 q 954 192 933 192 q 975 198 967 192 q 993 215 983 204 q 1007 226 1003 226 q 1019 215 1014 226 q 1024 189 1024 203 q 993 99 1024 144 q 908 25 963 54 q 786 -4 854 -4 q 614 51 669 -4 q 558 190 558 106 q 569 272 558 224 q 439 328 499 288 q 250 272 363 272 q 90 321 143 272 q 36 440 36 369 q 40 481 36 463 q 64 514 47 514 q 78 501 71 514 q 92 480 85 489 q 111 471 100 471 q 161 499 138 471 q 199 570 185 526 q 213 658 213 614 q 206 694 213 682 q 188 707 199 707 q 158 690 174 707 q 135 674 142 674 q 122 685 126 674 q 118 710 118 696 q 146 792 118 753 q 222 855 174 831 q 329 879 271 879 q 509 809 444 879 q 574 631 574 739 q 525 424 574 510 q 596 446 568 425 q 643 513 624 467 l 719 753 q 822 837 736 807 q 999 867 908 867 q 1081 848 1058 867 q 1103 799 1103 829 q 1094 753 1103 789 l 936 235 z "},"ટ":{"ha":758,"x_min":28,"x_max":771,"o":"m 701 410 q 726 390 717 410 q 735 332 735 369 q 690 163 735 240 q 560 41 646 86 q 354 -4 474 -4 q 117 56 207 -4 q 28 219 28 117 q 69 351 28 299 q 168 434 111 404 q 311 496 225 464 q 416 543 385 525 q 447 588 447 561 q 434 621 447 608 q 396 633 421 633 q 361 625 378 633 q 322 603 344 617 q 283 583 296 583 q 269 592 275 583 q 264 619 264 601 q 298 752 264 693 q 394 845 332 811 q 540 879 457 879 q 707 829 643 879 q 771 703 771 779 q 734 593 771 638 q 645 522 697 549 q 514 465 593 494 q 399 414 436 436 q 363 358 363 392 q 389 306 363 322 q 471 289 415 289 q 572 313 532 289 q 654 376 613 336 q 682 402 672 394 q 701 410 692 410 z "},"ઠ":{"ha":865,"x_min":32,"x_max":832,"o":"m 589 618 q 604 583 589 600 q 671 529 619 565 q 794 421 757 472 q 832 293 832 369 q 789 146 832 215 q 664 33 746 76 q 471 -10 582 -10 q 252 34 353 -10 q 92 156 151 78 q 32 335 32 235 q 42 417 32 378 q 160 583 71 526 q 371 640 250 640 q 333 692 346 668 q 321 742 321 715 q 342 806 321 774 q 408 858 364 838 q 515 879 451 879 q 662 848 597 879 q 763 764 726 817 q 799 649 799 711 q 792 619 799 631 q 776 607 786 607 q 706 631 753 607 q 629 656 656 656 q 600 645 611 656 q 589 618 589 635 m 474 497 q 426 458 446 497 q 379 308 406 418 q 358 183 358 217 q 365 152 358 161 q 388 143 372 143 q 436 177 417 143 q 479 308 456 211 q 503 453 503 415 q 496 488 503 478 q 474 497 489 497 z "},"ડ":{"ha":736,"x_min":25,"x_max":710,"o":"m 378 879 q 531 844 465 879 q 633 755 597 810 q 669 642 669 700 q 661 599 669 615 q 642 583 653 583 q 600 607 626 583 q 564 632 579 624 q 529 640 549 640 q 499 628 510 640 q 488 596 488 617 q 506 552 488 574 q 565 497 525 531 q 672 386 633 438 q 710 263 710 335 q 670 129 710 190 q 558 32 631 68 q 393 -4 486 -4 q 194 36 278 -4 q 68 146 111 76 q 25 301 25 215 q 37 382 25 350 q 64 414 49 414 q 87 404 71 414 q 121 382 103 394 q 226 318 178 342 q 331 294 275 294 q 424 321 390 294 q 458 394 458 347 q 429 460 458 429 q 338 540 400 492 q 226 641 264 599 q 189 736 189 683 q 238 840 189 800 q 378 879 288 879 z "},"ઢ":{"ha":856,"x_min":25,"x_max":868,"o":"m 564 876 q 724 851 656 876 q 828 781 792 825 q 865 682 865 736 q 858 635 865 656 q 824 578 849 603 q 747 529 799 554 q 604 472 696 504 q 387 373 454 419 q 304 275 319 326 q 296 222 296 246 q 316 158 296 183 q 371 122 336 133 q 367 169 367 147 q 376 238 367 201 q 486 369 404 322 q 660 417 568 417 q 813 369 758 417 q 868 250 868 321 q 858 190 868 218 q 709 42 828 93 q 450 -10 590 -10 q 232 32 329 -10 q 80 150 135 74 q 25 325 25 226 q 233 619 25 500 q 322 672 297 656 q 353 697 347 689 q 358 719 358 706 q 352 740 358 732 q 333 760 346 749 q 316 778 321 771 q 315 796 311 786 q 400 852 325 828 q 564 876 475 876 m 482 161 q 476 113 474 136 q 561 127 526 113 q 596 176 596 142 q 584 205 596 193 q 553 217 572 217 q 510 202 529 217 q 482 161 490 188 z "},"ણ":{"ha":1542,"x_min":64,"x_max":1594,"o":"m 826 879 q 1004 809 940 879 q 1068 631 1068 739 q 1029 444 1068 525 q 922 319 990 364 q 768 275 854 275 q 600 326 664 275 q 536 458 536 378 q 541 492 536 481 q 554 504 546 504 q 568 494 560 504 q 584 477 576 483 q 606 471 592 471 q 656 499 632 471 q 694 570 679 526 q 708 658 708 614 q 683 707 708 707 q 666 701 674 707 q 649 685 658 696 q 633 674 639 674 q 620 685 625 674 q 615 710 615 696 q 642 792 615 753 q 718 855 669 831 q 826 879 767 879 m 453 867 q 538 848 515 867 q 560 799 560 829 q 551 753 560 781 l 426 364 q 419 328 419 340 q 438 292 419 307 q 504 261 457 278 l 788 164 q 956 67 900 124 q 1013 -72 1013 11 q 983 -176 1013 -129 q 903 -251 954 -224 q 786 -279 851 -279 q 662 -250 715 -279 q 580 -172 608 -221 q 551 -67 551 -124 q 558 -32 551 -44 q 574 -19 564 -19 q 604 -28 582 -19 q 649 -36 626 -36 q 699 -23 681 -36 q 717 17 717 -10 q 701 49 717 36 q 644 75 686 61 l 196 231 q 96 288 128 254 q 64 371 64 321 q 78 447 64 406 l 174 753 q 278 837 192 807 q 453 867 364 867 m 1490 867 q 1572 848 1550 867 q 1594 799 1594 829 q 1583 753 1594 789 l 1425 235 q 1424 217 1424 228 q 1444 192 1424 192 q 1465 198 1457 192 q 1483 215 1474 204 q 1497 226 1492 226 q 1509 215 1504 226 q 1514 189 1514 203 q 1483 99 1514 144 q 1399 25 1453 54 q 1275 -4 1344 -4 q 1106 51 1160 -4 q 1051 190 1051 106 q 1094 388 1051 258 l 1208 753 q 1312 837 1225 807 q 1490 867 1399 867 z "},"ત":{"ha":1053,"x_min":36,"x_max":1103,"o":"m 936 235 q 933 215 933 228 q 954 192 933 192 q 975 198 967 192 q 993 215 983 204 q 1007 226 1003 226 q 1019 215 1014 226 q 1025 189 1025 203 q 994 99 1025 144 q 909 25 964 54 q 786 -4 854 -4 q 616 51 671 -4 q 561 190 561 106 q 604 388 561 258 l 636 492 q 603 493 625 493 q 468 448 525 493 q 390 331 411 403 q 381 271 381 300 q 397 213 381 235 q 433 192 413 192 q 453 197 444 192 q 473 215 461 203 q 493 226 485 226 q 513 190 513 226 q 504 143 513 168 q 426 36 485 76 q 289 -4 367 -4 q 158 28 215 -4 q 68 119 100 61 q 36 253 36 178 q 53 361 36 306 q 196 553 90 483 q 468 622 301 622 q 668 593 554 622 l 718 753 q 822 837 736 807 q 999 867 908 867 q 1081 848 1060 867 q 1103 799 1103 829 q 1094 753 1103 775 l 936 235 z "},"થ":{"ha":1201,"x_min":40,"x_max":1251,"o":"m 1085 235 q 1082 217 1082 228 q 1088 199 1082 206 q 1104 192 1094 192 q 1124 198 1117 192 q 1141 215 1132 204 q 1156 226 1150 226 q 1169 215 1164 226 q 1174 189 1174 203 q 1143 99 1174 144 q 1058 25 1113 54 q 935 -4 1003 -4 q 765 51 819 -4 q 710 190 710 106 q 719 269 710 226 q 435 174 610 174 q 244 208 336 174 q 97 299 153 243 q 40 415 40 354 q 54 454 40 438 q 107 488 68 471 q 222 529 146 506 q 272 547 225 531 q 168 601 207 563 q 129 693 129 640 q 161 784 129 742 q 253 853 193 826 q 396 879 314 879 q 573 846 497 879 q 688 758 649 813 q 728 640 728 703 q 685 508 728 564 q 558 410 643 453 l 483 371 q 467 357 467 365 q 488 346 467 350 q 542 342 508 342 q 696 381 632 342 q 786 496 760 419 l 786 493 l 868 753 q 971 837 885 807 q 1147 867 1057 867 q 1229 848 1207 867 q 1251 799 1251 829 q 1244 753 1251 783 l 1085 235 m 313 658 q 328 622 313 638 q 371 600 343 606 q 400 660 400 628 q 387 694 400 683 q 357 706 374 706 q 326 692 340 706 q 313 658 313 679 z "},"દ":{"ha":689,"x_min":28,"x_max":668,"o":"m 647 313 q 668 261 668 313 q 627 137 668 197 q 515 38 586 76 q 356 0 443 0 q 180 38 254 0 q 67 141 106 76 q 28 283 28 206 q 72 426 28 367 q 200 517 117 486 q 156 629 156 561 q 193 759 156 703 q 296 847 231 815 q 444 878 361 878 q 599 833 544 878 q 653 726 653 789 q 634 669 653 690 q 583 647 615 647 q 574 652 576 647 q 571 674 572 657 q 536 714 567 714 q 501 696 513 714 q 489 644 489 678 q 512 585 489 606 q 576 546 535 565 q 618 514 618 529 q 590 490 618 501 q 501 464 563 479 q 408 427 440 450 q 375 365 375 404 q 405 302 375 324 q 486 281 435 281 q 564 288 533 281 q 618 303 594 294 q 647 313 642 313 z "},"ધ":{"ha":1068,"x_min":36,"x_max":1118,"o":"m 953 235 q 949 215 949 225 q 955 198 949 204 q 971 192 961 192 q 989 197 982 192 q 1006 215 996 203 q 1024 226 1017 226 q 1035 215 1031 226 q 1040 189 1040 203 q 1009 99 1040 144 q 923 25 978 54 q 799 -4 868 -4 q 630 51 685 -4 q 575 190 575 106 q 585 269 575 226 q 301 176 465 176 q 161 204 221 176 q 69 278 101 232 q 36 379 36 325 q 46 436 36 403 q 108 529 63 488 q 219 589 153 571 q 143 728 143 650 q 151 782 143 756 q 224 901 171 844 q 344 992 278 958 q 467 1026 410 1026 q 558 1005 510 1026 q 637 950 606 983 q 668 883 668 917 q 649 840 668 858 q 569 785 631 822 q 513 746 528 758 q 496 724 499 733 q 504 690 492 706 q 547 649 517 674 q 583 616 572 628 q 594 592 594 604 q 574 562 594 576 q 511 525 553 547 q 442 486 467 503 q 410 449 417 469 q 406 428 406 439 q 427 385 406 403 q 483 368 449 368 q 591 411 543 368 q 668 540 639 454 l 735 753 q 838 837 751 807 q 1014 867 924 867 q 1097 848 1076 867 q 1118 799 1118 829 q 1110 753 1118 781 l 953 235 z "},"ન":{"ha":1006,"x_min":22,"x_max":1057,"o":"m 890 235 q 888 217 888 221 q 908 192 888 192 q 929 198 921 192 q 947 215 938 204 q 961 226 957 226 q 973 215 968 226 q 978 189 978 203 q 947 99 978 144 q 863 25 917 54 q 740 -4 808 -4 q 568 51 624 -4 q 513 190 513 106 q 523 269 513 225 q 557 388 533 313 l 592 496 q 479 522 532 522 q 401 497 432 522 q 371 426 371 471 q 384 385 371 399 q 414 372 397 372 q 431 378 424 372 q 449 395 439 383 q 467 407 460 407 q 478 393 474 407 q 483 363 483 379 q 453 267 483 311 q 373 199 424 224 q 264 174 322 174 q 91 236 160 174 q 22 403 22 299 q 65 550 22 486 q 184 649 108 614 q 354 683 260 683 q 625 600 496 683 l 674 753 q 776 837 690 807 q 953 867 863 867 q 1035 848 1013 867 q 1057 799 1057 829 q 1049 753 1057 789 l 890 235 z "},"પ":{"ha":1064,"x_min":88,"x_max":1115,"o":"m 947 235 q 944 217 944 228 q 968 192 944 192 q 988 198 981 192 q 1004 215 996 204 q 1017 226 1013 226 q 1031 215 1026 226 q 1036 189 1036 204 q 1005 99 1036 144 q 919 25 974 54 q 796 -4 864 -4 q 627 51 682 -4 q 572 190 572 106 q 581 264 572 222 q 340 174 479 174 q 164 229 224 174 q 104 381 104 285 q 133 518 104 431 l 172 642 l 175 658 q 157 685 175 685 q 136 678 144 685 q 118 661 128 672 q 103 650 108 650 q 92 661 96 650 q 88 689 88 672 q 116 778 88 735 q 201 851 144 822 q 336 879 258 879 q 497 826 442 879 q 553 690 553 774 q 524 558 553 625 l 489 467 q 479 421 479 438 q 493 384 479 397 q 536 371 507 371 q 597 400 567 371 q 643 478 626 429 l 729 753 q 835 837 749 807 q 1010 867 921 867 q 1094 848 1072 867 q 1115 799 1115 829 q 1106 753 1115 785 l 947 235 z "},"ફ":{"ha":724,"x_min":18,"x_max":753,"o":"m 447 879 q 613 845 543 879 q 717 758 682 811 q 753 646 753 704 q 740 599 753 615 q 714 583 728 583 q 664 600 697 583 q 602 624 631 615 q 535 633 574 633 q 454 611 483 633 q 422 551 425 589 l 422 546 q 435 508 422 524 l 496 539 q 578 563 546 563 q 624 547 599 563 q 667 508 650 531 q 682 468 683 486 q 613 428 682 428 l 511 428 q 655 333 603 389 q 707 208 707 278 q 669 97 707 146 q 560 22 631 49 q 397 -6 490 -6 q 265 8 322 -6 q 322 -56 283 -35 q 407 -78 361 -78 q 473 -69 447 -78 q 519 -49 499 -61 q 546 -37 540 -37 q 582 -69 565 -37 q 599 -144 599 -100 q 549 -281 599 -229 q 413 -333 499 -333 q 285 -298 342 -333 q 196 -199 228 -262 q 164 -50 164 -135 q 172 39 164 -7 q 58 125 99 72 q 18 238 18 178 q 25 285 18 260 q 56 332 35 315 q 107 349 78 349 q 224 239 188 349 q 261 238 236 238 q 376 260 329 238 q 422 331 422 282 q 392 394 422 368 q 309 357 335 367 q 267 347 283 347 q 202 361 238 347 q 143 397 167 375 q 119 440 119 419 q 134 471 119 456 q 182 486 149 486 l 308 486 q 230 565 260 518 q 200 661 200 611 q 229 768 200 718 q 314 849 258 818 q 447 879 369 879 z "},"બ":{"ha":1256,"x_min":68,"x_max":1306,"o":"m 1140 235 q 1138 215 1138 228 q 1157 192 1138 192 q 1178 198 1169 192 q 1195 215 1186 204 q 1210 226 1204 226 q 1223 215 1218 226 q 1228 189 1228 204 q 1197 99 1228 144 q 1113 25 1167 54 q 989 -4 1058 -4 q 818 51 874 -4 q 763 190 763 106 q 792 343 763 243 q 738 358 756 351 q 601 224 693 274 q 396 174 510 174 q 228 208 303 174 q 111 310 154 243 q 68 471 68 378 q 117 685 68 592 q 253 828 167 778 q 447 879 339 879 q 571 861 518 879 q 651 817 624 843 q 679 768 679 790 q 654 749 679 749 q 543 720 594 749 q 460 637 492 692 q 429 507 429 582 q 456 414 429 447 q 522 381 482 381 q 599 417 567 381 q 556 475 569 447 q 543 542 543 503 q 571 623 543 593 q 644 653 599 653 q 736 611 700 653 q 772 496 772 569 l 772 493 q 827 510 806 494 q 861 563 849 525 l 921 753 q 1024 837 938 807 q 1201 867 1111 867 q 1285 848 1264 867 q 1306 799 1306 829 q 1296 753 1306 785 l 1140 235 z "},"ભ":{"ha":1396,"x_min":31,"x_max":1447,"o":"m 1281 235 q 1278 217 1278 221 q 1299 192 1278 192 q 1319 198 1311 192 q 1338 215 1328 204 q 1351 226 1347 226 q 1363 215 1358 226 q 1368 189 1368 203 q 1338 99 1368 144 q 1253 25 1307 54 q 1129 -4 1199 -4 q 960 51 1014 -4 q 906 190 906 106 q 915 272 906 226 q 947 388 925 318 l 979 489 l 878 489 q 806 380 849 413 q 697 347 763 347 q 577 376 638 347 q 477 451 517 406 q 438 542 438 497 q 458 592 438 571 q 515 614 479 614 l 542 614 l 564 683 q 571 708 565 690 q 576 736 576 725 q 540 764 576 764 q 450 722 499 764 q 368 611 401 681 q 335 463 335 542 q 411 298 335 354 q 619 242 488 242 q 707 252 674 242 q 763 275 740 263 q 793 288 786 288 q 802 279 799 288 q 806 257 806 271 q 763 136 806 197 q 636 35 719 75 q 439 -4 553 -4 q 140 81 250 -4 q 31 324 31 167 q 101 584 31 456 q 307 796 172 713 q 624 879 442 879 q 834 817 756 879 q 913 644 913 754 q 911 614 913 624 l 1019 614 l 1064 753 q 1167 837 1081 807 q 1344 867 1254 867 q 1426 848 1404 867 q 1447 799 1447 829 q 1439 753 1447 789 l 1281 235 z "},"મ":{"ha":1019,"x_min":26,"x_max":1074,"o":"m 904 235 q 901 217 901 221 q 908 199 901 206 q 924 192 914 192 q 944 198 936 192 q 962 215 953 204 q 976 226 971 226 q 988 215 983 226 q 992 189 992 204 q 961 99 992 144 q 876 25 931 54 q 754 -4 822 -4 q 585 51 639 -4 q 531 190 531 106 q 565 368 531 250 l 465 368 q 388 218 433 263 q 269 174 342 174 q 156 206 213 174 q 63 290 100 238 q 26 401 26 343 q 31 442 26 421 q 59 481 39 465 q 108 496 79 496 l 128 496 l 172 642 l 175 658 q 157 685 175 685 q 136 678 144 685 q 118 661 128 672 q 103 650 108 650 q 92 661 96 650 q 88 689 88 672 q 116 778 88 735 q 201 851 144 822 q 336 879 258 879 q 497 826 442 879 q 553 690 553 774 q 547 642 553 667 q 534 594 542 618 q 524 558 526 569 l 504 496 l 606 496 l 689 753 q 791 837 704 807 q 968 867 878 867 q 1051 848 1029 867 q 1074 799 1074 829 q 1063 753 1074 782 l 904 235 z "},"ય":{"ha":1132,"x_min":26,"x_max":1182,"o":"m 1015 235 q 1013 217 1013 228 q 1019 199 1013 206 q 1035 192 1025 192 q 1055 198 1047 192 q 1072 215 1063 204 q 1086 226 1081 226 q 1099 215 1094 226 q 1104 189 1104 203 q 1074 99 1104 144 q 988 25 1043 54 q 865 -4 933 -4 q 695 51 750 -4 q 640 190 640 106 q 650 271 640 228 q 535 199 600 225 q 392 174 469 174 q 204 215 288 174 q 74 323 121 257 q 26 458 26 389 q 32 501 26 483 q 56 542 39 526 q 113 575 72 558 l 254 632 q 315 686 315 657 q 308 708 315 700 q 289 715 301 715 q 258 704 274 715 q 242 697 249 697 q 225 724 225 697 q 235 768 225 743 q 299 845 251 811 q 422 879 347 879 q 549 849 494 879 q 632 767 603 819 q 661 653 661 715 q 654 590 661 617 q 590 486 639 526 q 442 407 540 446 l 385 385 q 369 371 369 379 q 394 351 369 360 q 457 342 419 342 q 616 378 546 342 q 714 486 686 415 l 799 753 q 901 837 815 807 q 1078 867 988 867 q 1160 848 1138 867 q 1182 799 1182 829 q 1175 753 1182 783 l 1015 235 z "},"ર":{"ha":650,"x_min":-1,"x_max":647,"o":"m 636 590 q 498 404 606 481 q 258 310 390 328 q 382 254 301 254 q 446 268 417 254 q 510 306 475 282 q 551 328 542 328 q 581 301 569 328 q 592 231 592 275 q 568 117 592 171 q 495 30 544 64 q 374 -4 446 -4 q 240 38 296 -4 q 155 153 183 81 q 132 308 126 225 q 36 352 74 319 q -1 429 -1 385 q 6 465 -1 444 q 40 511 15 496 q 93 526 65 526 q 185 494 136 526 q 240 548 218 519 q 268 597 263 576 q 269 613 269 603 q 260 639 269 629 q 235 649 251 649 q 199 638 217 649 q 175 626 181 626 q 160 650 160 626 q 165 682 160 665 q 264 818 190 764 q 439 872 338 872 q 594 815 540 872 q 647 671 647 758 q 636 590 647 635 z "},"લ":{"ha":1165,"x_min":61,"x_max":1214,"o":"m 357 174 q 209 207 276 174 q 101 304 142 240 q 61 456 61 368 q 117 665 61 567 q 273 821 174 763 q 494 879 372 879 q 599 864 556 879 q 663 827 642 849 q 685 786 685 806 q 676 769 685 772 q 643 761 668 765 q 536 715 586 753 q 455 614 486 676 q 424 474 424 551 q 456 378 424 410 q 535 346 488 346 q 572 351 551 346 q 597 356 592 356 q 610 338 610 356 q 574 265 610 304 q 481 200 539 226 q 357 174 422 174 m 1049 235 q 1046 215 1046 228 q 1067 192 1046 192 q 1088 198 1079 192 q 1105 215 1096 204 q 1119 226 1114 226 q 1133 215 1128 226 q 1138 189 1138 204 q 1107 99 1138 144 q 1022 25 1076 54 q 899 -4 968 -4 q 727 51 782 -4 q 672 190 672 106 q 683 270 672 225 q 715 388 693 315 l 760 522 q 665 436 697 458 q 597 414 632 414 q 530 440 556 414 q 504 513 504 467 q 521 581 504 547 q 560 637 538 615 q 600 658 583 658 q 613 653 608 658 q 624 639 618 649 q 637 621 631 626 q 656 615 643 615 q 720 639 683 615 q 817 713 757 663 q 975 826 908 786 q 1111 867 1042 867 q 1193 848 1172 867 q 1214 799 1214 829 q 1207 753 1214 783 l 1049 235 z "},"વ":{"ha":1040,"x_min":64,"x_max":1092,"o":"m 925 235 q 921 215 921 225 q 927 198 921 204 q 943 192 933 192 q 963 198 956 192 q 980 215 971 204 q 994 226 989 226 q 1008 215 1003 226 q 1013 189 1013 203 q 982 99 1013 144 q 897 25 951 54 q 774 -4 842 -4 q 604 51 658 -4 q 550 190 550 106 q 558 269 550 224 q 343 174 465 174 q 141 250 218 174 q 64 454 64 326 q 113 674 64 576 q 247 825 161 771 q 442 879 333 879 q 567 857 517 879 q 639 804 617 835 q 661 747 661 774 q 654 726 661 732 q 628 719 647 719 q 481 655 536 719 q 425 482 425 590 q 504 378 425 378 q 622 489 576 378 l 707 753 q 810 837 722 807 q 988 867 897 867 q 1069 848 1047 867 q 1092 799 1092 829 q 1082 753 1092 785 l 925 235 z "},"શ":{"ha":1264,"x_min":13,"x_max":1285,"o":"m 1176 111 q 1196 83 1186 111 q 1206 15 1206 54 q 1163 -134 1206 -67 q 1039 -242 1121 -201 q 844 -282 957 -282 q 491 -168 651 -282 q 215 179 331 -54 q 72 238 132 190 q 13 344 13 286 q 18 375 13 356 q 48 417 26 401 q 100 432 69 432 q 217 385 156 432 q 299 436 274 418 q 205 517 239 469 q 171 622 171 564 q 206 745 171 688 q 312 838 242 803 q 479 872 382 872 q 620 842 554 872 q 727 753 686 813 q 768 613 768 694 q 749 497 768 563 q 616 306 714 390 q 383 190 518 221 q 623 63 490 107 q 900 19 756 19 q 1049 42 994 19 q 1149 96 1104 64 q 1162 105 1153 99 q 1176 111 1171 111 m 1147 369 q 1143 350 1143 360 q 1164 326 1143 326 q 1185 333 1176 326 q 1204 351 1194 339 q 1218 363 1214 363 q 1230 351 1226 363 q 1233 324 1233 339 q 1200 233 1232 278 q 1113 160 1168 189 q 988 131 1057 131 q 823 182 875 131 q 771 314 771 233 q 782 399 771 353 q 818 522 793 446 l 899 753 q 1005 837 918 807 q 1182 867 1092 867 q 1265 848 1244 867 q 1285 799 1285 829 q 1275 753 1282 776 l 1147 369 m 303 589 q 316 533 299 557 q 363 496 333 510 q 396 589 396 538 q 384 632 396 618 q 353 646 372 646 q 319 631 335 646 q 303 589 304 617 z "},"ષ":{"ha":1064,"x_min":88,"x_max":1115,"o":"m 947 235 q 944 217 944 228 q 968 192 944 192 q 988 198 981 192 q 1004 215 996 204 q 1017 226 1013 226 q 1031 215 1026 226 q 1036 189 1036 204 q 1005 99 1036 144 q 919 25 974 54 q 796 -4 864 -4 q 627 51 682 -4 q 572 190 572 106 q 582 274 572 229 q 467 197 524 221 q 340 174 410 174 q 164 229 224 174 q 104 381 104 285 q 133 518 104 431 l 172 642 l 175 658 q 157 685 175 685 q 136 678 144 685 q 118 661 128 672 q 103 650 108 650 q 92 661 96 650 q 88 689 88 672 q 116 778 88 735 q 201 851 144 822 q 336 879 258 879 q 553 732 486 879 l 653 510 l 729 753 q 835 837 749 807 q 1010 867 921 867 q 1094 848 1072 867 q 1115 799 1115 829 q 1106 753 1115 785 l 947 235 m 479 421 q 493 384 479 397 q 536 371 507 371 q 572 381 554 371 q 600 407 589 390 l 528 571 l 489 467 q 479 421 479 438 z "},"સ":{"ha":1224,"x_min":36,"x_max":1238,"o":"m 1133 867 q 1216 848 1194 867 q 1236 799 1238 829 q 1224 753 1236 781 l 1099 369 q 1096 350 1096 363 q 1115 326 1096 326 q 1136 333 1128 326 q 1155 351 1144 339 q 1171 363 1165 363 q 1181 350 1176 363 q 1186 324 1186 338 q 1152 233 1185 278 q 1064 160 1119 189 q 939 131 1008 131 q 773 183 826 131 q 719 318 719 236 q 729 392 719 343 q 601 451 663 406 q 497 348 557 392 q 365 285 438 304 q 612 92 465 164 q 924 19 758 19 q 1066 41 1018 19 q 1150 94 1114 63 q 1175 111 1167 111 q 1196 82 1185 111 q 1207 15 1207 53 q 1167 -134 1207 -67 q 1049 -242 1128 -201 q 856 -282 969 -282 q 578 -224 706 -282 q 360 -42 450 -167 q 240 272 271 82 q 140 301 186 276 q 65 363 93 326 q 36 438 36 400 q 65 504 36 482 q 128 526 94 526 q 219 494 171 526 q 275 548 253 519 q 303 597 297 576 q 304 613 304 603 q 295 639 304 629 q 269 649 286 649 q 233 638 251 649 q 210 626 215 626 q 194 650 194 626 q 200 682 194 665 q 299 818 225 764 q 474 872 372 872 q 629 815 575 872 q 683 669 683 758 q 674 597 683 642 q 656 543 669 579 q 683 542 665 542 q 758 561 729 542 q 806 624 786 581 l 850 753 q 956 837 869 807 q 1133 867 1043 867 z "},"હ":{"ha":1122,"x_min":40,"x_max":1038,"o":"m 563 -285 q 299 -232 418 -285 q 110 -78 181 -179 q 40 158 40 22 q 94 392 40 278 q 222 581 149 507 q 342 654 296 654 q 368 642 361 654 q 375 606 375 629 l 374 567 q 371 519 371 536 q 393 441 371 469 q 476 413 415 413 q 547 433 521 413 q 572 489 572 454 q 558 524 572 510 q 521 553 544 538 q 492 576 501 567 q 482 597 482 585 q 571 779 483 621 l 600 832 q 637 883 614 861 q 690 904 660 904 q 806 884 735 904 q 932 834 878 864 q 986 776 986 804 q 968 722 986 747 q 885 632 950 697 l 771 521 q 850 376 850 463 q 812 258 850 311 q 706 174 774 204 q 556 144 639 144 q 338 210 417 144 q 261 394 260 276 q 219 258 219 335 q 302 93 219 158 q 556 28 385 28 q 792 92 703 28 q 922 279 882 156 q 943 335 938 324 q 961 346 949 346 q 1015 290 992 346 q 1038 157 1038 235 q 1018 24 1038 88 q 855 -202 976 -119 q 563 -285 733 -285 z "},"ળ":{"ha":1328,"x_min":72,"x_max":1304,"o":"m 438 879 q 558 857 507 879 q 637 804 610 835 q 664 751 664 774 q 655 728 664 735 q 624 719 646 721 q 481 644 532 714 q 431 474 431 574 q 450 402 431 426 q 504 378 469 378 q 559 403 535 378 q 611 485 583 428 l 688 643 q 821 811 742 756 q 1008 867 900 867 q 1159 836 1092 867 q 1265 747 1226 806 q 1304 606 1304 688 q 1286 489 1304 551 l 1211 235 q 1210 217 1210 228 q 1229 192 1210 192 q 1250 198 1242 192 q 1268 215 1258 204 q 1283 226 1278 226 q 1295 215 1292 226 q 1299 189 1299 204 q 1269 99 1299 144 q 1184 25 1239 54 q 1061 -4 1129 -4 q 891 51 946 -4 q 836 190 836 106 q 878 388 836 261 l 929 542 q 942 603 942 578 q 926 647 942 632 q 888 661 911 661 q 840 644 861 661 q 793 576 818 626 l 703 382 q 581 224 651 274 q 401 174 511 174 q 238 210 313 174 q 117 317 163 246 q 72 490 72 389 q 117 692 72 603 q 246 830 163 781 q 438 879 329 879 z "},"ં":{"ha":0,"x_min":-190,"x_max":85,"o":"m -39 1215 q 49 1181 14 1215 q 85 1094 85 1146 q 65 1022 85 1057 q 11 964 46 986 q -68 942 -24 942 q -156 978 -121 942 q -190 1067 -190 1014 q -171 1137 -190 1103 q -117 1193 -151 1171 q -39 1215 -83 1215 z "},"ઁ":{"ha":0,"x_min":-339,"x_max":219,"o":"m -81 1124 q -153 1151 -125 1124 q -181 1217 -181 1178 q -176 1244 -181 1231 q -120 1322 -164 1288 q -24 1357 -76 1357 q 49 1332 21 1357 q 78 1269 78 1307 q 55 1201 78 1235 q -5 1145 32 1167 q -81 1124 -42 1124 m -54 915 q -208 952 -143 915 q -306 1042 -272 989 q -339 1143 -339 1096 q -335 1174 -339 1160 q -306 1197 -326 1197 q -282 1188 -293 1197 q -254 1158 -271 1178 q -183 1094 -219 1118 q -83 1069 -146 1069 q 28 1092 -18 1069 q 119 1151 74 1114 q 139 1165 125 1156 q 163 1180 153 1175 q 181 1185 172 1185 q 208 1167 197 1185 q 219 1122 219 1150 q 213 1078 219 1099 q 118 962 192 1008 q -54 915 44 915 z "},"ઃ":{"ha":488,"x_min":89,"x_max":471,"o":"m 339 761 q 433 724 394 761 q 471 632 471 686 q 451 558 471 594 q 395 499 431 522 q 315 476 360 476 q 224 514 261 476 q 185 606 186 551 q 204 679 185 643 q 259 738 224 715 q 339 761 294 761 m 243 397 q 337 360 299 397 q 375 268 375 322 q 355 194 375 231 q 299 135 335 158 q 219 113 264 113 q 128 150 165 113 q 89 242 90 188 q 108 315 89 279 q 163 374 128 351 q 243 397 199 397 z "},"્":{"ha":0,"x_min":-567,"x_max":-49,"o":"m -469 -42 q -395 -55 -432 -40 q -287 -119 -358 -69 q -65 -283 -217 -168 q -51 -304 -51 -293 q -136 -337 -49 -332 q -377 -316 -281 -342 q -520 -244 -474 -290 q -567 -139 -567 -199 q -540 -69 -567 -96 q -469 -42 -512 -43 z "},"઼":{"ha":0,"x_min":-469,"x_max":-258,"o":"m -351 -36 q -285 -63 -312 -36 q -258 -129 -258 -90 q -291 -208 -258 -174 q -374 -243 -324 -243 q -442 -217 -414 -243 q -469 -153 -469 -192 q -435 -73 -469 -110 q -351 -36 -401 -36 z "},"ઽ":{"ha":676,"x_min":17,"x_max":643,"o":"m 340 868 q 502 840 433 868 q 607 765 571 813 q 643 661 643 718 q 635 607 643 635 q 601 558 624 574 q 540 542 578 542 l 431 542 q 367 508 375 542 q 364 493 364 497 q 376 453 364 474 q 413 403 388 433 q 475 308 453 350 q 497 214 497 267 q 488 147 497 181 q 404 35 463 74 q 258 -4 346 -4 q 149 17 196 -4 q 78 74 103 39 q 53 149 53 108 q 58 186 53 169 q 78 206 64 206 q 106 189 92 206 q 129 170 118 176 q 161 164 140 164 q 182 169 172 164 q 196 186 192 175 q 199 204 199 197 q 183 258 199 229 q 132 336 167 288 q 47 475 78 414 q 17 604 17 536 q 28 679 17 644 q 135 822 58 775 q 340 868 213 868 z "},"૦":{"ha":824,"x_min":39,"x_max":806,"o":"m 447 868 q 631 816 550 868 q 759 672 713 764 q 806 465 806 581 q 752 230 806 336 q 606 62 699 124 q 401 0 514 0 q 211 57 294 0 q 83 213 128 114 q 43 435 39 313 q 106 656 50 557 q 251 812 161 756 q 447 868 340 868 m 518 693 q 459 640 492 693 q 368 435 426 586 q 304 207 304 257 q 333 172 304 172 q 397 226 364 172 q 488 435 431 281 q 549 656 549 601 q 518 693 549 693 z "},"૧":{"ha":658,"x_min":51,"x_max":631,"o":"m 518 235 q 515 217 515 221 q 539 192 515 192 q 559 197 551 192 q 576 215 567 203 q 590 226 585 226 q 602 215 597 226 q 607 189 607 203 q 576 99 607 144 q 491 25 546 54 q 368 -4 436 -4 q 199 51 253 -4 q 144 190 144 106 q 154 269 144 225 q 186 388 164 314 l 214 471 q 95 508 139 472 q 51 604 51 544 q 92 736 51 674 q 207 837 133 799 q 375 875 281 875 q 568 815 506 875 q 631 654 631 754 q 613 540 631 604 l 518 235 m 288 644 q 292 672 292 661 q 254 714 292 714 q 215 695 233 714 q 189 644 197 676 q 183 613 183 628 q 193 584 183 594 q 219 574 203 574 q 259 593 240 574 q 288 644 278 613 z "},"૨":{"ha":688,"x_min":18,"x_max":686,"o":"m 606 357 q 640 340 621 357 q 672 290 658 322 q 686 217 686 258 q 658 109 686 160 q 576 27 629 58 q 449 -4 522 -4 q 247 76 317 -4 q 178 278 178 156 l 179 306 q 61 348 104 313 q 18 439 18 383 q 43 508 18 479 q 106 539 68 538 q 172 526 142 542 q 231 481 201 510 q 290 531 272 504 q 306 593 308 558 q 272 633 306 633 q 242 619 256 632 q 222 606 228 606 q 208 615 213 606 q 203 640 203 625 q 230 753 199 697 q 323 844 261 808 q 467 879 385 879 q 623 825 561 879 q 685 679 685 771 q 629 497 685 574 q 488 374 574 419 q 310 313 403 329 q 457 254 367 254 q 531 275 504 254 q 578 329 557 296 q 592 349 585 340 q 606 357 599 357 z "},"૩":{"ha":735,"x_min":25,"x_max":722,"o":"m 714 621 q 572 475 685 522 q 656 390 626 440 q 686 276 686 340 q 671 185 686 238 q 574 53 650 107 q 372 0 499 0 q 187 47 265 0 q 67 165 108 94 q 25 300 25 235 q 31 340 25 315 q 58 372 38 372 q 111 343 72 372 q 188 295 153 313 q 265 278 224 278 q 332 298 306 278 q 358 357 358 318 q 338 398 358 386 q 279 417 317 410 q 238 430 250 424 q 225 449 225 436 q 229 464 225 456 q 246 485 233 474 q 272 507 258 496 q 320 549 303 529 q 338 593 338 568 q 329 620 338 610 q 307 631 321 631 q 279 618 294 631 q 251 604 265 604 q 233 631 233 604 q 235 647 233 642 q 319 809 243 750 q 503 868 396 868 q 624 841 575 868 q 698 770 674 814 q 722 676 722 726 q 714 621 722 649 z "},"૪":{"ha":946,"x_min":69,"x_max":965,"o":"m 965 729 q 901 555 965 626 q 703 419 836 483 l 586 364 q 678 300 643 344 q 714 201 714 256 q 681 97 714 143 q 589 26 647 51 q 456 0 531 0 q 306 33 372 0 q 201 124 239 65 q 164 257 164 182 q 195 378 164 321 q 306 508 226 436 l 253 524 q 121 600 172 547 q 69 729 69 653 q 97 831 69 793 q 169 868 125 868 q 218 853 199 868 q 258 804 238 839 l 389 578 q 555 719 511 672 q 599 793 599 767 q 590 819 599 811 q 564 832 581 826 q 544 840 550 836 q 539 854 539 844 q 563 905 539 878 q 630 950 588 932 q 724 968 672 968 q 849 937 794 968 q 935 851 904 906 q 965 729 965 796 m 482 192 q 520 208 504 192 q 536 249 536 225 q 501 314 536 289 q 450 276 465 294 q 435 235 435 257 q 447 203 435 215 q 482 192 460 192 z "},"૫":{"ha":1064,"x_min":88,"x_max":1115,"o":"m 947 235 q 944 217 944 228 q 968 192 944 192 q 988 198 981 192 q 1004 215 996 204 q 1017 226 1013 226 q 1031 215 1026 226 q 1036 189 1036 204 q 1005 99 1036 144 q 919 25 974 54 q 796 -4 864 -4 q 627 51 682 -4 q 572 190 572 106 q 581 264 572 222 q 340 174 479 174 q 164 229 224 174 q 104 381 104 285 q 133 518 104 431 l 172 642 l 175 658 q 157 685 175 685 q 136 678 144 685 q 118 661 128 672 q 103 650 108 650 q 92 661 96 650 q 88 689 88 672 q 116 778 88 735 q 201 851 144 822 q 336 879 258 879 q 497 826 442 879 q 553 690 553 774 q 524 558 553 625 l 489 467 q 479 421 479 438 q 493 384 479 397 q 536 371 507 371 q 597 400 567 371 q 643 478 626 429 l 729 753 q 835 837 749 807 q 1010 867 921 867 q 1094 848 1072 867 q 1115 799 1115 829 q 1106 753 1115 785 l 947 235 z "},"૬":{"ha":756,"x_min":35,"x_max":781,"o":"m 482 878 q 637 848 569 878 q 742 765 704 818 q 781 646 781 713 q 769 575 781 615 q 751 535 761 549 q 731 521 740 521 q 699 537 725 521 q 640 565 674 553 q 557 576 606 576 q 409 534 471 576 q 322 411 347 492 q 313 354 313 378 q 327 295 313 319 q 368 261 342 271 q 443 394 390 353 q 567 436 496 436 q 665 403 629 436 q 701 317 701 369 q 694 268 701 289 q 619 175 676 210 q 479 133 561 140 q 515 4 515 69 q 504 -71 515 -36 q 432 -172 485 -136 q 301 -208 379 -208 q 128 -149 190 -208 q 67 4 67 -89 q 83 101 67 51 q 115 125 92 125 q 130 119 122 125 q 146 106 138 114 q 204 63 174 79 q 283 47 235 47 q 347 72 324 47 q 375 133 371 96 q 185 190 261 143 q 72 307 108 236 q 35 463 35 378 q 53 583 35 525 q 150 747 83 681 q 303 846 217 814 q 482 878 390 878 z "},"૭":{"ha":868,"x_min":19,"x_max":838,"o":"m 450 868 q 265 804 340 868 q 178 635 189 740 l 176 613 q 242 458 176 517 q 407 400 307 400 q 537 438 481 400 q 626 542 593 476 q 628 515 628 533 q 572 356 628 418 q 408 294 517 294 q 103 453 218 294 q 73 493 82 485 q 51 501 64 501 q 24 469 31 501 q 19 435 19 456 q 80 249 19 354 q 249 67 140 143 q 496 -10 358 -10 q 724 83 633 -10 q 835 342 815 176 q 838 399 838 381 q 788 631 838 524 q 650 803 739 739 q 450 868 561 868 m 513 700 q 553 688 536 700 q 575 654 569 675 q 540 604 564 625 q 489 583 515 583 q 456 594 469 583 q 443 625 443 604 q 466 678 443 656 q 513 700 489 700 z "},"૮":{"ha":838,"x_min":22,"x_max":819,"o":"m 263 358 q 206 331 229 350 q 174 290 182 311 q 171 268 171 274 q 188 226 171 240 q 231 211 204 211 q 274 227 258 211 q 290 267 290 243 q 288 288 290 281 q 283 306 283 299 q 303 330 283 322 q 367 338 324 338 q 509 292 457 338 q 561 179 561 246 q 554 132 561 157 q 475 35 535 71 q 333 0 415 0 q 168 35 239 0 q 60 133 97 71 q 22 274 22 194 q 39 381 22 325 q 115 530 63 458 q 246 683 167 601 l 407 835 q 461 876 438 863 q 511 890 485 890 q 606 854 551 890 l 710 790 q 819 635 819 719 q 811 586 819 611 q 754 507 797 536 q 622 451 711 478 l 263 358 z "},"૯":{"ha":990,"x_min":50,"x_max":1015,"o":"m 546 868 q 615 856 589 868 q 632 821 640 843 q 612 795 628 808 q 564 763 596 782 q 438 664 489 714 q 363 532 388 614 q 349 442 349 489 q 402 299 349 356 q 564 242 456 242 q 667 254 622 242 q 761 288 711 267 q 821 307 806 307 q 850 272 850 307 q 844 239 850 264 q 769 120 825 176 q 629 30 714 64 q 442 -4 544 -4 q 233 40 321 -4 q 97 163 144 83 q 50 346 50 243 q 75 503 50 419 q 185 695 110 613 q 357 823 261 778 q 546 868 453 868 m 726 721 q 801 756 763 756 q 869 736 833 756 l 946 704 q 1015 626 1015 672 q 1011 603 1015 615 q 981 554 1003 575 q 907 511 960 533 l 656 413 q 585 387 607 393 q 536 381 564 381 q 476 399 500 382 q 451 440 451 415 q 485 501 451 476 l 726 721 z "},"ૐ":{"ha":1510,"x_min":63,"x_max":1475,"o":"m 957 999 q 885 1026 913 999 q 857 1092 857 1053 q 861 1119 857 1106 q 917 1197 874 1163 q 1014 1232 961 1232 q 1087 1207 1058 1232 q 1115 1144 1115 1182 q 1092 1076 1115 1110 q 1033 1020 1069 1042 q 957 999 996 999 m 983 790 q 830 827 894 790 q 732 917 765 864 q 699 1018 699 971 q 703 1049 699 1035 q 732 1072 711 1072 q 756 1063 744 1072 q 783 1033 767 1053 q 855 969 818 993 q 954 944 892 944 q 1065 967 1019 944 q 1157 1026 1111 989 q 1176 1040 1163 1031 q 1200 1055 1190 1050 q 1218 1060 1210 1060 q 1246 1042 1235 1060 q 1257 997 1257 1025 q 1250 953 1257 974 q 1156 837 1229 883 q 983 790 1082 790 m 1107 738 q 1290 691 1206 738 q 1425 568 1375 644 q 1475 406 1475 492 q 1463 326 1475 367 q 1381 211 1440 254 q 1246 168 1322 168 q 1125 192 1183 168 q 1021 264 1067 217 q 954 162 989 190 q 867 133 919 133 q 715 211 783 133 q 708 185 714 200 q 612 53 688 107 q 410 0 536 0 q 224 47 303 0 q 104 165 146 94 q 63 300 63 235 q 68 340 63 315 q 96 372 75 372 q 149 343 110 372 q 226 295 190 313 q 303 278 261 278 q 369 298 343 278 q 396 357 396 318 q 375 398 396 386 q 317 417 354 410 q 275 430 288 424 q 263 449 263 436 q 267 464 263 456 q 283 485 271 474 q 310 507 296 496 q 358 549 340 529 q 375 593 375 568 q 367 620 375 610 q 344 631 358 631 q 317 618 332 631 q 289 604 303 604 q 271 631 271 604 q 272 647 271 642 q 357 809 281 750 q 540 868 433 868 q 662 841 613 868 q 735 770 711 814 q 760 676 760 726 q 751 621 760 649 q 610 475 722 522 q 675 418 651 447 q 713 396 692 396 q 750 422 732 396 q 794 525 768 449 q 908 688 836 639 q 1107 738 981 738 m 1186 397 q 1197 469 1197 431 q 1182 545 1197 514 q 1149 576 1167 576 q 1131 567 1139 576 q 1110 524 1124 558 q 1074 415 1096 489 q 1058 364 1061 374 q 1119 349 1089 349 q 1162 360 1146 349 q 1186 397 1178 371 z "},"૰":{"ha":590,"x_min":68,"x_max":572,"o":"m 300 229 q 183 256 236 229 q 100 327 131 282 q 68 428 69 372 q 103 548 68 494 q 201 632 139 601 q 339 663 263 663 q 458 638 404 663 q 542 568 511 613 q 572 469 572 524 q 537 347 572 401 q 439 260 501 292 q 300 229 376 229 m 293 339 q 326 367 311 339 q 354 458 340 394 q 365 528 365 510 q 347 553 365 553 q 318 528 331 553 q 289 436 306 503 q 278 367 278 393 q 293 339 278 339 z "},"૱":{"ha":1238,"x_min":19,"x_max":1219,"o":"m 489 868 q 610 841 561 868 q 684 770 660 814 q 708 676 708 726 q 700 621 708 649 q 544 469 667 514 q 671 282 671 403 q 658 204 671 246 q 547 60 632 119 q 344 0 463 0 q 247 11 296 0 q 365 -78 271 -78 q 431 -69 406 -78 q 478 -49 457 -61 q 504 -37 499 -37 q 542 -68 526 -37 q 557 -143 557 -99 q 547 -211 557 -181 q 484 -301 531 -269 q 371 -333 438 -333 q 263 -301 314 -333 q 181 -203 213 -268 q 150 -49 150 -139 q 158 43 150 -7 q 56 131 93 78 q 19 243 19 185 q 26 293 19 272 q 58 341 35 322 q 111 360 82 360 q 185 328 157 360 q 221 242 214 296 q 263 233 243 233 q 333 290 318 233 q 336 314 336 299 q 320 362 336 342 q 274 408 304 382 q 240 440 250 428 q 229 465 229 451 q 238 488 229 478 q 268 514 247 497 q 309 551 294 533 q 324 593 324 568 q 315 620 324 610 q 293 631 307 631 q 265 618 281 631 q 238 604 251 604 q 219 631 219 604 q 221 647 219 642 q 306 809 229 750 q 489 868 382 868 m 1219 469 q 1184 347 1219 401 q 1086 260 1149 292 q 947 229 1024 229 q 831 256 883 229 q 747 327 778 282 q 715 428 717 372 q 751 548 715 494 q 848 632 786 601 q 986 663 910 663 q 1105 638 1051 663 q 1189 568 1158 613 q 1219 469 1219 524 m 1001 458 q 1013 528 1013 510 q 994 553 1013 553 q 965 528 978 553 q 936 436 953 503 q 925 367 925 393 q 940 339 925 339 q 973 367 958 339 q 1001 458 988 394 z "},"।":{"ha":547,"x_min":24,"x_max":579,"o":"m 221 764 q 260 840 238 821 q 333 860 283 860 l 514 860 q 563 849 547 860 q 579 813 579 839 q 571 767 579 794 l 383 96 q 344 19 367 39 q 269 0 321 0 l 93 0 q 41 12 58 0 q 24 51 24 24 q 31 93 24 65 l 221 764 z "},"॥":{"ha":993,"x_min":25,"x_max":1025,"o":"m 222 764 q 261 840 239 821 q 329 860 283 860 l 497 860 q 542 849 528 860 q 557 814 557 839 q 549 767 557 796 l 361 96 q 324 19 346 39 q 254 0 303 0 l 89 0 q 41 12 57 0 q 25 50 25 24 q 32 93 25 72 l 222 764 m 690 764 q 729 840 707 821 q 797 860 751 860 l 965 860 q 1010 849 996 860 q 1025 814 1025 839 q 1017 767 1025 796 l 829 96 q 792 19 814 39 q 722 0 771 0 l 557 0 q 509 12 525 0 q 493 50 493 24 q 500 93 493 72 l 690 764 z "},"₹":{"ha":694,"x_min":50,"x_max":783,"o":"m 725 894 q 783 854 783 894 q 781 833 783 847 q 693 774 763 774 l 592 774 q 635 703 624 743 l 682 703 q 740 661 740 703 q 738 642 740 656 q 650 582 719 582 l 621 582 q 449 432 581 479 q 520 385 497 417 q 543 314 543 354 q 536 268 543 293 l 518 208 q 515 188 515 201 q 524 163 515 172 q 547 154 532 154 q 590 146 576 154 q 599 117 603 138 q 565 56 593 86 q 487 7 538 26 q 364 -12 436 -12 q 217 27 271 -12 q 164 142 164 67 q 172 201 164 171 l 193 283 q 200 331 200 314 q 183 374 200 361 q 133 388 167 388 l 107 388 q 65 400 79 388 q 50 433 50 413 q 53 453 50 439 q 83 496 61 483 q 142 508 106 508 l 181 508 q 296 582 260 508 l 164 582 q 120 594 135 582 q 106 628 106 607 q 107 642 106 638 q 199 703 121 703 l 324 703 q 247 774 319 774 l 219 774 q 177 785 192 774 q 163 815 163 796 q 165 835 163 821 q 253 894 182 894 l 725 894 z "},"‌":{"ha":0,"x_min":-33,"x_max":38,"o":"m 38 -481 l -33 -481 l -33 1103 l 38 1103 l 38 -481 z "},"‍":{"ha":0,"x_min":-207,"x_max":185,"o":"m 40 924 l 185 792 l 128 738 l 25 840 l 25 -481 l -46 -481 l -46 839 l -149 738 l -207 792 l -62 924 l -207 1057 l -150 1110 l -10 972 l 129 1110 l 185 1057 l 40 924 z "},"◌":{"ha":1108,"x_min":178,"x_max":972,"o":"m 535 839 q 579 822 563 839 q 596 778 596 806 q 579 734 596 751 q 535 717 563 717 q 491 734 508 717 q 474 778 474 751 q 491 822 474 806 q 535 839 508 839 m 711 819 q 754 802 738 819 q 771 757 771 785 q 753 714 771 732 q 711 696 736 696 q 667 714 685 696 q 649 757 649 732 q 667 802 649 785 q 711 819 685 819 m 371 779 q 415 762 397 779 q 432 718 432 744 q 415 673 432 690 q 371 656 397 656 q 327 673 344 656 q 310 718 310 690 q 327 762 310 744 q 371 779 344 779 m 842 725 q 885 708 868 725 q 903 663 903 690 q 885 619 903 636 q 842 601 868 601 q 798 619 815 601 q 781 663 781 636 q 798 707 781 689 q 842 725 815 725 m 260 626 q 303 609 285 626 q 321 565 321 592 q 303 522 321 539 q 260 504 285 504 q 214 522 232 504 q 196 565 196 539 q 214 609 196 592 q 260 626 232 626 m 911 560 q 955 542 938 560 q 972 499 972 525 q 955 455 972 472 q 911 438 938 438 q 867 455 885 438 q 850 499 850 472 q 867 543 850 526 q 911 560 885 560 m 239 453 q 283 435 265 453 q 300 390 300 418 q 283 347 300 364 q 239 331 265 331 q 195 347 213 331 q 178 390 178 364 q 195 435 178 417 q 239 453 213 453 m 899 375 q 941 357 924 375 q 958 313 958 339 q 941 269 958 286 q 899 251 924 251 q 854 269 872 251 q 836 313 836 286 q 854 358 836 340 q 899 375 872 375 m 311 290 q 355 273 338 290 q 372 229 372 256 q 355 185 372 203 q 311 168 338 168 q 267 185 285 168 q 250 229 250 203 q 267 273 250 256 q 311 290 285 290 m 796 238 q 840 220 822 238 q 858 176 858 203 q 840 133 858 150 q 796 115 822 115 q 752 133 769 115 q 735 176 735 150 q 752 220 735 203 q 796 238 769 238 m 453 186 q 497 168 479 186 q 514 125 514 150 q 497 79 514 97 q 453 61 479 61 q 408 79 426 61 q 390 125 390 97 q 408 168 390 150 q 453 186 426 186 m 628 164 q 673 147 656 164 q 690 103 690 129 q 673 59 690 76 q 628 42 656 42 q 584 59 601 42 q 567 103 567 76 q 584 147 567 131 q 628 164 601 164 z "},"!":{"ha":501,"x_min":38,"x_max":567,"o":"m 196 825 q 406 1032 206 1032 q 524 999 482 1032 q 567 906 567 965 q 524 767 567 844 l 306 378 q 272 333 289 346 q 229 319 254 319 q 178 385 175 319 l 196 825 m 192 281 q 285 243 247 281 q 324 151 324 206 q 303 78 324 114 q 248 19 283 42 q 168 -4 213 -4 q 76 33 114 -4 q 38 125 39 71 q 57 199 38 163 q 112 258 76 235 q 192 281 147 281 z "},"\"":{"ha":592,"x_min":140,"x_max":722,"o":"m 176 922 q 203 987 183 968 q 265 1006 222 1006 l 367 1006 q 413 992 396 1006 q 431 957 431 978 q 414 910 431 938 l 306 725 q 274 691 290 700 q 232 682 257 682 l 183 682 q 151 694 163 682 q 144 726 140 706 l 176 922 m 468 922 q 494 987 475 968 q 557 1006 514 1006 l 658 1006 q 705 992 688 1006 q 722 957 722 978 q 706 910 722 938 l 597 725 q 565 691 582 700 q 524 682 549 682 l 475 682 q 443 694 454 682 q 436 726 432 706 l 468 922 z "},"#":{"ha":811,"x_min":60,"x_max":813,"o":"m 750 710 q 797 697 781 710 q 813 663 813 685 q 810 644 813 658 q 776 601 801 614 q 710 588 751 588 l 671 588 l 593 356 l 633 356 q 680 343 664 356 q 696 308 696 331 q 693 292 696 303 q 593 233 676 233 l 553 233 l 521 138 q 489 80 508 97 q 444 63 469 63 q 401 76 417 63 q 386 113 386 89 q 393 149 386 125 l 421 233 l 292 233 l 260 138 q 228 80 246 97 q 185 63 210 63 q 140 75 156 63 q 125 113 125 88 q 132 147 125 124 l 161 233 l 122 233 q 76 247 92 233 q 60 281 60 260 q 63 299 60 285 q 96 342 71 329 q 163 356 121 356 l 201 356 l 279 588 l 239 588 q 192 600 208 588 q 176 635 176 613 q 179 651 176 640 q 279 710 196 710 l 319 710 l 351 806 q 384 863 365 846 q 428 881 403 881 q 486 832 486 881 q 479 796 486 819 l 450 710 l 581 710 l 613 806 q 688 881 636 881 q 731 867 715 881 q 747 831 747 854 q 740 796 747 817 l 711 710 l 750 710 m 540 588 l 410 588 l 332 356 l 463 356 l 540 588 z "},"$":{"ha":910,"x_min":-24,"x_max":990,"o":"m 356 -158 q 305 -141 324 -158 q 286 -93 286 -124 q 290 -61 286 -78 l 313 25 q 203 92 260 47 l 153 50 q 96 10 118 21 q 46 0 74 0 q -5 15 14 0 q -24 57 -24 31 q -18 86 -24 71 l 50 293 q 81 344 61 329 q 131 360 100 360 q 188 338 163 360 q 256 257 214 315 q 351 161 308 182 l 399 335 q 316 385 388 342 q 203 490 244 429 q 163 624 163 551 q 178 721 163 671 q 297 875 207 817 q 504 933 388 933 l 563 931 l 585 1014 q 616 1067 596 1051 q 669 1082 636 1082 q 712 1066 697 1082 q 726 1022 726 1050 q 721 986 726 1003 l 696 897 q 782 856 717 894 l 814 882 q 869 918 847 908 q 918 928 890 928 q 971 913 951 928 q 990 871 990 899 q 986 847 990 860 l 928 656 q 903 608 918 622 q 860 594 889 594 q 806 613 829 594 q 735 690 783 632 q 691 738 707 722 q 658 763 675 753 l 614 600 q 700 549 625 593 q 819 441 775 504 q 864 307 864 378 q 850 221 864 264 q 721 52 817 110 q 497 -6 625 -6 l 447 -6 l 424 -89 q 397 -142 413 -125 q 356 -158 381 -158 m 528 804 q 451 787 482 807 q 421 731 421 767 q 437 686 421 707 q 483 650 453 665 l 528 804 m 482 126 q 558 144 528 124 q 589 200 589 164 q 573 244 589 224 q 526 281 557 265 l 482 126 z "},"%":{"ha":1828,"x_min":125,"x_max":1763,"o":"m 1433 557 q 1763 347 1763 557 q 1754 276 1763 314 q 1619 61 1722 126 q 1342 -4 1515 -4 q 1014 206 1014 -4 q 1022 276 1014 239 q 1158 492 1056 426 q 1433 557 1261 557 m 1431 474 q 1365 433 1392 474 q 1317 276 1339 392 q 1301 147 1301 196 q 1313 92 1301 107 q 1347 78 1324 78 q 1413 119 1386 78 q 1460 276 1439 161 q 1476 407 1476 364 q 1465 459 1476 444 q 1431 474 1454 474 m 1251 982 q 1288 1016 1268 1006 q 1336 1026 1308 1026 q 1377 1015 1363 1026 q 1392 985 1392 1004 q 1374 940 1392 964 l 633 -57 q 597 -91 617 -81 q 549 -101 576 -101 q 508 -90 522 -101 q 493 -60 493 -79 q 511 -15 493 -39 l 1251 982 m 544 936 q 874 726 874 936 q 865 656 874 693 q 730 440 833 506 q 453 375 626 375 q 125 585 125 375 q 133 656 125 618 q 269 871 167 806 q 544 936 372 936 m 542 853 q 476 812 503 853 q 428 656 450 771 q 413 526 413 575 q 424 472 413 486 q 458 457 435 457 q 524 499 497 457 q 571 656 550 540 q 588 786 588 743 q 576 838 588 824 q 542 853 565 853 z "},"&":{"ha":1138,"x_min":-33,"x_max":1179,"o":"m 1018 615 q 1128 581 1078 615 q 1179 482 1179 546 q 1126 367 1179 400 q 1014 333 1072 333 q 982 342 993 333 q 960 371 971 351 q 940 397 949 389 q 914 404 931 404 q 899 405 913 404 q 864 385 886 406 l 835 358 l 907 286 q 966 203 946 247 q 986 114 986 158 q 978 61 986 86 q 865 -85 953 -31 q 657 -140 776 -140 q 509 -122 578 -140 q 440 -68 440 -103 q 443 -56 440 -64 q 462 -35 447 -43 q 489 -28 476 -28 l 539 -31 q 600 -11 575 -31 q 626 43 625 8 q 579 133 626 79 l 568 124 q 422 27 492 57 q 256 -3 353 -3 q 42 51 118 -3 q -33 193 -33 106 q -22 258 -33 222 q 101 402 10 358 q 301 444 192 446 l 263 488 q 214 619 214 542 q 258 754 214 696 q 387 845 301 813 q 592 878 472 878 q 772 832 704 878 q 839 714 839 786 q 794 604 839 653 q 667 526 749 556 l 744 449 l 842 535 q 932 597 890 578 q 1018 615 974 615 m 600 760 q 548 742 567 760 q 529 697 529 725 q 561 633 529 664 l 585 610 q 637 644 615 622 q 664 693 658 667 q 665 706 665 697 q 647 744 665 728 q 600 760 629 760 m 311 271 q 308 247 308 254 q 328 203 308 219 q 383 188 347 188 q 492 231 429 188 l 392 343 q 338 311 358 331 q 311 271 317 292 z "},"'":{"ha":360,"x_min":185,"x_max":475,"o":"m 221 922 q 247 987 228 968 q 310 1006 267 1006 l 411 1006 q 458 992 440 1006 q 475 957 475 978 q 458 910 475 938 l 350 725 q 318 691 335 700 q 276 682 301 682 l 228 682 q 196 694 207 682 q 189 726 185 706 l 221 922 z "},"(":{"ha":657,"x_min":100,"x_max":939,"o":"m 114 488 q 100 349 100 418 q 179 34 100 175 q 366 -187 258 -107 q 544 -268 474 -268 q 590 -244 582 -268 q 592 -233 592 -240 q 583 -204 592 -221 q 556 -154 575 -187 q 476 10 507 -75 q 446 218 446 94 q 476 458 446 332 q 581 724 515 618 q 710 887 646 831 q 856 993 775 943 q 914 1031 894 1017 q 938 1063 933 1046 q 939 1075 939 1067 q 917 1109 939 1097 q 856 1121 894 1121 q 580 1047 740 1121 q 287 830 419 974 q 114 488 154 686 z "},")":{"ha":718,"x_min":-217,"x_max":622,"o":"m 608 365 q 622 504 622 435 q 543 819 622 678 q 356 1040 464 960 q 178 1121 249 1121 q 132 1097 140 1121 q 131 1086 131 1093 q 139 1057 131 1074 q 167 1007 147 1040 q 246 843 215 928 q 276 635 276 758 q 246 394 276 521 q 142 128 207 235 q 12 -34 76 22 q -133 -140 -53 -90 q -192 -178 -172 -164 q -215 -210 -211 -193 q -217 -222 -217 -214 q -194 -256 -217 -244 q -133 -268 -172 -268 q 142 -194 -18 -268 q 435 23 303 -121 q 608 365 568 167 z "},"*":{"ha":575,"x_min":172,"x_max":664,"o":"m 660 853 q 603 798 649 817 q 490 779 557 779 q 578 686 578 747 q 574 658 578 674 q 540 609 564 625 q 486 593 515 593 q 420 632 444 593 q 393 732 396 671 q 327 629 365 665 q 251 593 289 593 q 208 612 226 593 q 189 658 189 631 q 224 733 189 706 q 313 779 258 761 q 208 803 244 779 q 172 863 172 826 q 176 886 172 874 q 209 931 185 915 q 264 946 233 946 q 319 930 296 946 q 364 881 342 914 q 358 908 363 888 q 354 950 354 929 q 381 1031 354 999 q 451 1064 408 1064 q 499 1045 481 1064 q 517 994 517 1026 q 511 958 517 975 q 494 920 507 944 q 471 879 482 896 q 538 929 507 913 q 599 946 568 946 q 647 926 631 946 q 664 879 664 907 q 660 853 664 865 z "},"+":{"ha":913,"x_min":110,"x_max":863,"o":"m 794 547 q 863 494 863 547 q 860 472 863 489 q 756 397 836 397 l 543 397 l 494 215 q 460 157 485 176 q 404 138 436 138 q 353 155 372 138 q 335 203 335 172 q 339 235 335 218 l 383 397 l 178 397 q 127 410 144 397 q 110 447 110 424 q 114 472 110 458 q 150 528 124 508 q 217 547 176 547 l 424 547 l 472 729 q 506 788 482 768 q 561 807 529 807 q 612 790 593 807 q 631 742 631 772 q 626 710 631 726 l 583 547 l 794 547 z "},",":{"ha":404,"x_min":-68,"x_max":283,"o":"m 133 281 q 240 236 197 281 q 283 118 283 192 q 233 -46 283 31 q 110 -168 182 -122 q -22 -214 38 -214 q -68 -182 -68 -214 q -53 -147 -68 -164 q -8 -108 -37 -131 q 39 -66 22 -85 q 56 -26 56 -47 q 33 18 56 -10 q 2 69 13 46 q -8 125 -8 92 q 33 235 -8 189 q 133 281 74 281 z "},"-":{"ha":790,"x_min":169,"x_max":689,"o":"m 174 489 q 214 551 183 529 q 289 574 244 574 l 613 574 q 689 514 689 574 q 686 489 689 499 q 569 404 660 404 l 246 404 q 189 419 208 404 q 169 461 169 433 q 174 489 169 475 z "},".":{"ha":413,"x_min":11,"x_max":297,"o":"m 165 281 q 259 243 221 281 q 297 151 297 206 q 277 78 297 114 q 222 19 257 42 q 142 -4 186 -4 q 50 33 88 -4 q 11 125 13 71 q 31 199 11 163 q 85 258 50 235 q 165 281 121 281 z "},"/":{"ha":625,"x_min":-31,"x_max":760,"o":"m 106 -49 q 69 -89 88 -76 q 32 -101 51 -101 q -14 -85 3 -101 q -31 -46 -31 -69 q -18 -7 -31 -26 l 624 974 q 700 1026 657 1026 q 744 1010 728 1026 q 760 969 760 993 q 747 929 760 949 l 106 -49 z "},":":{"ha":490,"x_min":50,"x_max":478,"o":"m 347 733 q 440 696 403 733 q 478 604 478 658 q 458 531 478 567 q 402 472 438 494 q 322 449 367 449 q 230 486 267 449 q 193 579 193 524 q 213 652 193 617 q 267 710 232 688 q 347 733 303 733 m 204 281 q 298 243 260 281 q 336 151 336 206 q 316 78 336 114 q 260 19 296 42 q 181 -4 225 -4 q 89 33 126 -4 q 50 125 51 71 q 69 199 50 163 q 124 258 89 235 q 204 281 160 281 z "},";":{"ha":490,"x_min":36,"x_max":478,"o":"m 347 733 q 440 696 403 733 q 478 604 478 658 q 458 531 478 567 q 402 472 438 494 q 322 449 367 449 q 230 486 267 449 q 193 579 193 524 q 213 652 193 617 q 267 710 232 688 q 347 733 303 733 m 207 281 q 296 244 261 281 q 331 149 331 207 q 285 3 331 74 q 177 -112 240 -68 q 65 -156 114 -156 q 36 -136 36 -156 q 47 -114 36 -128 q 72 -86 58 -100 q 118 -19 117 -42 q 99 14 118 -8 q 66 59 78 36 q 54 119 54 82 q 74 194 54 157 q 128 256 93 232 q 207 281 163 281 z "},"<":{"ha":958,"x_min":79,"x_max":943,"o":"m 813 761 q 865 772 843 772 q 923 750 903 772 q 943 697 943 728 q 942 681 943 686 q 908 623 932 643 q 833 585 885 603 l 393 436 l 754 296 q 815 256 794 281 q 836 201 836 232 q 832 175 836 188 q 761 121 817 121 q 697 136 736 121 l 131 371 q 79 435 79 393 q 82 453 79 442 q 106 497 88 481 q 160 525 124 513 l 813 761 z "},"=":{"ha":972,"x_min":65,"x_max":954,"o":"m 147 597 q 188 660 157 638 q 263 682 218 682 l 878 682 q 954 622 954 682 q 951 597 954 607 q 835 513 925 513 l 219 513 q 163 527 182 513 q 143 569 143 542 q 147 597 143 583 m 69 292 q 110 354 79 332 q 185 376 140 376 l 800 376 q 876 317 876 376 q 874 292 876 301 q 757 207 847 207 l 142 207 q 85 222 104 207 q 65 264 65 236 q 69 292 65 278 z "},">":{"ha":958,"x_min":65,"x_max":929,"o":"m 878 522 q 929 458 929 500 q 926 440 929 451 q 903 397 921 413 q 849 368 885 381 l 196 132 q 143 121 165 121 q 85 143 106 121 q 65 196 65 165 q 67 213 65 207 q 100 270 76 250 q 175 308 124 290 l 615 457 l 254 597 q 193 637 214 613 q 172 692 172 661 q 176 718 172 706 q 247 772 192 772 q 311 757 272 772 l 878 522 z "},"?":{"ha":947,"x_min":163,"x_max":1000,"o":"m 511 332 q 524 306 525 315 q 500 283 519 292 q 458 274 481 274 q 352 306 393 274 q 311 390 311 339 q 317 426 311 410 q 365 499 329 471 q 469 568 400 528 q 585 644 544 610 q 640 735 625 679 q 644 771 644 754 q 613 843 644 818 q 544 868 581 868 q 476 857 506 868 q 492 772 492 817 q 488 735 492 751 q 432 653 472 682 q 329 624 392 624 q 208 665 254 624 q 163 769 163 706 q 168 813 163 792 q 292 949 189 901 q 554 997 396 997 q 790 954 689 997 q 946 840 892 911 q 1000 686 1000 768 q 993 631 1000 661 q 935 522 976 563 q 816 453 894 481 q 599 403 738 426 q 526 385 546 393 q 501 363 507 376 l 500 357 q 511 332 500 349 m 400 242 q 493 210 456 242 q 531 133 531 179 q 512 68 532 100 q 456 16 492 36 q 375 -4 419 -4 q 281 28 318 -4 q 244 108 244 61 q 265 171 244 140 q 320 222 285 201 q 400 242 356 242 z "},"@":{"ha":1479,"x_min":58,"x_max":1446,"o":"m 861 899 q 1179 844 1047 899 q 1378 693 1311 789 q 1446 478 1446 597 q 1425 340 1446 411 q 1279 140 1386 215 q 1026 65 1172 65 q 890 91 953 65 q 799 160 826 117 q 699 90 757 114 q 579 65 640 65 q 415 113 483 65 q 335 249 347 161 q 332 294 332 264 q 395 483 332 399 q 570 617 458 568 q 821 665 682 665 q 1077 614 990 665 q 1164 471 1164 563 q 1151 397 1164 438 l 1101 236 l 1099 219 q 1124 196 1099 196 q 1181 216 1149 196 q 1241 274 1213 236 q 1286 365 1269 313 q 1304 471 1304 419 q 1244 635 1304 567 q 1080 738 1183 703 q 847 774 976 774 q 437 671 607 774 q 217 374 267 568 q 204 268 204 318 q 301 43 204 124 q 557 -37 399 -37 q 703 -25 618 -37 q 760 -19 750 -19 q 781 -26 774 -19 q 789 -43 789 -32 q 753 -94 789 -67 q 651 -139 717 -121 q 504 -157 586 -157 q 283 -108 385 -157 q 119 33 181 -60 q 58 254 58 126 q 88 436 58 339 q 243 686 132 582 q 513 844 354 790 q 861 899 672 899 m 832 556 q 758 512 790 556 q 706 407 725 468 q 688 300 688 346 q 690 272 688 286 q 706 249 694 258 q 733 240 718 240 q 760 249 750 240 q 778 281 771 258 l 856 533 q 857 540 857 536 q 832 556 857 556 z "},"A":{"ha":969,"x_min":-57,"x_max":999,"o":"m 849 164 q 843 128 843 146 q 847 102 843 113 q 856 85 851 92 q 863 76 861 79 q 876 49 876 63 q 874 35 876 46 q 849 8 868 15 q 792 0 831 0 l 463 0 q 417 10 433 0 q 401 36 401 19 q 406 54 401 44 q 417 72 410 65 q 439 86 425 78 q 475 114 461 99 q 499 164 489 129 l 535 283 l 318 283 l 281 204 q 257 124 257 153 q 263 97 257 107 q 279 75 268 86 q 292 56 289 64 q 293 36 296 49 q 270 8 288 15 q 215 0 253 0 l 8 0 q -40 12 -24 0 q -57 43 -57 24 q -41 78 -57 65 q 7 107 -25 92 q 74 148 49 128 q 117 204 99 168 l 364 717 q 498 890 421 836 q 701 943 575 943 q 921 885 843 943 q 999 725 999 828 q 985 636 999 682 l 849 164 m 576 422 l 650 667 q 656 701 656 683 q 641 741 656 728 q 600 754 626 754 q 543 735 567 754 q 496 665 519 715 l 382 422 l 576 422 z "},"B":{"ha":1057,"x_min":-36,"x_max":1096,"o":"m 788 925 q 952 897 882 925 q 1059 819 1022 868 q 1096 706 1096 769 q 1086 639 1096 669 q 854 461 1046 499 q 960 397 921 442 q 999 285 999 351 q 988 213 999 254 q 865 52 957 104 q 603 0 772 0 l 25 0 q -20 10 -4 0 q -36 36 -36 19 q -32 54 -36 44 q -14 78 -26 69 q 1 88 -1 86 q 38 116 24 101 q 61 164 51 131 l 231 763 q 236 797 236 781 q 231 823 236 813 q 218 847 226 833 q 206 876 206 865 q 208 892 206 881 q 233 917 214 910 q 290 925 251 925 l 788 925 m 725 671 q 735 728 735 701 q 653 800 735 800 l 590 800 l 517 540 l 578 540 q 670 569 636 540 q 725 671 704 597 m 624 263 q 633 324 633 296 q 547 399 633 399 l 478 399 l 399 125 l 469 125 q 565 155 529 125 q 624 263 601 185 z "},"C":{"ha":961,"x_min":71,"x_max":1057,"o":"m 483 -8 q 274 35 367 -8 q 126 162 181 78 q 71 365 71 246 q 100 546 71 449 q 293 847 164 754 q 569 939 422 939 q 710 915 649 939 q 822 847 771 892 l 860 876 q 923 917 897 906 q 981 928 949 928 q 1036 913 1015 928 q 1057 868 1057 897 q 1051 838 1057 853 l 974 621 q 944 568 961 583 q 892 553 926 553 q 833 578 856 553 q 781 667 810 604 q 726 753 747 732 q 665 774 706 774 q 556 703 608 774 q 460 493 503 633 q 424 296 424 375 q 450 192 424 226 q 521 158 476 158 q 628 188 586 158 q 715 267 671 217 q 760 312 743 297 q 797 326 778 326 q 850 301 822 326 q 876 251 878 276 q 827 157 878 221 q 687 42 776 93 q 483 -8 597 -8 z "},"D":{"ha":1072,"x_min":-36,"x_max":1085,"o":"m 665 925 q 979 845 874 925 q 1085 611 1085 765 q 1057 435 1085 535 q 933 179 1011 274 q 728 42 856 85 q 403 0 601 -1 l 25 1 q -20 11 -4 1 q -36 38 -36 21 q -32 56 -36 46 q -20 74 -28 68 q 3 89 -12 79 q 38 117 25 101 q 61 165 51 132 l 231 763 q 236 797 236 781 q 231 823 236 813 q 218 847 226 833 q 206 876 206 865 q 208 892 206 881 q 233 917 214 910 q 290 925 251 925 l 665 925 m 701 465 q 738 671 738 596 q 707 772 738 744 q 619 800 676 800 l 589 800 l 401 125 l 435 125 q 542 152 499 125 q 624 252 586 179 q 701 465 661 325 z "},"E":{"ha":932,"x_min":-36,"x_max":1015,"o":"m 907 925 q 987 903 958 925 q 1015 842 1015 881 q 1010 804 1015 822 l 974 675 q 945 623 964 638 q 892 608 926 608 q 840 623 858 608 q 811 671 821 638 l 789 750 q 772 783 782 775 q 735 792 763 792 l 589 792 l 519 544 l 581 544 q 607 558 590 544 l 654 600 q 690 626 675 618 q 728 635 706 635 q 769 622 753 635 q 785 588 785 608 q 782 571 785 582 l 725 378 q 697 333 717 347 q 653 318 676 318 q 594 358 614 318 l 571 407 q 540 428 561 428 l 486 428 l 404 133 l 526 133 q 573 144 553 133 q 617 181 593 154 l 700 272 q 742 306 722 296 q 792 317 763 317 q 842 303 822 317 q 861 261 861 289 q 857 235 861 250 l 817 94 q 772 21 801 42 q 688 0 743 0 l 25 0 q -20 10 -4 0 q -36 36 -36 19 q -32 54 -36 44 q -14 78 -26 69 q 1 88 -1 86 q 38 116 24 101 q 61 164 51 131 l 232 763 q 238 796 238 781 q 233 824 238 813 q 218 847 228 835 q 206 876 206 865 q 208 892 206 881 q 233 917 214 910 q 290 925 253 925 l 907 925 z "},"F":{"ha":876,"x_min":-39,"x_max":1014,"o":"m 906 925 q 985 903 957 925 q 1014 842 1014 881 q 1008 804 1014 822 l 972 675 q 940 624 963 639 q 882 608 918 608 q 826 623 847 608 q 796 671 806 638 l 774 750 q 760 778 768 771 q 725 785 751 785 l 586 785 l 508 510 l 535 510 q 569 515 554 510 q 600 536 583 521 l 643 572 q 685 602 667 593 q 725 611 704 611 q 769 596 751 611 q 786 553 786 581 q 782 526 786 542 l 721 315 q 646 247 700 247 q 576 293 601 247 l 551 340 q 533 365 542 360 q 508 371 525 371 l 468 371 l 410 164 q 407 142 407 156 q 416 110 407 122 q 443 83 425 97 q 464 63 458 71 q 469 44 469 56 q 447 10 469 19 q 382 0 425 0 l 33 0 q -21 13 -3 0 q -33 50 -39 26 q -23 70 -31 63 q 0 88 -15 78 q 38 117 24 101 q 60 164 51 132 l 231 763 q 236 796 236 781 q 231 824 236 813 q 217 847 226 835 q 204 876 204 865 q 207 892 204 881 q 232 917 213 910 q 289 925 251 925 l 906 925 z "},"G":{"ha":1051,"x_min":78,"x_max":1096,"o":"m 411 -8 q 242 33 318 -8 q 122 153 167 74 q 78 344 78 233 q 107 533 78 429 q 308 847 171 756 q 600 939 444 939 q 856 836 742 939 l 897 876 q 957 917 932 906 q 1015 928 982 928 q 1074 910 1051 928 q 1096 864 1096 893 q 1092 838 1096 853 l 1042 663 q 1009 600 1028 618 q 958 582 990 582 q 899 599 925 582 q 840 658 874 615 q 762 741 796 717 q 688 765 728 765 q 569 702 625 765 q 471 492 513 639 q 444 326 444 396 q 473 215 444 253 q 553 176 501 176 q 622 197 597 176 q 660 269 646 218 l 669 304 q 676 342 676 332 q 669 365 676 358 q 643 381 661 372 l 594 399 q 563 444 563 411 q 564 460 563 454 q 584 486 569 478 q 629 494 599 494 l 1049 493 q 1094 464 1094 493 q 1092 447 1094 458 q 1074 414 1086 426 q 1038 389 1061 401 l 1001 368 q 981 352 988 360 q 971 333 974 344 l 897 76 q 866 15 883 31 q 824 0 849 0 l 765 0 q 710 14 732 0 q 675 68 689 28 l 661 108 q 411 -8 561 -8 z "},"H":{"ha":1158,"x_min":-36,"x_max":1275,"o":"m 1214 925 q 1259 915 1243 925 q 1275 890 1275 906 q 1271 872 1275 883 q 1259 855 1267 863 q 1245 844 1251 847 q 1236 838 1239 840 q 1200 810 1214 825 q 1176 763 1186 794 l 1006 164 q 1000 129 1000 146 q 1005 103 1000 113 q 1019 78 1010 93 q 1027 67 1021 76 q 1033 49 1033 58 q 1031 35 1033 46 q 1004 8 1024 15 q 946 0 985 0 l 619 0 q 574 10 590 0 q 558 36 558 19 q 563 54 558 44 q 578 73 568 65 q 597 86 588 81 q 633 115 619 99 q 657 164 647 131 l 724 396 l 478 396 l 411 164 q 406 129 406 146 q 410 103 406 113 q 425 78 415 93 q 433 67 426 76 q 439 49 439 58 q 436 35 439 46 q 410 8 429 15 q 351 0 390 0 l 25 0 q -20 10 -4 0 q -36 36 -36 19 q -32 54 -36 44 q -17 73 -26 65 q 3 86 -7 81 q 39 115 25 99 q 63 164 53 131 l 233 763 q 239 797 239 781 q 234 823 239 813 q 221 847 229 833 q 211 862 215 854 q 207 878 207 869 q 210 892 207 881 q 235 917 215 910 q 293 925 254 925 l 619 925 q 665 915 649 925 q 681 890 681 906 q 676 872 681 883 q 665 855 672 863 q 651 844 657 847 q 642 838 644 840 q 606 810 619 825 q 582 763 592 794 l 517 535 l 763 535 l 828 763 q 833 797 833 781 q 828 823 833 813 q 815 847 824 833 q 806 862 810 854 q 801 878 801 869 q 804 892 801 881 q 829 917 810 910 q 888 925 849 925 l 1214 925 z "},"I":{"ha":561,"x_min":-36,"x_max":678,"o":"m 617 925 q 662 916 646 925 q 678 890 678 907 q 674 872 678 883 q 662 855 669 863 q 648 844 654 847 q 639 838 642 840 q 603 810 617 825 q 579 763 589 794 l 411 164 q 406 129 406 146 q 410 101 406 113 q 425 78 415 90 q 438 49 438 60 q 435 35 438 46 q 410 8 429 15 q 351 0 390 0 l 25 0 q -20 10 -4 0 q -36 36 -36 19 q -32 54 -36 44 q -14 78 -26 69 q 1 88 -1 86 q 38 116 24 101 q 61 164 51 131 l 231 763 q 236 797 236 781 q 231 823 236 813 q 218 847 226 833 q 206 876 206 865 q 208 892 206 881 q 233 917 214 910 q 290 925 251 925 l 617 925 z "},"J":{"ha":819,"x_min":-31,"x_max":936,"o":"m 488 750 q 490 772 490 758 q 478 808 490 794 q 442 839 467 822 q 412 865 421 854 q 407 892 403 876 q 428 918 411 911 q 481 925 444 925 l 875 925 q 920 915 904 925 q 936 890 936 906 q 932 872 936 883 q 920 855 928 863 q 906 844 913 847 q 897 838 900 840 q 861 810 875 825 q 838 763 847 794 l 701 282 q 560 63 660 135 q 300 -8 460 -8 q 119 23 193 -8 q 7 107 44 54 q -31 222 -31 160 q -22 282 -31 253 q 40 376 -4 344 q 138 408 83 408 q 233 371 200 408 q 267 275 267 333 q 258 217 267 246 q 196 131 242 158 q 247 117 218 117 q 299 146 276 117 q 336 228 321 175 l 488 750 z "},"K":{"ha":1093,"x_min":-36,"x_max":1153,"o":"m 1017 931 q 1114 893 1075 931 q 1153 792 1153 856 q 1110 675 1153 719 q 1007 631 1067 631 q 940 644 968 631 q 888 689 913 658 l 768 589 l 903 190 q 930 135 915 156 q 965 93 944 114 q 987 69 981 78 q 993 47 993 60 q 973 13 993 25 q 903 0 953 0 l 721 0 q 620 30 653 0 q 567 129 588 60 l 497 363 l 457 329 l 411 164 q 406 129 406 146 q 410 101 406 113 q 425 78 415 90 q 438 49 438 60 q 435 35 438 46 q 410 8 429 15 q 351 0 390 0 l 25 0 q -20 10 -4 0 q -36 36 -36 19 q -32 54 -36 44 q -14 78 -26 69 q 1 88 -1 86 q 38 116 24 101 q 61 164 51 131 l 231 763 q 236 797 236 781 q 231 823 236 813 q 218 847 226 833 q 206 876 206 865 q 208 892 206 881 q 233 917 214 910 q 290 925 251 925 l 617 925 q 662 916 646 925 q 678 890 678 907 q 674 872 678 883 q 662 855 669 863 q 648 844 654 847 q 639 838 642 840 q 603 810 617 825 q 579 763 589 794 l 521 556 l 889 874 q 954 917 925 904 q 1017 931 983 931 z "},"L":{"ha":904,"x_min":-36,"x_max":875,"o":"m 796 358 q 855 342 835 358 q 875 297 875 326 q 871 269 875 285 l 825 107 q 774 24 807 47 q 678 0 742 0 l 25 0 q -20 10 -4 0 q -36 36 -36 19 q -32 54 -36 44 q -18 73 -28 65 q 3 88 -8 81 q 39 116 25 101 q 63 164 53 131 l 232 763 q 238 797 238 781 q 233 823 238 813 q 219 847 228 833 q 207 876 207 865 q 210 892 207 881 q 234 917 215 910 q 292 925 253 925 l 618 925 q 663 916 647 925 q 679 890 679 907 q 675 872 679 883 q 663 855 671 863 q 649 844 656 847 q 640 838 643 840 q 604 810 618 825 q 581 763 590 794 l 401 133 l 488 133 q 542 144 519 133 q 590 186 565 156 l 686 300 q 737 344 713 331 q 796 358 761 358 z "},"M":{"ha":1438,"x_min":-6,"x_max":1553,"o":"m 1492 925 q 1537 916 1521 925 q 1553 890 1553 907 q 1549 872 1553 883 q 1537 853 1544 860 q 1514 838 1529 847 q 1478 810 1492 825 q 1456 763 1465 794 l 1286 165 q 1281 131 1281 147 q 1285 105 1281 115 q 1299 81 1290 94 q 1308 66 1304 74 q 1313 50 1313 58 q 1310 36 1313 47 q 1284 10 1304 18 q 1226 1 1264 1 l 900 1 q 855 11 871 1 q 839 38 839 21 q 843 56 839 46 q 855 73 847 65 q 869 84 863 81 q 878 90 875 88 q 914 118 900 103 q 938 165 928 133 l 1043 540 l 683 94 q 612 20 639 40 q 550 0 585 0 q 498 22 517 0 q 464 94 479 43 l 333 524 l 231 164 q 225 129 225 146 q 230 101 225 113 q 244 78 235 90 q 257 49 257 60 q 254 35 257 46 q 229 8 249 15 q 171 0 210 0 l 56 0 q 10 10 26 0 q -6 36 -6 19 q -1 54 -6 44 q 17 78 4 69 q 32 88 29 86 q 68 116 54 101 q 92 164 82 131 l 261 764 l 239 838 q 232 878 232 858 q 248 914 232 903 q 297 925 264 925 l 513 925 q 574 907 554 925 q 607 844 594 889 l 746 383 l 1122 851 q 1193 910 1158 896 q 1285 925 1228 925 l 1492 925 z "},"N":{"ha":1010,"x_min":-32,"x_max":1139,"o":"m 1082 925 q 1139 889 1139 925 q 1138 875 1139 879 q 1125 853 1133 861 q 1101 836 1117 846 q 1067 808 1081 824 q 1043 761 1053 793 l 871 144 q 812 28 847 61 q 714 -6 776 -6 q 622 27 658 -6 q 553 128 585 60 l 343 569 l 226 164 q 222 132 222 146 q 228 102 222 114 q 246 78 235 90 q 261 47 261 60 q 260 35 261 39 q 235 8 254 15 q 176 0 215 0 l 25 0 q -32 36 -32 0 q -31 50 -32 46 q -18 72 -26 64 q 6 89 -10 79 q 40 117 26 101 q 64 164 54 132 l 240 788 l 218 833 q 204 882 204 861 q 260 925 204 925 l 465 925 q 533 905 510 925 q 582 833 556 885 l 785 426 l 881 761 q 885 793 885 781 q 878 823 885 811 q 861 847 872 835 q 846 878 846 865 q 847 890 846 886 q 872 917 853 910 q 931 925 892 925 l 1082 925 z "},"O":{"ha":1018,"x_min":56,"x_max":1049,"o":"m 676 946 q 950 863 851 946 q 1049 625 1049 781 q 1026 467 1049 551 q 897 203 985 311 q 689 39 810 94 q 426 -17 568 -17 q 154 66 253 -17 q 56 304 56 149 q 79 467 56 375 q 206 728 119 621 q 413 891 293 836 q 676 946 533 946 m 651 810 q 576 776 610 810 q 510 667 543 743 q 440 457 478 592 q 385 189 385 263 q 400 126 385 146 q 449 107 415 107 q 524 141 490 107 q 589 250 557 175 q 660 457 621 325 q 714 726 714 649 q 699 790 714 771 q 651 810 683 810 z "},"P":{"ha":949,"x_min":-39,"x_max":1056,"o":"m 749 925 q 976 861 896 925 q 1056 692 1056 797 q 1043 604 1056 650 q 890 399 1004 465 q 600 332 775 332 l 457 332 l 410 164 q 407 142 407 156 q 416 110 407 122 q 443 81 425 97 q 464 60 458 67 q 469 43 469 53 q 447 10 469 19 q 382 0 425 0 l 33 0 q -21 13 -3 0 q -33 50 -39 26 q -23 70 -31 63 q 0 88 -15 78 q 38 117 24 101 q 60 164 51 132 l 229 763 q 235 797 235 781 q 230 823 235 813 q 217 847 225 833 q 204 876 204 865 q 207 892 204 881 q 231 917 213 910 q 289 925 250 925 l 749 925 m 713 629 q 728 719 728 681 q 653 800 728 800 l 590 800 l 492 457 l 553 457 q 648 494 611 457 q 713 629 685 531 z "},"Q":{"ha":1018,"x_min":56,"x_max":1049,"o":"m 1026 467 q 851 152 975 272 q 560 -3 728 32 q 681 -44 614 -44 q 742 -31 715 -44 q 796 3 769 -18 q 811 15 799 6 q 833 24 824 24 q 856 -5 846 24 q 867 -75 867 -33 q 856 -154 867 -117 q 781 -267 835 -226 q 647 -307 728 -307 q 406 -97 475 -307 l 378 -15 q 141 78 226 -4 q 56 306 56 161 q 79 467 56 376 q 206 728 119 621 q 413 891 293 836 q 676 946 533 946 q 950 863 851 946 q 1049 625 1049 781 q 1026 467 1049 551 m 660 457 q 714 726 714 649 q 699 790 714 771 q 651 810 683 810 q 576 776 610 810 q 510 667 543 743 q 440 457 478 592 q 385 189 385 263 q 400 126 385 146 q 449 107 415 107 q 524 141 490 107 q 589 250 557 175 q 660 457 621 325 z "},"R":{"ha":1054,"x_min":-39,"x_max":1069,"o":"m 1061 643 q 978 517 1039 563 q 824 461 917 472 q 924 422 890 456 q 957 335 957 389 q 950 283 957 314 l 935 215 q 932 196 932 201 q 940 169 932 178 q 964 160 949 160 q 1006 151 993 160 q 1015 121 1019 143 q 982 58 1010 89 q 903 8 954 28 q 781 -12 853 -12 q 635 28 689 -12 q 581 146 581 69 q 589 208 581 175 l 611 297 q 617 335 617 315 q 595 381 617 367 q 526 394 574 394 l 474 394 l 410 164 q 407 143 407 156 q 417 110 407 124 q 443 81 426 96 q 463 62 456 71 q 469 43 469 53 q 447 10 469 19 q 382 0 425 0 l 33 0 q -21 13 -3 0 q -33 50 -39 26 q -23 70 -31 63 q 0 88 -15 78 q 38 117 24 101 q 60 164 51 132 l 229 763 q 235 797 235 781 q 230 823 235 813 q 217 847 225 833 q 204 876 204 865 q 207 892 204 881 q 231 917 213 910 q 289 925 250 925 l 754 925 q 922 896 850 925 q 1031 816 993 867 q 1069 701 1069 765 q 1061 643 1069 672 m 706 657 q 713 706 713 689 q 632 779 713 779 l 574 779 l 513 533 l 571 533 q 656 560 625 533 q 706 657 688 586 z "},"S":{"ha":957,"x_min":-8,"x_max":1006,"o":"m 519 933 q 663 915 597 933 q 797 856 729 896 l 829 882 q 884 918 863 908 q 933 928 906 928 q 986 913 967 928 q 1006 871 1006 899 q 1001 847 1006 860 l 943 656 q 919 608 933 622 q 875 594 904 594 q 822 613 844 594 q 750 690 799 632 q 662 769 701 746 q 581 792 622 792 q 529 772 550 792 q 508 722 508 751 q 542 660 508 689 q 646 589 575 632 q 765 511 718 546 q 846 425 813 476 q 879 307 879 374 q 865 221 879 264 q 736 52 832 110 q 513 -6 640 -6 q 351 17 417 -6 q 218 92 286 39 l 168 50 q 111 10 133 21 q 61 0 89 0 q 10 15 29 0 q -8 57 -8 31 q -3 86 -8 71 l 65 293 q 96 344 76 329 q 146 360 115 360 q 203 338 178 360 q 271 257 229 315 q 353 168 315 193 q 444 143 392 143 q 502 155 482 143 q 531 193 522 167 q 533 214 533 200 q 501 275 533 247 q 403 342 469 303 q 288 419 332 385 q 210 504 243 453 q 178 625 178 556 q 193 721 178 674 q 313 875 222 817 q 519 933 403 933 z "},"T":{"ha":1054,"x_min":125,"x_max":1189,"o":"m 1113 925 q 1189 863 1189 925 q 1181 814 1189 843 l 1147 701 q 1110 629 1132 650 q 1046 608 1088 608 q 992 626 1011 608 q 957 683 974 644 l 933 740 q 910 776 922 767 q 871 786 897 786 l 839 786 l 663 165 q 658 133 658 147 q 663 106 658 117 q 678 82 668 94 q 690 50 690 63 q 688 36 690 47 q 660 10 681 18 q 603 1 640 1 l 276 1 q 231 11 247 1 q 215 39 215 21 q 219 56 215 47 q 233 74 225 68 q 256 90 240 81 q 290 118 276 103 q 314 165 304 133 l 489 786 l 457 786 q 407 776 426 786 q 365 740 388 767 l 319 683 q 258 627 288 646 q 193 608 228 608 q 143 625 161 608 q 125 671 125 642 q 129 701 125 685 l 165 828 q 190 887 176 867 q 230 916 204 907 q 303 925 256 925 l 1113 925 z "},"U":{"ha":1094,"x_min":119,"x_max":1203,"o":"m 849 738 q 923 882 875 833 q 1056 931 971 931 q 1163 888 1122 931 q 1203 783 1203 846 q 1196 735 1203 763 q 1142 647 1181 674 q 1057 619 1103 619 q 1015 623 1033 619 q 979 632 996 626 l 897 331 q 749 78 853 165 q 465 -8 644 -8 q 210 54 301 -8 q 119 249 119 117 q 142 389 119 313 l 247 763 q 253 797 253 781 q 248 824 253 814 q 235 849 243 835 q 222 878 222 867 q 225 892 222 883 q 250 917 231 910 q 307 925 269 925 l 633 925 q 693 889 693 925 q 692 875 693 881 q 680 855 688 863 q 657 838 672 847 q 621 810 635 825 q 597 763 607 794 l 476 338 q 464 257 464 290 q 564 164 464 164 q 666 203 625 164 q 735 339 707 243 l 849 738 z "},"V":{"ha":1018,"x_min":158,"x_max":1182,"o":"m 1182 792 q 1160 706 1182 742 q 1106 651 1139 669 q 1039 632 1072 632 q 978 646 1006 632 q 933 683 951 660 l 599 119 q 529 28 561 56 q 457 0 497 0 q 388 28 414 0 q 351 119 363 57 l 235 761 q 219 801 231 786 q 190 835 208 817 q 171 855 176 847 q 165 874 165 863 q 226 925 158 925 l 574 925 q 622 912 606 925 q 638 876 639 899 q 633 856 638 864 q 617 835 628 847 q 597 808 604 821 q 590 778 590 796 q 592 764 590 769 l 644 440 l 829 768 q 925 894 878 857 q 1042 931 972 931 q 1144 894 1106 931 q 1182 792 1182 857 z "},"W":{"ha":1589,"x_min":169,"x_max":1743,"o":"m 1743 792 q 1719 705 1743 742 q 1660 649 1696 668 q 1592 631 1625 631 q 1531 647 1560 631 q 1494 683 1503 663 l 1157 119 q 1087 27 1118 54 q 1015 0 1056 0 q 910 119 922 0 l 865 528 l 585 119 q 506 24 536 49 q 438 0 476 0 q 335 133 353 0 l 246 761 q 230 806 242 789 q 200 838 218 822 q 182 856 188 849 q 176 874 176 864 q 238 925 169 925 l 583 925 q 631 912 615 925 q 646 876 647 899 q 640 855 646 865 q 626 836 633 844 q 604 804 611 819 q 600 764 597 789 l 636 429 l 844 728 l 840 761 q 826 804 838 788 q 796 836 815 821 q 776 856 782 849 q 771 874 771 864 q 832 925 764 925 l 1179 925 q 1228 912 1211 925 q 1243 876 1244 899 q 1224 836 1243 858 q 1203 804 1210 819 q 1197 764 1196 789 l 1214 461 l 1401 789 q 1490 899 1447 868 q 1603 931 1533 931 q 1704 893 1665 931 q 1743 792 1743 856 z "},"X":{"ha":1124,"x_min":-64,"x_max":1254,"o":"m 1189 925 q 1238 913 1221 925 q 1254 882 1254 901 q 1253 869 1254 874 q 1236 842 1249 851 q 1196 822 1224 833 q 1128 790 1158 806 q 1060 740 1099 774 l 783 506 l 918 178 q 949 126 932 144 q 992 92 967 108 q 1017 70 1010 78 q 1024 49 1024 63 q 1007 12 1024 24 q 951 0 990 0 l 578 0 q 524 12 542 0 q 507 43 507 24 q 508 56 507 51 q 518 73 511 65 q 532 86 525 81 q 549 104 543 96 q 554 128 554 113 q 539 189 554 151 l 490 307 l 364 189 q 325 126 325 154 q 331 106 325 114 q 349 83 336 97 q 367 60 361 71 q 369 36 374 49 q 347 8 364 15 q 292 0 329 0 l 1 0 q -47 12 -31 0 q -64 43 -64 24 q -62 56 -64 51 q -46 83 -58 74 q -6 103 -33 92 q 63 136 33 119 q 131 185 93 153 l 433 444 l 308 747 q 277 799 294 781 q 235 833 260 817 q 210 855 217 847 q 203 876 203 863 q 219 913 203 901 q 275 925 236 925 l 649 925 q 702 913 685 925 q 719 882 719 901 q 718 869 719 874 q 708 852 715 860 q 694 839 701 844 q 678 821 683 829 q 672 797 672 813 q 688 736 672 775 l 726 643 l 826 736 q 867 799 867 772 q 860 820 867 811 q 842 842 854 829 q 831 853 839 844 q 821 872 824 863 q 821 889 818 881 q 844 917 826 910 q 899 925 861 925 l 1189 925 z "},"Y":{"ha":1096,"x_min":178,"x_max":1247,"o":"m 1108 931 q 1208 891 1169 931 q 1247 790 1247 851 q 1244 760 1247 782 q 1192 661 1233 693 q 1097 629 1151 629 q 1036 640 1061 629 q 989 678 1011 651 l 760 379 l 696 164 q 693 142 693 156 q 703 109 693 122 q 731 81 713 96 q 753 57 746 67 q 756 35 760 47 q 728 8 750 15 q 669 0 707 0 l 319 0 q 266 13 283 0 q 254 50 249 26 q 265 70 257 63 q 289 89 272 78 q 324 117 310 101 q 347 164 338 133 l 411 381 l 283 744 q 251 806 269 785 q 207 849 232 828 q 185 868 192 860 q 178 888 178 876 q 192 915 178 904 q 235 925 207 925 l 606 925 q 672 917 654 925 q 692 888 690 908 q 686 866 692 875 q 669 844 681 857 q 651 817 657 828 q 644 792 644 807 q 647 774 644 788 l 711 529 l 888 781 q 995 896 944 861 q 1108 931 1046 931 z "},"Z":{"ha":1019,"x_min":13,"x_max":1083,"o":"m 982 925 q 1056 901 1028 925 q 1083 839 1083 876 q 1032 735 1083 786 l 429 133 l 593 133 q 640 144 619 133 q 683 181 660 154 l 767 272 q 809 306 789 296 q 858 317 829 317 q 908 303 889 317 q 928 261 928 289 q 924 235 928 250 l 883 94 q 839 21 868 42 q 754 0 810 0 l 132 0 q 42 24 72 0 q 13 90 13 49 q 26 140 13 115 q 68 194 39 164 l 633 792 l 504 792 q 458 781 478 792 q 414 744 438 771 l 331 653 q 288 619 308 629 q 239 608 268 608 q 189 622 208 608 q 169 664 169 636 q 174 690 169 676 l 214 831 q 258 904 229 883 q 343 925 288 925 l 982 925 z "},"[":{"ha":725,"x_min":43,"x_max":875,"o":"m 132 -235 q 66 -215 89 -235 q 43 -161 43 -196 q 49 -125 43 -142 l 374 1028 q 483 1110 396 1110 l 825 1110 q 862 1099 849 1110 q 875 1068 875 1088 q 872 1047 875 1054 l 867 1026 q 806 979 856 979 l 757 979 q 694 932 707 979 l 419 -42 q 417 -61 417 -49 q 430 -92 417 -81 q 467 -104 443 -104 l 482 -104 q 519 -115 506 -104 q 532 -146 532 -126 q 529 -167 532 -160 l 524 -187 q 502 -224 517 -212 q 463 -235 488 -235 l 132 -235 z "},"\\":{"ha":767,"x_min":183,"x_max":640,"o":"m 636 -15 q 640 -40 640 -28 q 622 -84 640 -67 q 574 -101 603 -101 q 501 -44 519 -101 l 188 940 q 183 964 183 953 q 203 1009 183 992 q 253 1026 222 1026 q 295 1014 279 1026 q 319 976 311 1001 l 636 -15 z "},"]":{"ha":726,"x_min":-104,"x_max":728,"o":"m 639 1110 q 705 1090 682 1110 q 728 1036 728 1071 q 722 1000 728 1017 l 397 -153 q 288 -235 375 -235 l -54 -235 q -91 -224 -78 -235 q -104 -193 -104 -212 q -101 -172 -104 -179 l -96 -151 q -35 -104 -85 -104 l 14 -104 q 76 -57 64 -104 l 351 917 q 354 936 354 924 q 341 967 354 956 q 304 979 328 979 l 289 979 q 252 990 265 979 q 239 1021 239 1001 q 242 1042 239 1035 l 247 1063 q 269 1099 254 1088 q 308 1110 283 1110 l 639 1110 z "},"^":{"ha":854,"x_min":110,"x_max":794,"o":"m 789 492 q 794 454 794 474 q 772 387 794 413 q 713 361 750 361 q 659 386 681 361 q 624 467 638 411 l 538 803 l 278 428 q 188 368 236 368 q 133 390 156 368 q 110 446 110 413 q 113 465 110 451 q 147 531 118 493 l 492 989 q 537 1035 517 1021 q 581 1049 557 1049 q 635 1024 613 1049 q 672 942 657 1000 l 789 492 z "},"_":{"ha":1207,"x_min":-22,"x_max":997,"o":"m -18 -114 q 22 -51 -8 -74 q 97 -29 53 -29 l 921 -29 q 997 -89 997 -29 q 994 -114 997 -104 q 878 -199 968 -199 l 54 -199 q -3 -184 17 -199 q -22 -142 -22 -169 q -18 -114 -22 -129 z "},"`":{"ha":358,"x_min":188,"x_max":443,"o":"m 438 836 q 443 807 443 821 q 433 779 443 790 q 408 768 424 768 q 376 774 392 768 q 342 796 361 781 l 261 858 q 205 915 222 890 q 188 972 188 940 q 212 1033 188 1010 q 279 1057 236 1057 q 353 1031 324 1057 q 403 946 383 1004 l 438 836 z "},"a":{"ha":908,"x_min":-4,"x_max":853,"o":"m 496 735 q 751 676 656 735 q 847 496 847 617 q 831 392 847 450 l 774 200 q 772 186 772 194 q 790 164 772 164 q 819 178 807 164 q 835 193 831 193 q 847 183 842 193 q 851 161 851 174 q 823 85 853 124 q 743 21 793 46 q 633 -4 693 -4 q 510 22 561 -4 q 439 100 458 49 q 340 23 397 50 q 218 -4 283 -4 q 94 24 144 -4 q 20 98 44 53 q -4 193 -4 143 q 0 236 -4 215 q 97 381 22 332 q 274 429 171 429 q 500 393 389 429 l 535 485 q 553 575 553 543 q 531 625 551 608 q 467 642 510 642 q 475 596 475 619 q 436 507 475 544 q 325 469 397 469 q 219 499 257 469 q 181 574 181 529 q 258 689 181 643 q 496 735 336 735 m 418 314 q 355 284 379 314 q 331 219 331 254 q 341 183 331 197 q 371 169 351 169 q 410 184 389 169 q 442 228 432 199 l 471 310 q 418 314 447 314 z "},"b":{"ha":940,"x_min":-14,"x_max":935,"o":"m 708 740 q 873 667 811 740 q 935 472 935 593 q 919 350 935 410 q 767 79 875 171 q 519 -12 660 -12 q 383 15 440 -12 q 290 92 325 42 l 240 49 q 183 12 211 24 q 119 0 156 0 l 58 0 q 5 15 24 0 q -14 57 -14 29 q -10 86 -14 69 l 222 840 q 226 861 226 853 q 197 906 226 885 q 178 926 183 918 q 176 946 172 933 q 265 1002 186 978 q 429 1026 343 1026 q 548 995 510 1026 q 586 911 586 964 q 576 853 586 882 l 518 664 q 708 740 599 740 m 551 358 q 579 511 579 453 q 542 575 579 575 q 479 540 508 575 l 389 246 l 381 219 l 381 219 q 374 176 374 199 q 419 128 374 128 q 483 176 453 128 q 551 358 514 225 z "},"c":{"ha":753,"x_min":22,"x_max":788,"o":"m 504 742 q 653 717 589 742 q 752 651 717 693 q 788 557 788 608 q 749 465 788 501 q 646 429 711 429 q 542 463 579 429 q 504 556 504 497 q 513 614 504 583 q 409 553 454 599 q 349 435 364 508 q 340 360 340 393 q 382 246 340 285 q 501 207 424 207 q 578 216 546 207 q 643 240 610 225 q 683 254 671 254 q 694 251 692 254 q 697 236 697 247 q 655 128 699 185 q 534 34 611 72 q 361 -4 457 -4 q 184 33 261 -4 q 65 138 107 69 q 22 299 22 207 q 33 394 22 342 q 199 654 71 567 q 504 742 328 742 z "},"d":{"ha":910,"x_min":17,"x_max":985,"o":"m 776 200 q 774 185 774 189 q 779 169 774 175 q 793 164 785 164 q 822 178 810 164 q 838 193 833 193 q 849 183 844 193 q 853 161 853 174 q 824 85 854 124 q 744 21 794 46 q 636 -4 694 -4 q 515 22 567 -4 q 444 92 464 49 q 358 19 407 43 q 256 -4 310 -4 q 137 28 192 -4 q 49 119 82 60 q 17 253 17 178 q 65 491 17 379 q 199 672 113 603 q 394 740 285 740 q 497 726 454 740 q 574 685 539 713 l 621 840 q 625 861 625 853 q 617 886 625 876 q 597 906 610 896 q 577 925 583 917 q 575 947 571 933 q 663 1003 583 979 q 828 1026 742 1026 q 947 996 908 1026 q 985 913 985 965 q 975 853 985 882 l 776 200 m 544 590 q 496 610 522 610 q 417 550 456 610 q 354 406 378 490 q 332 253 331 321 q 382 176 332 176 q 413 191 400 176 q 436 239 425 206 l 544 590 z "},"e":{"ha":778,"x_min":22,"x_max":806,"o":"m 471 742 q 726 685 647 742 q 806 542 806 629 q 800 493 806 515 q 684 362 779 401 q 460 322 589 322 q 338 331 394 322 q 376 229 336 258 q 489 200 417 200 q 553 208 522 200 q 631 231 583 215 q 683 244 669 244 q 699 226 699 244 q 663 124 700 178 q 551 33 625 71 q 374 -4 478 -4 q 121 74 219 -4 q 22 300 22 151 q 33 397 22 342 q 185 655 68 568 q 471 742 303 742 m 347 414 q 363 413 353 413 q 451 467 421 413 q 481 588 482 521 q 458 626 479 626 q 422 602 443 626 q 381 529 401 578 q 347 414 361 481 z "},"f":{"ha":578,"x_min":-68,"x_max":864,"o":"m 567 1026 q 790 981 715 1026 q 864 871 864 936 q 820 790 864 818 q 706 761 776 761 q 604 793 640 761 q 568 872 568 825 q 586 933 568 901 q 517 913 544 933 q 474 844 489 893 q 465 788 465 814 q 477 735 465 754 q 511 717 489 717 l 593 717 q 665 672 665 717 q 663 656 665 667 q 628 610 654 625 q 551 594 603 594 l 510 594 l 372 144 q 368 115 368 128 q 375 87 368 97 q 394 67 382 76 q 408 51 404 57 q 410 35 413 44 q 382 8 403 17 q 318 0 361 0 l 1 0 q -51 12 -35 0 q -62 43 -68 24 q -33 72 -57 60 q 1 99 -12 83 q 25 147 15 114 l 133 503 q 140 546 140 524 q 128 590 140 574 q 93 625 117 606 q 70 647 78 638 q 63 668 63 656 q 81 706 61 694 q 158 717 101 717 l 193 717 q 183 786 183 751 q 196 858 183 821 q 309 978 222 929 q 567 1026 396 1026 z "},"g":{"ha":882,"x_min":-136,"x_max":1025,"o":"m 842 961 q 928 942 886 961 q 998 891 971 924 q 1025 821 1025 858 q 914 739 1025 739 q 865 744 882 739 q 824 760 847 749 q 819 732 819 750 q 827 679 819 710 q 846 622 835 649 q 875 519 875 579 q 868 456 875 493 q 795 324 851 383 q 651 230 739 264 q 457 196 563 196 q 306 207 376 196 q 285 163 285 189 q 301 133 285 144 q 357 121 318 121 l 565 121 q 732 84 672 121 q 792 -21 792 47 q 783 -72 792 -46 q 708 -173 767 -126 q 542 -249 649 -219 q 282 -278 435 -278 q 51 -254 146 -278 q -90 -190 -43 -231 q -136 -99 -136 -149 q -131 -65 -136 -87 q -74 1 -118 -25 q 69 35 -31 26 q 36 111 36 67 q 40 143 36 126 q 171 250 63 215 q 67 417 67 307 q 75 481 67 447 q 149 612 92 553 q 294 706 206 671 q 489 740 383 740 q 749 697 654 740 q 716 766 728 729 q 704 833 704 803 q 738 924 704 886 q 842 961 772 961 m 540 468 q 563 576 563 539 q 522 624 563 624 q 462 590 488 624 q 410 468 436 556 q 388 358 388 396 q 426 313 388 313 q 488 347 461 313 q 540 468 514 382 m 264 -19 q 193 -15 225 -19 q 176 -71 176 -36 q 205 -121 178 -106 q 289 -136 232 -136 q 402 -115 358 -136 q 446 -56 446 -94 q 433 -29 446 -39 q 397 -19 421 -19 l 264 -19 z "},"h":{"ha":986,"x_min":-68,"x_max":950,"o":"m 851 192 q 849 175 849 186 q 853 160 849 165 q 867 154 858 154 q 895 169 883 154 q 911 183 907 183 q 922 174 918 183 q 926 153 926 165 q 900 74 928 113 q 819 12 872 36 q 690 -12 765 -12 q 544 30 599 -12 q 489 143 490 72 q 514 258 489 194 l 590 458 q 597 488 597 476 q 585 516 597 506 q 557 526 574 526 q 503 502 531 526 q 460 424 476 478 l 460 426 l 372 144 q 368 115 368 128 q 375 87 368 97 q 394 67 382 76 q 408 51 404 57 q 410 35 413 44 q 382 8 403 17 q 318 0 361 0 l 1 0 q -51 12 -35 0 q -62 43 -68 24 q -33 72 -57 60 q 1 99 -12 83 q 25 147 15 114 l 236 840 q 240 861 240 853 q 233 886 240 876 q 213 906 225 896 q 192 925 199 917 q 190 947 186 933 q 278 1003 199 979 q 443 1026 357 1026 q 562 996 524 1026 q 600 913 600 965 q 590 853 600 882 l 515 608 q 630 707 569 679 q 761 735 690 735 q 898 683 846 735 q 950 550 950 632 q 936 465 950 507 l 851 192 z "},"i":{"ha":508,"x_min":-61,"x_max":581,"o":"m 361 735 q 479 704 442 735 q 517 621 517 674 q 507 560 517 589 l 379 144 q 375 115 375 128 q 382 87 375 97 q 401 67 389 76 q 415 51 411 57 q 417 35 419 44 q 389 8 410 17 q 325 0 368 0 l 8 0 q -44 12 -28 0 q -56 43 -61 24 q -26 72 -50 60 q 8 99 -6 83 q 32 147 22 114 l 153 549 q 157 569 157 561 q 150 594 157 585 q 129 613 143 603 q 110 632 115 624 q 108 654 104 640 q 196 710 117 686 q 361 735 275 735 m 454 1042 q 544 1006 508 1042 q 581 919 581 971 q 562 849 581 883 q 509 792 543 814 q 433 771 475 771 q 345 806 381 771 q 308 894 310 842 q 326 963 308 929 q 378 1019 344 997 q 454 1042 411 1042 z "},"j":{"ha":465,"x_min":-207,"x_max":590,"o":"m 458 1046 q 551 1009 514 1046 q 589 919 589 972 q 570 844 590 881 q 515 784 550 807 q 433 761 479 761 q 341 799 378 761 q 304 893 304 838 q 324 965 304 929 q 378 1023 343 1000 q 458 1046 414 1046 m 126 549 q 129 568 129 556 q 123 592 129 583 q 103 613 117 600 q 83 632 89 624 q 82 654 78 640 q 169 710 90 686 q 335 735 249 735 q 453 704 415 735 q 490 621 490 674 q 481 560 490 589 l 310 -15 q 179 -208 268 -153 q -60 -264 90 -264 q -163 -249 -119 -264 q -199 -207 -207 -233 q -186 -189 -196 -197 q -157 -171 -176 -181 q -97 -128 -121 -151 q -58 -61 -72 -106 l 126 549 z "},"k":{"ha":971,"x_min":-68,"x_max":999,"o":"m 824 735 q 951 691 903 735 q 999 585 999 647 q 958 481 999 518 q 853 443 918 443 q 763 473 794 443 q 732 540 731 503 q 708 529 718 543 q 688 475 699 515 q 661 426 681 449 q 801 383 756 419 q 847 290 847 347 q 838 235 847 263 l 826 192 q 824 174 824 185 q 842 154 824 154 q 870 169 858 154 q 886 183 882 183 q 897 174 893 183 q 901 153 901 165 q 877 74 903 113 q 799 12 851 36 q 674 -12 747 -12 q 526 32 585 -12 q 467 149 467 76 q 478 208 467 175 l 504 278 q 511 314 511 303 q 499 340 511 332 q 463 349 488 349 l 435 349 l 372 144 q 368 115 368 128 q 375 87 368 97 q 394 67 382 76 q 408 51 404 57 q 410 35 413 44 q 382 8 403 17 q 318 0 361 0 l 1 0 q -51 12 -35 0 q -62 43 -68 24 q -33 72 -57 60 q 1 99 -12 83 q 25 147 15 114 l 236 840 q 240 861 240 853 q 233 886 240 876 q 213 906 225 896 q 192 925 199 917 q 190 947 186 933 q 278 1003 199 979 q 443 1026 357 1026 q 561 997 524 1026 q 599 914 599 967 q 589 853 599 882 l 468 458 l 514 458 q 559 475 542 458 q 586 524 576 492 q 676 681 621 626 q 824 735 732 735 z "},"l":{"ha":508,"x_min":-68,"x_max":600,"o":"m 443 1026 q 562 996 524 1026 q 600 913 600 965 q 590 853 600 882 l 372 144 q 368 115 368 128 q 375 87 368 97 q 394 67 382 76 q 408 51 404 57 q 410 35 413 44 q 382 8 403 17 q 318 0 361 0 l 1 0 q -51 12 -35 0 q -62 43 -68 24 q -33 72 -57 60 q 1 99 -12 83 q 25 147 15 114 l 236 840 q 240 861 240 853 q 233 886 240 876 q 213 906 225 896 q 192 925 199 917 q 190 947 186 933 q 278 1003 199 979 q 443 1026 357 1026 z "},"m":{"ha":1456,"x_min":-60,"x_max":1419,"o":"m 1321 192 q 1318 175 1318 186 q 1323 160 1318 165 q 1336 154 1328 154 q 1365 169 1353 154 q 1381 183 1376 183 q 1392 174 1388 183 q 1396 153 1396 165 q 1369 74 1397 113 q 1288 12 1342 36 q 1160 -12 1235 -12 q 1014 30 1068 -12 q 958 143 960 72 q 983 258 958 194 l 1060 458 q 1067 488 1067 476 q 1055 516 1067 506 q 1026 526 1043 526 q 978 506 1003 526 q 933 440 953 485 l 857 192 q 854 175 854 186 q 859 160 854 165 q 872 154 864 154 q 901 169 889 154 q 917 183 913 183 q 928 174 924 183 q 932 153 932 165 q 906 74 933 113 q 824 12 878 36 q 696 -12 771 -12 q 550 30 604 -12 q 494 143 496 72 q 519 258 494 194 l 596 458 q 603 488 603 476 q 591 516 603 506 q 563 526 579 526 q 514 506 539 526 q 472 442 489 486 l 381 144 q 375 115 375 129 q 382 88 375 99 q 401 67 389 78 q 415 51 411 58 q 417 35 419 44 q 390 8 411 17 q 325 0 369 0 l 8 0 q -44 12 -28 0 q -56 43 -60 24 q -26 72 -50 60 q 8 99 -6 83 q 32 147 22 114 l 156 549 q 158 568 158 556 q 152 592 158 583 q 132 613 146 600 q 113 632 118 624 q 111 654 107 640 q 199 710 119 686 q 364 735 278 735 q 472 697 432 735 q 510 594 511 660 q 630 704 567 674 q 767 735 693 735 q 898 688 847 735 q 954 567 949 642 q 1082 698 1014 661 q 1231 735 1150 735 q 1367 683 1315 735 q 1419 550 1419 632 q 1406 465 1419 507 l 1321 192 z "},"n":{"ha":994,"x_min":-60,"x_max":958,"o":"m 860 192 q 857 175 857 186 q 862 160 857 165 q 875 154 867 154 q 903 169 892 154 q 919 183 915 183 q 931 174 926 183 q 935 153 935 165 q 908 74 936 113 q 827 12 881 36 q 699 -12 774 -12 q 553 30 607 -12 q 497 143 499 72 q 522 258 497 194 l 599 458 q 606 488 606 476 q 594 516 606 506 q 565 526 582 526 q 507 498 535 526 q 467 428 479 469 l 381 144 q 375 115 375 129 q 382 88 375 99 q 401 67 389 78 q 415 51 411 58 q 417 35 419 44 q 390 8 411 17 q 325 0 369 0 l 8 0 q -44 12 -28 0 q -56 43 -60 24 q -26 72 -50 60 q 8 99 -6 83 q 32 147 22 114 l 156 549 q 158 568 158 556 q 152 592 158 583 q 132 613 146 600 q 113 632 118 624 q 111 654 107 640 q 199 710 119 686 q 364 735 278 735 q 474 697 433 735 q 510 590 514 658 q 631 703 567 672 q 769 735 694 735 q 906 683 854 735 q 958 550 958 632 q 944 465 958 507 l 860 192 z "},"o":{"ha":911,"x_min":14,"x_max":906,"o":"m 538 735 q 816 658 726 735 q 906 458 906 582 q 894 365 906 417 q 796 166 868 251 q 619 34 724 81 q 392 -12 514 -12 q 106 65 199 -12 q 14 269 14 142 q 25 365 14 313 q 126 558 51 474 q 308 688 200 642 q 538 735 415 735 m 533 611 q 472 559 504 611 q 394 363 439 507 q 350 160 350 218 q 360 119 350 129 q 386 108 369 108 q 447 158 415 106 q 525 364 478 211 q 568 560 568 499 q 559 600 568 589 q 533 611 550 611 z "},"p":{"ha":960,"x_min":-135,"x_max":956,"o":"m 726 740 q 894 669 833 740 q 956 476 956 599 q 938 339 956 411 q 782 77 896 167 q 518 -12 668 -12 q 351 28 422 -12 l 307 -121 q 301 -150 301 -136 q 308 -176 301 -165 q 326 -196 315 -186 q 341 -214 338 -207 q 342 -231 344 -221 q 315 -256 336 -249 q 251 -264 294 -264 l -67 -264 q -119 -252 -103 -264 q -128 -222 -135 -240 q -118 -204 -125 -211 q -99 -192 -111 -197 q -65 -163 -78 -178 q -43 -117 -53 -149 l 160 549 q 164 569 164 561 q 157 594 164 585 q 136 613 150 603 q 117 632 122 624 q 115 654 111 640 q 203 710 124 686 q 368 735 282 735 q 469 704 429 735 q 514 619 508 674 q 726 740 608 740 m 565 328 q 599 499 599 451 q 590 537 599 528 q 564 546 581 546 q 532 534 551 546 q 493 494 513 522 l 383 131 q 424 114 400 114 q 495 156 461 114 q 565 328 529 199 z "},"q":{"ha":947,"x_min":14,"x_max":967,"o":"m 768 0 q 757 -56 757 -40 q 766 -81 757 -74 q 796 -87 775 -87 q 840 -83 814 -87 q 872 -78 865 -78 q 889 -100 889 -78 q 847 -174 889 -135 q 739 -238 806 -212 q 604 -264 672 -264 q 450 -223 504 -264 q 396 -108 396 -182 q 407 -36 396 -71 l 444 86 q 240 -4 358 -4 q 126 26 178 -4 q 44 115 74 56 q 14 256 14 174 q 31 386 14 324 q 122 580 60 501 q 265 697 183 658 q 433 735 346 735 q 572 711 515 735 q 672 639 628 688 l 713 672 q 768 709 742 697 q 832 721 794 721 l 894 721 q 948 706 929 721 q 967 665 967 692 q 961 636 967 658 l 768 0 m 564 475 l 572 501 l 572 501 q 579 547 579 524 q 538 593 579 593 q 472 550 503 593 q 407 394 442 507 q 382 261 382 318 q 397 197 382 218 q 435 176 411 176 q 467 192 453 176 q 493 243 481 208 l 564 475 z "},"r":{"ha":804,"x_min":-60,"x_max":853,"o":"m 682 735 q 806 688 760 735 q 853 571 853 640 q 847 522 853 544 q 794 435 833 465 q 701 404 756 404 q 622 429 649 404 q 574 496 594 454 q 553 531 563 519 q 531 542 543 542 q 506 531 517 542 q 488 492 496 519 l 381 144 q 378 124 378 138 q 388 94 378 106 q 417 71 399 82 q 439 53 433 60 q 443 35 444 46 q 423 8 440 17 q 364 0 406 0 l 8 0 q -44 12 -28 0 q -56 43 -60 24 q -26 72 -50 60 q 8 99 -6 83 q 32 147 22 114 l 156 549 q 158 568 158 556 q 152 592 158 583 q 132 613 146 600 q 113 632 118 624 q 111 654 107 640 q 199 710 119 686 q 364 735 278 735 q 458 709 421 735 q 507 636 496 683 q 682 735 574 735 z "},"s":{"ha":824,"x_min":-22,"x_max":831,"o":"m 457 747 q 656 726 572 747 q 785 668 740 706 q 831 583 831 631 q 792 504 831 535 q 686 474 754 474 q 569 508 617 474 q 521 596 521 543 q 526 631 521 614 q 482 638 501 638 q 424 621 447 638 q 403 574 401 604 q 439 513 403 538 q 556 450 475 488 q 670 394 625 419 q 747 329 715 368 q 778 238 778 290 q 772 196 778 226 q 649 49 750 103 q 382 -6 547 -6 q 87 44 196 -6 q -22 182 -22 94 q 14 272 -22 242 q 110 303 50 303 q 228 260 179 303 q 278 150 278 217 q 274 113 278 132 q 338 104 307 104 q 397 124 374 104 q 421 178 421 143 q 389 233 419 210 q 292 288 358 256 q 189 342 229 317 q 120 407 149 368 q 92 499 92 446 q 187 680 92 613 q 457 747 282 747 z "},"t":{"ha":597,"x_min":32,"x_max":676,"o":"m 621 717 q 662 706 647 717 q 676 675 676 694 q 674 656 676 669 q 590 594 656 594 l 510 594 l 406 251 q 399 208 399 231 q 413 174 399 183 q 451 164 426 164 q 507 169 474 164 q 536 174 524 174 q 551 167 546 174 q 556 151 556 161 q 515 84 557 124 q 400 16 472 44 q 240 -12 328 -12 q 89 31 146 -12 q 32 149 32 74 q 43 215 32 183 l 132 490 q 139 528 139 514 q 126 575 139 556 q 89 615 113 594 q 60 648 68 635 q 56 679 51 661 q 79 707 61 697 q 136 717 97 717 l 214 717 l 301 804 q 385 868 347 850 q 485 886 424 886 q 572 819 572 886 q 567 781 572 799 l 547 717 l 621 717 z "},"u":{"ha":953,"x_min":18,"x_max":949,"o":"m 825 192 q 822 175 822 181 q 827 160 822 165 q 840 154 832 154 q 869 169 857 154 q 885 183 881 183 q 897 174 892 183 q 901 153 901 165 q 874 76 903 114 q 792 13 844 38 q 674 -12 739 -12 q 543 21 592 -12 q 481 108 494 54 q 370 24 431 53 q 247 -4 310 -4 q 84 44 150 -4 q 18 178 18 92 q 32 258 18 217 l 121 549 q 125 569 125 561 q 118 594 125 585 q 97 613 111 603 q 78 632 83 624 q 76 654 72 640 q 164 710 85 686 q 329 735 243 735 q 447 704 410 735 q 485 621 485 674 q 475 560 485 589 l 388 271 q 382 242 382 256 q 393 213 382 222 q 422 203 404 203 q 465 218 449 203 q 499 269 482 233 l 583 549 q 588 569 588 561 q 581 594 588 585 q 561 613 574 603 q 542 632 547 624 q 540 654 536 640 q 626 710 547 686 q 792 735 706 735 q 910 704 872 735 q 949 622 949 674 q 938 560 949 596 l 825 192 z "},"v":{"ha":832,"x_min":19,"x_max":849,"o":"m 678 735 q 800 682 751 735 q 849 538 849 629 q 763 285 849 414 q 544 72 676 156 q 288 -12 413 -12 q 94 36 168 -12 q 19 175 19 85 q 32 250 19 208 l 119 549 q 122 565 122 560 q 115 589 122 579 q 96 610 108 599 q 75 642 75 628 q 99 683 74 661 q 169 720 124 706 q 271 735 214 735 q 416 690 364 735 q 468 572 468 644 q 457 503 468 540 l 367 206 q 363 185 363 193 q 375 157 363 167 q 410 147 388 147 q 481 174 440 147 q 563 252 522 201 q 628 372 603 303 q 549 468 572 421 q 526 565 526 515 q 565 685 526 636 q 678 735 604 735 z "},"w":{"ha":1288,"x_min":26,"x_max":1304,"o":"m 1304 538 q 1218 285 1304 414 q 1001 72 1132 156 q 743 -12 869 -12 q 574 22 643 -12 q 483 122 504 57 q 369 28 432 60 q 239 -4 307 -4 q 85 42 144 -4 q 26 179 26 89 q 42 276 26 226 l 119 549 q 122 565 122 560 q 115 589 122 579 q 96 610 108 599 q 75 642 75 628 q 99 683 74 661 q 169 720 124 706 q 271 735 214 735 q 416 690 364 735 q 468 572 468 644 q 457 503 468 540 l 386 267 q 381 240 381 247 q 391 213 381 222 q 419 203 401 203 q 462 220 444 203 q 496 276 479 238 l 575 549 q 578 565 578 560 q 571 589 578 579 q 551 610 564 599 q 531 642 531 628 q 554 683 529 661 q 624 720 579 706 q 726 735 669 735 q 872 690 821 735 q 924 572 924 646 q 913 503 924 543 l 822 206 q 819 185 819 199 q 832 157 819 167 q 867 147 844 147 q 938 174 897 147 q 1019 252 979 201 q 1083 372 1058 303 q 1005 468 1028 421 q 982 565 982 515 q 1021 685 982 636 q 1133 735 1060 735 q 1256 682 1207 735 q 1304 538 1304 629 z "},"x":{"ha":831,"x_min":-21,"x_max":865,"o":"m 732 735 q 828 695 790 735 q 865 597 865 656 q 857 543 865 571 q 812 472 842 496 q 744 449 782 449 q 658 478 700 449 l 589 413 q 646 272 624 318 q 682 213 668 226 q 714 200 696 200 q 739 208 724 200 q 763 215 754 215 q 776 208 771 215 q 782 188 782 200 q 779 167 782 181 q 732 81 768 119 q 646 19 696 42 q 544 -4 596 -4 q 456 9 493 -4 q 379 68 418 22 q 300 206 340 114 l 265 128 q 198 24 232 54 q 118 -6 164 -6 q 18 33 57 -6 q -21 132 -21 72 q -12 186 -21 160 q 33 257 3 233 q 100 281 63 281 q 186 251 144 281 l 256 317 q 201 458 222 411 q 166 517 181 504 q 133 531 151 531 q 109 523 124 531 q 86 515 94 515 q 65 544 65 515 q 68 563 65 549 q 156 685 86 635 q 304 735 225 735 q 392 719 354 735 q 469 658 431 704 q 546 525 507 613 l 585 613 q 649 707 615 679 q 732 735 682 735 z "},"y":{"ha":861,"x_min":-103,"x_max":871,"o":"m 736 735 q 834 685 797 735 q 871 551 871 636 q 844 393 871 478 q 680 71 793 222 q 420 -172 567 -81 q 128 -264 274 -264 q 3 -239 56 -264 q -76 -172 -49 -214 q -103 -83 -103 -131 q -96 -37 -103 -62 q -54 22 -83 1 q 15 43 -25 43 q 120 -1 79 43 q 172 -121 161 -44 q 336 -44 261 -117 q 231 3 265 -32 q 185 114 197 39 l 129 454 q 117 491 125 481 q 97 501 110 501 q 74 492 88 501 q 56 482 61 482 q 44 506 44 482 q 51 547 44 525 q 144 681 76 626 q 303 736 213 736 q 434 683 392 736 q 489 521 476 631 l 531 215 q 556 181 535 181 q 614 226 581 181 q 679 354 647 271 q 615 440 638 392 q 593 544 593 489 q 604 622 593 588 q 656 706 621 678 q 736 735 692 735 z "},"z":{"ha":919,"x_min":-22,"x_max":910,"o":"m 739 735 q 824 713 785 735 q 887 656 864 690 q 910 583 910 621 q 881 492 910 531 q 788 417 851 454 l 493 242 q 575 194 535 194 q 632 218 607 194 q 689 286 657 242 q 718 324 708 313 q 738 335 728 335 q 792 317 763 335 q 844 264 822 299 q 865 181 865 229 q 840 88 865 131 q 767 21 814 46 q 658 -4 721 -4 q 556 17 597 -4 q 491 65 514 39 q 446 128 468 92 q 418 160 428 160 q 401 150 410 160 q 375 117 392 140 q 298 29 338 63 q 194 -4 258 -4 q 84 18 133 -4 q 6 77 35 40 q -22 157 -22 114 q 79 297 -22 233 l 436 515 q 394 557 413 544 q 356 569 376 569 q 310 551 329 569 q 272 499 292 532 q 249 465 258 476 q 229 454 240 454 q 154 485 186 454 q 122 568 122 515 q 144 649 122 611 q 205 711 165 688 q 297 735 244 735 q 416 698 374 735 q 492 607 458 661 q 518 576 511 576 q 534 585 525 576 q 549 603 543 594 q 560 617 556 613 q 640 703 601 671 q 739 735 679 735 z "},"{":{"ha":688,"x_min":28,"x_max":882,"o":"m 108 446 q 126 481 115 472 q 168 499 138 490 q 221 528 201 507 q 250 590 240 550 q 258 664 258 624 l 257 722 q 254 790 254 767 q 268 906 254 857 q 333 1018 285 968 q 452 1097 382 1068 q 604 1126 522 1126 q 753 1103 690 1126 q 849 1047 817 1079 q 882 990 882 1015 q 840 958 882 958 q 796 967 829 958 q 738 978 760 978 q 667 953 700 978 q 618 872 635 929 q 607 769 607 829 l 608 710 q 610 654 610 690 q 601 574 610 601 q 555 498 590 531 q 465 449 519 465 q 439 435 439 440 q 461 417 439 429 q 522 318 522 383 q 514 264 522 293 q 492 210 506 235 q 454 143 479 185 q 393 21 407 72 q 388 -17 388 3 q 410 -74 388 -53 q 476 -96 433 -96 q 531 -89 489 -96 q 563 -83 556 -83 q 585 -94 579 -83 q 588 -118 592 -104 q 539 -185 579 -154 q 437 -235 499 -217 q 304 -253 375 -253 q 95 -200 163 -253 q 28 -61 28 -147 q 39 14 28 -28 q 61 71 47 43 q 101 146 75 99 q 137 210 119 176 q 161 271 154 243 q 169 315 169 304 q 133 375 169 353 q 104 419 104 394 q 108 446 104 432 z "},"|":{"ha":610,"x_min":3,"x_max":664,"o":"m 353 -82 q 327 -126 343 -114 q 281 -139 311 -139 l 63 -139 q 3 -99 3 -139 q 7 -71 3 -87 l 314 1007 q 340 1051 324 1039 q 386 1064 356 1064 l 604 1064 q 664 1024 664 1064 q 660 996 664 1013 l 353 -82 z "},"}":{"ha":688,"x_min":-150,"x_max":704,"o":"m 624 428 q 606 392 617 401 q 564 375 594 383 q 511 345 531 367 q 482 283 492 324 q 474 210 474 250 l 475 151 q 478 83 478 107 q 464 -32 478 17 q 399 -144 447 -94 q 280 -224 350 -194 q 128 -253 210 -253 q -22 -229 42 -253 q -117 -174 -85 -206 q -150 -117 -150 -142 q -108 -85 -150 -85 q -64 -93 -97 -85 q -6 -104 -28 -104 q 65 -80 32 -104 q 114 1 97 -56 q 125 104 125 44 l 124 164 q 122 219 122 183 q 131 300 122 272 q 177 376 142 343 q 267 425 213 408 q 293 439 293 433 q 271 457 293 444 q 210 556 210 490 q 218 610 210 581 q 240 664 226 639 q 278 731 253 689 q 339 853 325 801 q 344 890 344 871 q 322 948 344 926 q 256 969 299 969 q 201 963 243 969 q 169 957 176 957 q 147 967 153 957 q 144 992 140 978 q 193 1059 153 1028 q 295 1108 233 1090 q 428 1126 357 1126 q 637 1074 569 1126 q 704 935 704 1021 q 693 860 704 901 q 671 803 685 831 q 631 728 657 775 q 595 664 613 697 q 571 603 578 631 q 563 558 563 569 q 599 499 563 521 q 628 454 628 481 q 624 428 628 443 z "},"~":{"ha":739,"x_min":65,"x_max":746,"o":"m 522 339 q 444 351 488 339 q 335 385 400 363 q 259 409 296 399 q 203 419 222 419 q 160 409 178 419 q 121 381 142 399 q 89 361 99 361 q 72 377 79 361 q 65 417 65 393 q 72 469 65 446 q 154 597 93 549 q 290 644 215 644 q 362 633 319 644 q 468 601 404 622 q 558 574 524 583 q 614 564 593 564 q 653 574 636 564 q 690 603 671 585 q 724 624 714 624 q 740 609 733 624 q 746 569 746 594 q 739 514 746 549 q 659 388 721 436 q 522 339 597 339 z "}," ":{"ha":833,"x_min":0,"x_max":0,"o":""},"¡":{"ha":501,"x_min":18,"x_max":522,"o":"m 368 653 q 274 690 313 653 q 236 782 236 728 q 256 856 236 819 q 312 915 276 892 q 392 938 347 938 q 484 900 447 938 q 522 808 521 863 q 503 735 522 771 q 448 676 483 699 q 368 653 413 653 m 393 208 q 340 43 397 99 q 183 -12 282 -12 q 63 23 108 -12 q 18 121 18 58 q 68 265 18 188 l 254 556 q 291 601 275 588 q 331 614 307 614 q 382 549 379 614 l 393 208 z "},"¢":{"ha":764,"x_min":22,"x_max":788,"o":"m 646 429 q 542 463 579 429 q 504 556 504 497 q 513 614 504 583 q 409 553 454 599 q 349 435 364 508 q 340 360 340 393 q 382 246 340 285 q 501 207 424 207 q 578 216 546 207 q 643 240 610 225 q 683 254 671 254 q 694 251 692 254 q 697 236 697 247 q 662 137 699 189 q 558 47 625 85 q 408 -1 492 8 l 389 -71 q 358 -124 378 -108 q 308 -139 338 -139 q 265 -123 279 -139 q 250 -79 250 -107 q 256 -43 250 -60 l 268 4 q 88 106 154 29 q 22 297 22 182 q 33 394 22 349 q 187 644 69 557 q 468 740 304 732 l 486 807 q 568 876 506 876 q 613 861 597 876 q 629 819 629 846 q 625 793 629 808 l 607 731 q 740 665 692 713 q 788 557 788 618 q 749 465 788 501 q 646 429 711 429 z "},"£":{"ha":1110,"x_min":-4,"x_max":1158,"o":"m 760 926 q 983 896 893 926 q 1116 818 1074 865 q 1158 721 1158 771 q 1156 694 1158 711 q 1101 613 1143 642 q 990 583 1060 583 q 865 621 913 583 q 818 719 818 658 q 838 797 818 754 q 794 808 813 808 q 744 791 765 808 q 717 744 724 774 l 661 547 l 792 547 q 835 535 821 547 q 850 503 850 524 q 847 483 850 497 q 760 419 828 419 l 625 419 l 575 240 l 567 214 q 626 207 601 207 q 741 226 693 207 q 817 269 789 244 q 875 328 844 293 q 901 356 892 347 q 919 364 911 364 q 973 342 940 364 q 1031 279 1006 319 q 1056 188 1056 239 q 1050 140 1056 163 q 960 33 1033 72 q 768 -6 888 -6 q 478 74 608 -6 q 247 -6 392 -6 q 60 49 125 -6 q -4 185 -4 104 q 1 229 -4 208 q 65 326 17 289 q 188 364 114 364 q 249 355 221 364 q 322 326 278 346 l 349 419 l 251 419 q 194 463 194 419 q 197 483 194 469 q 228 531 206 514 q 285 547 250 547 l 356 547 q 325 658 325 597 q 336 732 325 692 q 472 875 364 824 q 760 926 579 926 m 207 138 q 278 199 258 138 q 236 225 253 217 q 199 233 219 233 q 162 221 175 233 q 149 188 149 208 q 166 152 149 167 q 207 138 183 138 z "},"¤":{"ha":993,"x_min":50,"x_max":1008,"o":"m 1003 794 q 1008 769 1008 783 q 960 700 1008 732 l 901 664 q 917 575 917 622 q 904 481 917 533 q 804 296 875 371 l 831 272 q 864 214 864 242 q 838 165 864 192 q 788 140 813 140 q 728 171 760 140 l 686 208 q 446 157 581 157 q 232 208 308 157 l 147 157 q 96 139 119 139 q 56 165 68 139 q 50 190 50 176 q 99 260 50 228 l 158 297 q 143 386 143 339 q 156 481 143 429 q 254 664 182 585 l 214 700 q 193 742 193 719 q 221 794 193 767 q 275 821 247 821 q 318 803 299 821 l 372 751 q 615 803 479 803 q 828 751 750 803 l 911 803 q 963 821 939 821 q 1003 794 990 821 m 601 481 q 617 576 617 536 q 606 621 617 607 q 571 635 594 635 q 507 599 533 635 q 458 481 481 564 q 442 383 442 418 q 453 339 442 353 q 490 325 465 325 q 553 361 526 325 q 601 481 579 397 z "},"¥":{"ha":1138,"x_min":150,"x_max":1236,"o":"m 1097 931 q 1197 891 1158 931 q 1236 790 1236 851 q 1233 760 1236 782 q 1181 661 1222 693 q 1086 629 1140 629 q 1025 640 1050 629 q 978 678 1000 651 l 864 529 l 942 529 q 985 517 971 529 q 1000 485 1000 506 q 997 465 1000 479 q 910 401 978 401 l 765 401 l 749 379 l 731 321 l 900 321 q 944 309 929 321 q 958 276 958 297 q 956 257 958 271 q 868 193 936 193 l 693 193 l 685 164 q 682 142 682 156 q 692 109 682 122 q 719 81 701 96 q 742 57 735 67 q 744 35 749 47 q 717 8 739 15 q 658 0 696 0 l 308 0 q 255 13 272 0 q 243 50 238 26 q 253 70 246 63 q 278 89 261 78 q 313 117 299 101 q 336 164 326 133 l 344 193 l 207 193 q 150 236 150 193 q 153 257 150 243 q 183 304 161 288 q 240 321 206 321 l 382 321 l 400 381 l 393 401 l 249 401 q 192 444 192 401 q 194 465 192 451 q 225 513 203 496 q 282 529 247 529 l 347 529 l 272 744 q 240 806 258 785 q 196 849 221 828 q 174 868 181 860 q 167 888 167 876 q 181 915 167 904 q 224 925 196 925 l 594 925 q 661 917 643 925 q 681 888 679 908 q 675 866 681 875 q 658 844 669 857 q 640 817 646 828 q 633 792 633 807 q 636 774 633 788 l 700 529 l 876 781 q 984 896 933 861 q 1097 931 1035 931 z "},"¦":{"ha":611,"x_min":3,"x_max":665,"o":"m 551 613 q 526 569 543 582 q 479 556 510 556 l 261 556 q 201 597 201 556 q 206 624 201 610 l 315 1007 q 340 1051 324 1038 q 388 1064 357 1064 l 606 1064 q 665 1022 665 1064 q 661 996 665 1011 l 551 613 m 353 -81 q 328 -124 344 -111 q 281 -137 311 -137 l 63 -137 q 3 -96 3 -137 q 7 -69 3 -85 l 117 314 q 142 358 125 344 q 189 371 158 371 l 407 371 q 467 329 467 371 q 463 303 467 318 l 353 -81 z "},"§":{"ha":1003,"x_min":97,"x_max":938,"o":"m 811 721 q 770 732 785 721 q 756 763 756 743 q 764 799 756 778 q 769 826 769 814 q 751 863 769 850 q 704 876 733 876 q 642 818 642 876 q 658 763 642 794 l 842 463 q 901 342 881 397 q 922 229 922 288 q 908 135 922 182 q 803 -24 883 49 q 608 -140 722 -97 q 374 -182 494 -182 q 228 -158 290 -182 q 131 -96 165 -135 q 97 -11 97 -57 q 135 73 97 43 q 224 103 172 103 q 265 92 250 103 q 279 61 279 81 q 271 25 279 46 q 265 -3 265 10 q 283 -40 265 -26 q 331 -53 301 -53 q 393 6 393 -53 q 376 61 393 31 l 193 361 q 133 481 154 426 q 113 594 113 536 q 126 689 113 642 q 232 848 151 775 q 426 963 313 921 q 661 1006 540 1006 q 807 982 744 1006 q 903 919 869 958 q 938 835 938 881 q 900 751 938 781 q 811 721 863 721 m 683 103 q 690 153 690 131 q 633 321 690 226 l 482 575 q 426 742 426 668 q 454 842 426 793 q 351 721 371 792 q 344 671 344 693 q 401 503 344 597 l 553 249 q 608 82 608 156 q 581 -18 608 31 q 683 103 664 32 z "},"¨":{"ha":639,"x_min":167,"x_max":750,"o":"m 313 1042 q 403 1006 367 1042 q 439 919 439 971 q 420 849 439 883 q 367 792 401 814 q 292 771 333 771 q 203 806 239 771 q 167 894 168 842 q 185 963 167 929 q 236 1019 203 997 q 313 1042 269 1042 m 624 1042 q 714 1006 678 1042 q 750 919 750 971 q 731 849 750 883 q 678 792 713 814 q 603 771 644 771 q 515 806 550 771 q 478 894 479 842 q 496 963 478 929 q 547 1019 514 997 q 624 1042 581 1042 z "},"©":{"ha":1090,"x_min":79,"x_max":1069,"o":"m 493 -17 q 275 35 369 -17 q 130 178 181 88 q 79 381 79 268 q 88 472 79 426 q 192 712 110 603 q 397 884 275 821 q 657 947 519 947 q 874 895 781 947 q 1019 753 968 843 q 1069 550 1069 663 q 1061 460 1069 506 q 956 219 1039 329 q 751 47 874 110 q 493 -17 629 -17 m 494 71 q 711 124 608 71 q 883 270 814 178 q 971 472 951 363 q 978 546 978 514 q 939 708 978 636 q 827 819 900 779 q 656 860 754 860 q 438 806 540 860 q 266 661 335 753 q 178 460 197 569 q 171 385 171 418 q 210 223 171 294 q 322 111 249 151 q 494 71 396 71 m 525 158 q 344 219 415 158 q 272 388 272 279 q 290 499 272 440 q 408 683 329 626 q 578 740 488 740 q 733 683 667 740 l 756 701 q 795 726 779 719 q 831 733 811 733 q 865 724 851 733 q 878 697 878 714 q 874 678 878 689 l 826 546 q 808 513 819 522 q 775 503 796 503 q 740 518 754 503 q 708 572 726 533 q 674 626 688 613 q 636 639 661 639 q 569 595 601 639 q 511 465 536 551 q 489 344 489 393 q 549 261 489 261 q 614 278 589 261 q 667 328 639 296 q 695 356 685 347 q 718 364 706 364 q 749 349 732 364 q 767 318 767 333 q 735 260 767 300 q 649 190 704 221 q 525 158 594 158 z "},"ª":{"ha":681,"x_min":58,"x_max":746,"o":"m 444 942 q 653 895 575 942 q 732 753 732 849 q 721 681 732 722 l 681 535 q 679 525 679 532 q 684 513 679 518 q 696 508 689 508 q 718 519 708 508 q 731 531 728 531 q 740 523 736 531 q 744 506 743 515 q 724 447 746 476 q 661 399 701 418 q 574 381 621 381 q 474 401 517 381 q 415 460 432 421 q 339 401 383 422 q 242 381 294 381 q 141 403 182 381 q 79 460 100 425 q 58 535 58 496 q 61 563 58 543 q 134 673 76 636 q 275 710 192 710 q 457 682 364 710 l 482 751 q 494 821 494 793 q 475 858 492 846 q 424 871 458 871 q 431 833 431 856 q 401 767 431 794 q 315 740 371 740 q 228 764 258 740 q 197 824 197 788 q 259 908 197 874 q 444 942 321 942 m 393 622 q 345 601 364 622 q 326 553 326 579 q 335 524 326 535 q 360 513 343 513 q 391 524 374 513 q 415 557 408 535 l 436 618 q 393 622 418 622 z "},"«":{"ha":763,"x_min":72,"x_max":763,"o":"m 339 329 q 367 292 357 308 q 376 258 376 275 q 355 212 376 232 q 307 192 333 192 q 246 225 274 192 l 113 386 q 81 427 90 413 q 72 458 72 442 q 85 495 72 479 q 126 533 97 511 l 311 672 q 336 688 325 683 q 361 692 347 692 q 403 672 386 692 q 421 629 421 653 q 418 613 421 624 q 401 582 413 594 q 363 549 389 569 l 233 451 l 339 329 m 703 692 q 744 672 725 692 q 763 628 763 651 q 760 613 763 624 q 742 581 754 594 q 704 549 729 567 l 529 426 l 631 332 q 667 267 667 299 q 644 217 667 240 q 594 194 622 194 q 543 221 569 194 l 401 361 q 369 399 379 382 q 360 432 360 415 q 372 470 360 454 q 415 508 385 486 l 653 672 q 703 692 681 692 z "},"¬":{"ha":957,"x_min":82,"x_max":950,"o":"m 872 668 q 930 653 910 668 q 950 610 950 638 q 946 583 950 599 l 875 335 q 836 269 863 292 q 774 247 810 247 q 716 267 738 247 q 694 321 694 286 q 700 357 694 332 l 739 499 l 158 499 q 101 513 121 499 q 82 556 82 528 q 86 583 82 569 q 126 646 96 624 q 201 668 157 668 l 872 668 z "},"­":{"ha":833,"x_min":169,"x_max":689,"o":"m 174 489 q 214 551 183 529 q 289 574 244 574 l 613 574 q 689 514 689 574 q 686 489 689 499 q 569 404 660 404 l 246 404 q 189 419 208 404 q 169 461 169 433 q 174 489 169 475 z "},"®":{"ha":718,"x_min":133,"x_max":749,"o":"m 390 403 q 256 432 314 403 q 165 513 197 461 q 133 626 133 564 q 139 678 133 654 q 204 811 153 750 q 331 908 256 872 q 492 944 407 944 q 626 915 568 944 q 717 835 685 886 q 749 722 749 785 q 743 671 749 693 q 678 536 729 597 q 551 439 626 475 q 390 403 475 403 m 393 461 q 536 497 469 461 q 643 591 603 532 q 683 718 683 650 q 631 840 683 793 q 490 886 579 886 q 347 851 414 886 q 239 757 279 815 q 199 631 199 699 q 251 508 199 556 q 393 461 304 461 m 604 739 q 529 683 588 688 q 571 643 571 679 l 568 626 l 564 606 l 563 599 q 572 588 563 588 q 587 585 583 588 q 589 576 590 583 q 567 548 586 561 q 515 535 549 535 q 471 547 488 535 q 454 583 454 560 q 457 604 454 590 l 463 632 l 465 644 q 436 661 465 661 l 421 661 l 400 590 q 399 583 399 588 q 409 564 399 572 q 418 550 419 556 q 410 541 417 543 q 392 539 404 539 l 283 539 q 261 554 258 539 q 274 567 263 560 q 290 590 286 575 l 344 776 q 346 788 346 781 q 340 802 346 794 q 338 817 335 810 q 344 824 339 822 q 363 826 350 826 l 507 826 q 580 807 553 826 q 607 757 607 788 q 604 739 607 750 m 493 743 q 494 758 494 749 q 488 777 494 772 q 469 782 482 782 l 451 782 l 432 704 l 450 704 q 477 713 467 704 q 493 743 488 721 z "},"¯":{"ha":553,"x_min":156,"x_max":658,"o":"m 158 871 q 189 918 167 901 q 246 935 211 935 l 600 935 q 644 923 629 935 q 658 890 658 911 q 656 871 658 885 q 568 807 636 807 l 213 807 q 156 850 156 807 q 158 871 156 857 z "},"°":{"ha":606,"x_min":122,"x_max":682,"o":"m 379 521 q 249 548 307 521 q 156 622 190 575 q 122 725 122 668 q 161 850 122 794 q 269 937 200 906 q 424 968 338 968 q 556 942 497 968 q 649 868 615 915 q 682 764 682 821 q 642 640 682 696 q 534 553 603 585 q 379 521 465 521 m 375 628 q 431 658 410 628 q 467 758 453 689 q 472 808 472 797 q 429 863 472 863 q 374 833 394 863 q 342 732 354 803 q 336 681 336 690 q 346 640 336 653 q 375 628 356 628 z "},"±":{"ha":888,"x_min":28,"x_max":860,"o":"m 792 589 q 860 536 860 589 q 857 514 860 531 q 753 439 833 439 l 540 439 l 493 263 l 711 263 q 763 249 746 263 q 781 213 781 236 q 778 193 781 207 q 675 124 754 124 l 97 124 q 46 136 64 124 q 28 171 28 149 q 32 193 28 181 q 67 244 40 226 q 133 263 93 263 l 332 263 l 379 439 l 175 439 q 124 452 142 439 q 107 489 107 465 q 111 514 107 500 q 147 569 121 550 q 214 589 174 589 l 419 589 l 461 743 q 494 801 471 782 q 550 821 518 821 q 601 803 582 821 q 619 756 619 786 q 615 724 619 740 l 579 589 l 792 589 z "},"²":{"ha":782,"x_min":113,"x_max":818,"o":"m 499 935 q 672 913 600 935 q 781 856 744 892 q 818 776 818 819 q 815 754 818 768 q 738 669 803 701 q 518 618 672 638 q 390 599 432 607 q 328 582 347 592 q 308 557 308 572 l 550 557 q 654 570 617 557 q 722 604 692 583 q 750 617 742 617 q 778 588 764 617 q 792 521 792 560 q 788 481 792 501 q 731 403 775 428 q 600 379 686 379 l 193 379 q 135 405 157 379 q 113 474 113 431 q 121 525 113 499 q 194 620 138 582 q 363 690 251 658 q 478 740 446 715 q 518 799 511 764 q 507 841 524 825 q 461 857 490 857 q 436 854 444 857 q 439 828 439 835 q 401 754 439 778 q 303 731 363 731 q 220 753 253 731 q 188 811 188 776 q 267 903 188 871 q 499 935 347 935 z "},"³":{"ha":792,"x_min":93,"x_max":857,"o":"m 853 732 q 809 676 844 699 q 717 644 774 653 q 826 538 826 608 q 734 418 826 461 q 442 375 642 375 q 182 416 271 375 q 93 518 93 457 q 133 592 93 567 q 240 618 172 618 q 335 594 299 618 q 374 533 372 571 q 357 481 376 507 q 421 472 386 472 q 481 488 457 472 q 514 533 506 503 q 517 557 517 542 q 438 611 517 611 q 396 622 411 611 q 381 651 381 632 q 398 689 381 678 q 449 700 415 700 q 515 714 493 701 q 547 757 538 726 q 550 781 550 774 q 528 828 550 813 q 476 844 507 844 q 440 842 451 844 q 446 808 446 819 q 414 749 446 771 q 319 726 382 726 q 213 751 253 726 q 172 814 172 776 q 252 901 172 868 q 494 935 332 935 q 686 911 604 935 q 813 848 768 888 q 857 760 857 808 q 853 732 857 747 z "},"´":{"ha":340,"x_min":143,"x_max":464,"o":"m 217 946 q 285 1031 250 1004 q 371 1057 321 1057 q 439 1034 414 1057 q 464 972 464 1011 q 436 900 464 931 q 346 839 408 869 l 225 781 q 181 769 199 769 q 153 778 164 769 q 143 803 143 786 q 157 844 143 821 l 217 946 z "},"µ":{"ha":951,"x_min":-87,"x_max":947,"o":"m 824 192 q 821 175 821 181 q 826 160 821 165 q 839 154 831 154 q 867 169 856 154 q 883 183 879 183 q 895 174 890 183 q 900 153 900 165 q 872 76 901 114 q 790 13 843 38 q 672 -12 738 -12 q 542 21 590 -12 q 479 108 493 54 q 303 1 404 22 l 276 -83 q 272 -104 272 -96 q 279 -128 272 -119 q 300 -147 286 -137 q 319 -167 314 -158 q 321 -189 325 -175 q 233 -245 313 -221 q 68 -269 154 -269 q -50 -239 -12 -269 q -87 -156 -87 -208 q -78 -94 -87 -124 l 119 549 q 124 569 124 561 q 117 594 124 585 q 96 613 110 603 q 76 632 82 624 q 75 654 71 640 q 163 710 83 686 q 328 735 242 735 q 446 704 408 735 q 483 621 483 674 q 474 560 483 589 l 383 265 l 386 271 q 381 242 381 256 q 392 213 381 222 q 421 203 403 203 q 464 218 447 203 q 497 269 481 233 l 582 549 q 586 569 586 561 q 579 594 586 585 q 560 613 572 603 q 540 632 546 624 q 539 654 535 640 q 625 710 546 686 q 790 735 704 735 q 909 704 871 735 q 947 622 947 674 q 936 560 947 596 l 824 192 z "},"¶":{"ha":847,"x_min":89,"x_max":994,"o":"m 933 925 q 978 915 963 925 q 994 890 994 906 q 990 872 994 883 q 978 854 986 860 q 956 839 971 849 q 919 810 933 825 q 896 763 906 796 l 664 -44 q 658 -81 658 -62 q 663 -106 658 -96 q 678 -131 668 -115 q 685 -141 679 -132 q 692 -160 692 -150 q 689 -174 692 -162 q 663 -201 682 -193 q 604 -208 643 -208 l 511 -208 q 479 -181 479 -208 q 481 -168 479 -172 l 744 746 q 746 757 746 750 q 738 775 746 768 q 714 782 729 782 l 701 782 q 672 774 682 782 q 657 747 663 767 l 390 -178 q 350 -208 382 -208 l 243 -208 q 198 -199 214 -208 q 182 -172 182 -189 q 186 -154 182 -165 q 221 -121 194 -136 q 257 -92 243 -108 q 281 -44 271 -76 l 371 271 l 308 271 q 147 332 206 271 q 89 497 89 393 q 108 625 89 554 q 255 851 151 776 q 499 925 358 925 l 933 925 z "},"·":{"ha":413,"x_min":90,"x_max":376,"o":"m 244 599 q 338 561 300 599 q 376 469 376 524 q 356 396 376 432 q 301 337 336 360 q 221 314 265 314 q 129 351 167 314 q 90 443 92 389 q 110 517 90 481 q 165 576 129 553 q 244 599 200 599 z "},"¸":{"ha":556,"x_min":-107,"x_max":392,"o":"m 297 58 l 256 -60 q 351 -95 311 -60 q 392 -183 392 -131 q 383 -229 392 -207 q 305 -316 364 -285 q 157 -347 246 -347 q 26 -325 88 -347 q -71 -269 -35 -303 q -107 -201 -107 -235 q -104 -185 -107 -196 q -85 -171 -99 -171 q -50 -185 -75 -171 q 88 -225 21 -225 q 169 -186 157 -225 q 171 -174 171 -182 q 158 -147 171 -156 q 126 -137 144 -137 q 89 -140 114 -137 q 54 -143 64 -143 q 26 -118 26 -143 q 29 -106 26 -114 l 89 61 l 297 58 z "},"¹":{"ha":508,"x_min":39,"x_max":543,"o":"m 438 933 q 489 938 472 938 q 528 926 514 938 q 543 892 543 915 q 539 864 543 879 l 436 514 q 441 485 432 497 q 469 460 450 472 q 504 418 504 439 q 483 389 504 399 q 414 379 463 379 l 81 379 q 49 388 58 379 q 39 411 39 397 q 53 440 39 429 q 94 463 67 450 q 137 486 121 475 q 157 515 153 497 l 229 763 q 231 775 231 767 q 220 801 231 790 q 192 822 210 811 q 167 842 175 833 q 158 863 158 850 q 210 903 158 894 l 438 933 z "},"º":{"ha":738,"x_min":92,"x_max":801,"o":"m 499 942 q 727 881 653 942 q 801 721 801 819 q 794 661 801 696 q 659 452 767 531 q 401 374 551 374 q 167 435 243 374 q 92 597 92 496 q 99 661 92 624 q 174 807 117 743 q 316 906 231 871 q 499 942 401 942 m 499 847 q 451 808 475 847 q 394 658 426 768 q 364 510 364 556 q 394 465 364 465 q 441 503 417 464 q 499 660 465 543 q 528 804 528 753 q 499 847 528 847 z "},"»":{"ha":763,"x_min":49,"x_max":739,"o":"m 699 500 q 730 459 721 474 q 739 428 739 444 q 726 391 739 407 q 685 353 714 375 l 500 214 q 475 199 486 203 q 450 194 464 194 q 408 214 425 194 q 390 257 390 233 q 393 274 390 263 q 410 304 399 292 q 449 338 422 317 l 578 435 l 472 557 q 444 594 454 578 q 435 628 435 611 q 456 674 435 654 q 504 694 478 694 q 565 661 538 694 l 699 500 m 451 454 q 439 416 451 432 q 396 378 426 400 l 158 214 q 108 194 131 194 q 67 215 86 194 q 49 258 49 235 q 51 274 49 263 q 69 306 57 292 q 107 338 82 319 l 282 460 l 181 554 q 144 619 144 588 q 167 669 144 647 q 217 692 190 692 q 268 665 242 692 l 410 525 q 442 488 432 504 q 451 454 451 471 z "},"¼":{"ha":1825,"x_min":136,"x_max":1781,"o":"m 535 933 q 586 938 569 938 q 626 926 611 938 q 640 892 640 915 q 636 864 640 879 l 533 514 q 538 485 529 497 q 567 460 547 472 q 601 418 601 439 q 581 389 601 399 q 511 379 560 379 l 178 379 q 146 388 156 379 q 136 411 136 397 q 150 440 136 429 q 192 463 164 450 q 234 486 218 475 q 254 515 250 497 l 326 763 q 328 775 328 767 q 317 801 328 790 q 289 822 307 811 q 264 842 272 833 q 256 863 256 850 q 307 903 256 894 l 535 933 m 1133 982 q 1170 1016 1150 1006 q 1218 1026 1190 1026 q 1259 1015 1244 1026 q 1274 985 1274 1004 q 1256 940 1274 964 l 515 -57 q 478 -91 499 -81 q 431 -101 458 -101 q 390 -90 404 -101 q 375 -60 375 -79 q 393 -15 375 -39 l 1133 982 m 1715 236 q 1765 224 1749 236 q 1776 192 1781 213 q 1753 160 1772 171 q 1697 150 1735 150 l 1635 150 l 1617 99 q 1613 79 1613 89 q 1626 49 1613 63 q 1640 28 1640 36 q 1624 6 1640 13 q 1574 0 1608 0 l 1318 0 q 1275 8 1289 0 q 1264 31 1261 17 q 1274 44 1267 39 q 1292 53 1282 49 q 1322 71 1311 63 q 1339 99 1332 79 l 1356 149 q 1151 136 1288 146 q 1007 128 1043 128 q 956 139 975 128 q 936 169 936 150 q 955 207 936 192 q 1010 240 974 222 q 1072 279 1050 263 q 1101 321 1093 296 q 1106 342 1106 332 q 1097 374 1106 360 q 1068 418 1089 389 q 1042 455 1051 439 q 1033 486 1033 471 q 1036 503 1033 497 q 1078 542 1047 529 q 1153 556 1108 556 q 1258 533 1207 556 q 1340 473 1308 511 q 1372 392 1372 435 q 1367 357 1372 374 q 1301 278 1349 307 q 1143 214 1253 250 q 1386 235 1250 233 l 1467 472 q 1498 513 1476 501 q 1564 524 1519 524 l 1683 524 q 1746 486 1746 524 q 1742 467 1746 478 l 1664 236 l 1715 236 z "},"½":{"ha":1706,"x_min":136,"x_max":1658,"o":"m 535 933 q 586 938 569 938 q 626 926 611 938 q 640 892 640 915 q 636 864 640 879 l 533 514 q 538 485 529 497 q 567 460 547 472 q 601 418 601 439 q 581 389 601 399 q 511 379 560 379 l 178 379 q 146 388 156 379 q 136 411 136 397 q 150 440 136 429 q 192 463 164 450 q 234 486 218 475 q 254 515 250 497 l 326 763 q 328 775 328 767 q 317 801 328 790 q 289 822 307 811 q 264 842 272 833 q 256 863 256 850 q 307 903 256 894 l 535 933 m 1133 982 q 1170 1016 1150 1006 q 1218 1026 1190 1026 q 1259 1015 1244 1026 q 1274 985 1274 1004 q 1256 940 1274 964 l 515 -57 q 478 -91 499 -81 q 431 -101 458 -101 q 390 -90 404 -101 q 375 -60 375 -79 q 393 -15 375 -39 l 1133 982 m 1339 556 q 1513 534 1440 556 q 1622 476 1585 513 q 1658 397 1658 440 q 1656 375 1658 389 q 1578 290 1643 322 q 1358 239 1513 258 q 1230 220 1272 228 q 1168 203 1188 213 q 1149 178 1149 193 l 1390 178 q 1494 191 1457 178 q 1563 225 1532 204 q 1590 238 1582 238 q 1618 209 1604 238 q 1632 142 1632 181 q 1628 101 1632 122 q 1571 24 1615 49 q 1440 0 1526 0 l 1033 0 q 975 26 997 0 q 953 94 953 51 q 961 146 953 119 q 1035 241 978 203 q 1203 311 1092 279 q 1319 360 1286 336 q 1358 419 1351 385 q 1347 462 1364 446 q 1301 478 1331 478 q 1276 475 1285 478 q 1279 449 1279 456 q 1241 375 1279 399 q 1143 351 1203 351 q 1060 374 1093 351 q 1028 432 1028 397 q 1108 524 1028 492 q 1339 556 1188 556 z "},"¾":{"ha":1932,"x_min":93,"x_max":1888,"o":"m 1240 982 q 1277 1016 1257 1006 q 1325 1026 1297 1026 q 1366 1015 1351 1026 q 1381 985 1381 1004 q 1363 940 1381 964 l 622 -57 q 585 -91 606 -81 q 538 -101 565 -101 q 497 -90 511 -101 q 482 -60 482 -79 q 500 -15 482 -39 l 1240 982 m 1822 236 q 1872 224 1856 236 q 1883 192 1888 213 q 1860 160 1879 171 q 1804 150 1842 150 l 1742 150 l 1724 99 q 1719 79 1719 89 q 1733 49 1719 63 q 1747 28 1747 36 q 1731 6 1747 13 q 1681 0 1715 0 l 1425 0 q 1382 8 1396 0 q 1371 31 1368 17 q 1381 44 1374 39 q 1399 53 1389 49 q 1428 71 1418 63 q 1446 99 1439 79 l 1463 149 q 1258 136 1394 146 q 1114 128 1150 128 q 1063 139 1082 128 q 1043 169 1043 150 q 1062 207 1043 192 q 1117 240 1081 222 q 1178 279 1157 263 q 1208 321 1200 296 q 1213 342 1213 332 q 1204 374 1213 360 q 1175 418 1196 389 q 1149 455 1158 439 q 1140 486 1140 471 q 1143 503 1140 497 q 1185 542 1154 529 q 1260 556 1215 556 q 1365 533 1314 556 q 1447 473 1415 511 q 1479 392 1479 435 q 1474 357 1479 374 q 1408 278 1456 307 q 1250 214 1360 250 q 1493 235 1357 233 l 1574 472 q 1605 513 1583 501 q 1671 524 1626 524 l 1790 524 q 1853 486 1853 524 q 1849 467 1853 478 l 1771 236 l 1822 236 m 853 732 q 809 676 844 699 q 717 644 774 653 q 826 538 826 608 q 734 418 826 461 q 442 375 642 375 q 182 416 271 375 q 93 518 93 457 q 133 592 93 567 q 240 618 172 618 q 335 594 299 618 q 374 533 372 571 q 357 481 376 507 q 421 472 386 472 q 481 488 457 472 q 514 533 506 503 q 517 557 517 542 q 438 611 517 611 q 396 622 411 611 q 381 651 381 632 q 398 689 381 678 q 449 700 415 700 q 515 714 493 701 q 547 757 538 726 q 550 781 550 774 q 528 828 550 813 q 476 844 507 844 q 440 842 451 844 q 446 808 446 819 q 414 749 446 771 q 319 726 382 726 q 213 751 253 726 q 172 814 172 776 q 252 901 172 868 q 494 935 332 935 q 686 911 604 935 q 813 848 768 888 q 857 760 857 808 q 853 732 857 747 z "},"¿":{"ha":940,"x_min":-21,"x_max":817,"o":"m 579 557 q 486 589 524 557 q 449 668 449 621 q 469 733 449 701 q 524 783 489 764 q 604 803 560 803 q 697 771 660 803 q 735 692 735 739 q 716 628 736 660 q 660 577 696 597 q 579 557 624 557 m 468 467 q 456 493 454 483 q 479 516 460 507 q 521 525 499 525 q 627 492 586 525 q 668 408 668 460 q 663 372 668 389 q 615 299 650 328 q 510 231 579 271 q 394 154 435 189 q 339 64 354 119 q 335 28 335 46 q 367 -44 335 -19 q 435 -69 399 -69 q 503 -58 474 -69 q 488 26 488 -18 q 492 64 488 47 q 547 146 507 117 q 650 175 588 175 q 771 134 725 175 q 817 29 817 93 q 811 -14 817 7 q 687 -151 790 -103 q 425 -199 583 -199 q 189 -156 290 -199 q 33 -41 88 -112 q -21 113 -21 31 q -14 168 -21 138 q 44 277 3 236 q 163 345 85 318 q 381 396 242 372 q 453 414 433 406 q 478 436 472 422 l 479 442 q 468 467 479 450 z "},"À":{"ha":969,"x_min":-57,"x_max":999,"o":"m 849 164 q 843 128 843 146 q 847 102 843 113 q 856 85 851 92 q 863 76 861 79 q 876 49 876 63 q 874 35 876 46 q 849 8 868 15 q 792 0 831 0 l 463 0 q 417 10 433 0 q 401 36 401 19 q 406 54 401 44 q 417 72 410 65 q 439 86 425 78 q 475 114 461 99 q 499 164 489 129 l 535 283 l 318 283 l 281 204 q 257 124 257 153 q 263 97 257 107 q 279 75 268 86 q 292 56 289 64 q 293 36 296 49 q 270 8 288 15 q 215 0 253 0 l 8 0 q -40 12 -24 0 q -57 43 -57 24 q -41 78 -57 65 q 7 107 -25 92 q 74 148 49 128 q 117 204 99 168 l 364 717 q 498 890 421 836 q 701 943 575 943 q 921 885 843 943 q 999 725 999 828 q 985 636 999 682 l 849 164 m 576 422 l 650 667 q 656 701 656 683 q 641 741 656 728 q 600 754 626 754 q 543 735 567 754 q 496 665 519 715 l 382 422 l 576 422 m 806 1046 q 811 1017 811 1031 q 801 989 811 1000 q 776 978 792 978 q 744 984 760 978 q 710 1006 729 990 l 629 1068 q 573 1125 590 1100 q 556 1182 556 1150 q 580 1243 556 1219 q 647 1267 604 1267 q 722 1240 692 1267 q 771 1156 751 1214 l 806 1046 z "},"Á":{"ha":969,"x_min":-57,"x_max":1061,"o":"m 849 164 q 843 128 843 146 q 847 102 843 113 q 856 85 851 92 q 863 76 861 79 q 876 49 876 63 q 874 35 876 46 q 849 8 868 15 q 792 0 831 0 l 463 0 q 417 10 433 0 q 401 36 401 19 q 406 54 401 44 q 417 72 410 65 q 439 86 425 78 q 475 114 461 99 q 499 164 489 129 l 535 283 l 318 283 l 281 204 q 257 124 257 153 q 263 97 257 107 q 279 75 268 86 q 292 56 289 64 q 293 36 296 49 q 270 8 288 15 q 215 0 253 0 l 8 0 q -40 12 -24 0 q -57 43 -57 24 q -41 78 -57 65 q 7 107 -25 92 q 74 148 49 128 q 117 204 99 168 l 364 717 q 498 890 421 836 q 701 943 575 943 q 921 885 843 943 q 999 725 999 828 q 985 636 999 682 l 849 164 m 576 422 l 650 667 q 656 701 656 683 q 641 741 656 728 q 600 754 626 754 q 543 735 567 754 q 496 665 519 715 l 382 422 l 576 422 m 814 1156 q 883 1240 847 1214 q 968 1267 918 1267 q 1036 1244 1011 1267 q 1061 1182 1061 1221 q 1033 1110 1061 1140 q 943 1049 1006 1079 l 822 990 q 778 979 796 979 q 751 988 761 979 q 740 1013 740 996 q 754 1054 740 1031 l 814 1156 z "},"Â":{"ha":969,"x_min":-57,"x_max":999,"o":"m 849 164 q 843 128 843 146 q 847 102 843 113 q 856 85 851 92 q 863 76 861 79 q 876 49 876 63 q 874 35 876 46 q 849 8 868 15 q 792 0 831 0 l 463 0 q 417 10 433 0 q 401 36 401 19 q 406 54 401 44 q 417 72 410 65 q 439 86 425 78 q 475 114 461 99 q 499 164 489 129 l 535 283 l 318 283 l 281 204 q 257 124 257 153 q 263 97 257 107 q 279 75 268 86 q 292 56 289 64 q 293 36 296 49 q 270 8 288 15 q 215 0 253 0 l 8 0 q -40 12 -24 0 q -57 43 -57 24 q -41 78 -57 65 q 7 107 -25 92 q 74 148 49 128 q 117 204 99 168 l 364 717 q 498 890 421 836 q 701 943 575 943 q 921 885 843 943 q 999 725 999 828 q 985 636 999 682 l 849 164 m 576 422 l 650 667 q 656 701 656 683 q 641 741 656 728 q 600 754 626 754 q 543 735 567 754 q 496 665 519 715 l 382 422 l 576 422 m 986 1074 q 996 1029 996 1050 q 981 990 996 1004 q 943 976 965 976 q 881 1001 911 976 q 815 1074 851 1025 l 804 1088 l 743 1047 q 596 986 647 986 q 568 996 578 986 q 558 1021 558 1006 q 590 1083 558 1051 l 732 1217 q 788 1256 758 1242 q 843 1271 817 1271 q 925 1211 899 1271 l 986 1074 z "},"Ã":{"ha":969,"x_min":-57,"x_max":1007,"o":"m 849 164 q 843 128 843 146 q 847 102 843 113 q 856 85 851 92 q 863 76 861 79 q 876 49 876 63 q 874 35 876 46 q 849 8 868 15 q 792 0 831 0 l 463 0 q 417 10 433 0 q 401 36 401 19 q 406 54 401 44 q 417 72 410 65 q 439 86 425 78 q 475 114 461 99 q 499 164 489 129 l 535 283 l 318 283 l 281 204 q 257 124 257 153 q 263 97 257 107 q 279 75 268 86 q 292 56 289 64 q 293 36 296 49 q 270 8 288 15 q 215 0 253 0 l 8 0 q -40 12 -24 0 q -57 43 -57 24 q -41 78 -57 65 q 7 107 -25 92 q 74 148 49 128 q 117 204 99 168 l 364 717 q 498 890 421 836 q 701 943 575 943 q 921 885 843 943 q 999 725 999 828 q 985 636 999 682 l 849 164 m 576 422 l 650 667 q 656 701 656 683 q 641 741 656 728 q 600 754 626 754 q 543 735 567 754 q 496 665 519 715 l 382 422 l 576 422 m 821 992 q 769 1001 793 992 q 714 1031 746 1011 q 694 1042 710 1033 q 667 1054 679 1050 q 644 1058 654 1058 q 613 1050 626 1058 q 582 1026 599 1042 q 570 1017 579 1024 q 554 1010 561 1010 q 540 1022 544 1010 q 535 1056 535 1035 q 540 1100 535 1078 q 608 1205 557 1165 q 721 1244 658 1244 q 769 1235 746 1244 q 825 1207 793 1225 q 867 1185 851 1192 q 897 1178 882 1178 q 929 1186 915 1178 q 960 1210 943 1194 q 972 1219 963 1213 q 988 1226 981 1226 q 1001 1214 996 1226 q 1007 1183 1007 1201 q 1000 1136 1007 1164 q 934 1031 985 1071 q 821 992 883 992 z "},"Ä":{"ha":969,"x_min":-57,"x_max":1085,"o":"m 849 164 q 843 128 843 146 q 847 102 843 113 q 856 85 851 92 q 863 76 861 79 q 876 49 876 63 q 874 35 876 46 q 849 8 868 15 q 792 0 831 0 l 463 0 q 417 10 433 0 q 401 36 401 19 q 406 54 401 44 q 417 72 410 65 q 439 86 425 78 q 475 114 461 99 q 499 164 489 129 l 535 283 l 318 283 l 281 204 q 257 124 257 153 q 263 97 257 107 q 279 75 268 86 q 292 56 289 64 q 293 36 296 49 q 270 8 288 15 q 215 0 253 0 l 8 0 q -40 12 -24 0 q -57 43 -57 24 q -41 78 -57 65 q 7 107 -25 92 q 74 148 49 128 q 117 204 99 168 l 364 717 q 498 890 421 836 q 701 943 575 943 q 921 885 843 943 q 999 725 999 828 q 985 636 999 682 l 849 164 m 576 422 l 650 667 q 656 701 656 683 q 641 741 656 728 q 600 754 626 754 q 543 735 567 754 q 496 665 519 715 l 382 422 l 576 422 m 647 1251 q 738 1216 701 1251 q 774 1129 774 1181 q 755 1058 774 1093 q 702 1002 736 1024 q 626 981 668 981 q 538 1016 574 981 q 501 1104 503 1051 q 519 1173 501 1139 q 571 1229 538 1207 q 647 1251 604 1251 m 958 1251 q 1049 1216 1013 1251 q 1085 1129 1085 1181 q 1066 1058 1085 1093 q 1013 1002 1047 1024 q 938 981 979 981 q 849 1016 885 981 q 813 1104 814 1051 q 831 1173 813 1139 q 882 1229 849 1207 q 958 1251 915 1251 z "},"Å":{"ha":969,"x_min":-57,"x_max":999,"o":"m 849 164 q 843 128 843 146 q 847 102 843 113 q 856 85 851 92 q 863 76 861 79 q 876 49 876 63 q 874 35 876 46 q 849 8 868 15 q 792 0 831 0 l 463 0 q 417 10 433 0 q 401 36 401 19 q 406 54 401 44 q 417 72 410 65 q 439 86 425 78 q 475 114 461 99 q 499 164 489 129 l 535 283 l 318 283 l 281 204 q 257 124 257 153 q 263 97 257 107 q 279 75 268 86 q 292 56 289 64 q 293 36 296 49 q 270 8 288 15 q 215 0 253 0 l 8 0 q -40 12 -24 0 q -57 43 -57 24 q -41 78 -57 65 q 7 107 -25 92 q 74 148 49 128 q 117 204 99 168 l 364 717 q 498 890 421 836 q 701 943 575 943 q 921 885 843 943 q 999 725 999 828 q 985 636 999 682 l 849 164 m 576 422 l 650 667 q 656 701 656 683 q 641 741 656 728 q 600 754 626 754 q 543 735 567 754 q 496 665 519 715 l 382 422 l 576 422 m 800 981 q 689 1019 733 981 q 643 1115 644 1058 q 695 1230 643 1185 q 826 1275 747 1275 q 940 1238 894 1275 q 985 1143 985 1200 q 932 1027 985 1074 q 800 981 879 981 m 796 1056 q 826 1074 814 1056 q 847 1136 838 1093 q 853 1174 853 1167 q 832 1200 853 1200 q 802 1181 814 1200 q 782 1121 790 1163 q 776 1082 776 1088 q 796 1056 776 1056 z "},"Æ":{"ha":1369,"x_min":-57,"x_max":1453,"o":"m 1344 925 q 1424 903 1396 925 q 1453 842 1453 881 q 1447 804 1453 822 l 1411 675 q 1383 623 1401 638 q 1329 608 1364 608 q 1277 623 1296 608 q 1249 671 1258 638 l 1226 750 q 1210 783 1219 775 q 1172 792 1200 792 l 1028 792 l 957 544 l 1018 544 q 1044 558 1028 544 l 1092 600 q 1128 626 1113 618 q 1165 635 1143 635 q 1206 622 1190 635 q 1222 588 1222 608 q 1219 571 1222 582 l 1163 378 q 1134 333 1154 347 q 1090 318 1114 318 q 1032 358 1051 318 l 1008 407 q 978 428 999 428 l 924 428 l 840 133 l 964 133 q 1010 144 990 133 q 1054 181 1031 154 l 1138 272 q 1180 306 1160 296 q 1229 317 1200 317 q 1279 303 1260 317 q 1299 261 1299 289 q 1294 235 1299 250 l 1254 94 q 1210 21 1239 42 q 1125 0 1181 0 l 463 0 q 417 10 433 0 q 401 36 401 19 q 406 54 401 44 q 417 72 410 65 q 439 86 425 78 q 475 114 461 99 q 499 164 489 129 l 535 283 l 318 283 l 281 204 q 257 124 257 153 q 263 97 257 107 q 279 74 268 86 q 292 56 289 64 q 293 36 296 49 q 270 8 288 15 q 215 0 253 0 l 8 0 q -40 12 -24 0 q -57 43 -57 24 q -42 78 -57 65 q 6 107 -26 92 q 73 148 47 128 q 117 204 99 168 l 358 699 q 447 836 403 788 q 549 905 490 885 q 696 925 607 925 l 1344 925 m 576 422 l 646 656 q 651 690 651 672 q 637 730 651 717 q 596 743 622 743 q 539 724 563 743 q 492 654 515 704 l 383 422 l 576 422 z "},"Ç":{"ha":961,"x_min":71,"x_max":1057,"o":"m 981 928 q 1036 913 1015 928 q 1057 868 1057 897 q 1051 838 1057 853 l 974 621 q 944 568 961 583 q 892 553 926 553 q 833 578 856 553 q 781 667 810 604 q 726 753 747 732 q 665 774 706 774 q 556 703 608 774 q 460 493 503 633 q 424 296 424 375 q 450 192 424 226 q 521 158 476 158 q 628 188 586 158 q 715 267 671 217 q 760 312 743 297 q 797 326 778 326 q 850 301 822 326 q 876 251 878 276 q 833 165 878 224 q 710 55 789 106 q 529 -6 631 4 l 510 -60 q 606 -95 565 -60 q 646 -183 646 -131 q 638 -229 646 -207 q 559 -316 618 -285 q 411 -347 500 -347 q 281 -325 342 -347 q 183 -269 219 -303 q 147 -201 147 -235 q 150 -185 147 -196 q 169 -171 156 -171 q 204 -185 179 -171 q 342 -225 275 -225 q 424 -186 411 -225 q 425 -174 425 -182 q 412 -147 425 -156 q 381 -137 399 -137 q 343 -140 368 -137 q 308 -143 318 -143 q 281 -118 281 -143 q 283 -106 281 -114 l 326 14 q 140 141 208 51 q 71 365 71 231 q 100 546 71 449 q 293 847 164 754 q 569 939 422 939 q 710 915 649 939 q 822 847 771 892 l 860 876 q 923 917 897 906 q 981 928 949 928 z "},"È":{"ha":932,"x_min":-36,"x_max":1015,"o":"m 907 925 q 987 903 958 925 q 1015 842 1015 881 q 1010 804 1015 822 l 974 675 q 945 623 964 638 q 892 608 926 608 q 840 623 858 608 q 811 671 821 638 l 789 750 q 772 783 782 775 q 735 792 763 792 l 589 792 l 519 544 l 581 544 q 607 558 590 544 l 654 600 q 690 626 675 618 q 728 635 706 635 q 769 622 753 635 q 785 588 785 608 q 782 571 785 582 l 725 378 q 697 333 717 347 q 653 318 676 318 q 594 358 614 318 l 571 407 q 540 428 561 428 l 486 428 l 404 133 l 526 133 q 573 144 553 133 q 617 181 593 154 l 700 272 q 742 306 722 296 q 792 317 763 317 q 842 303 822 317 q 861 261 861 289 q 857 235 861 250 l 817 94 q 772 21 801 42 q 688 0 743 0 l 25 0 q -20 10 -4 0 q -36 36 -36 19 q -32 54 -36 44 q -14 78 -26 69 q 1 88 -1 86 q 38 116 24 101 q 61 164 51 131 l 232 763 q 238 796 238 781 q 233 824 238 813 q 218 847 228 835 q 206 876 206 865 q 208 892 206 881 q 233 917 214 910 q 290 925 253 925 l 907 925 m 672 1046 q 678 1017 678 1031 q 668 989 678 1000 q 643 978 658 978 q 611 984 626 978 q 576 1006 596 990 l 496 1068 q 440 1125 457 1100 q 422 1182 422 1150 q 447 1243 422 1219 q 514 1267 471 1267 q 588 1240 558 1267 q 638 1156 618 1214 l 672 1046 z "},"É":{"ha":932,"x_min":-36,"x_max":1015,"o":"m 907 925 q 987 903 958 925 q 1015 842 1015 881 q 1010 804 1015 822 l 974 675 q 945 623 964 638 q 892 608 926 608 q 840 623 858 608 q 811 671 821 638 l 789 750 q 772 783 782 775 q 735 792 763 792 l 589 792 l 519 544 l 581 544 q 607 558 590 544 l 654 600 q 690 626 675 618 q 728 635 706 635 q 769 622 753 635 q 785 588 785 608 q 782 571 785 582 l 725 378 q 697 333 717 347 q 653 318 676 318 q 594 358 614 318 l 571 407 q 540 428 561 428 l 486 428 l 404 133 l 526 133 q 573 144 553 133 q 617 181 593 154 l 700 272 q 742 306 722 296 q 792 317 763 317 q 842 303 822 317 q 861 261 861 289 q 857 235 861 250 l 817 94 q 772 21 801 42 q 688 0 743 0 l 25 0 q -20 10 -4 0 q -36 36 -36 19 q -32 54 -36 44 q -14 78 -26 69 q 1 88 -1 86 q 38 116 24 101 q 61 164 51 131 l 232 763 q 238 796 238 781 q 233 824 238 813 q 218 847 228 835 q 206 876 206 865 q 208 892 206 881 q 233 917 214 910 q 290 925 253 925 l 907 925 m 681 1156 q 749 1240 714 1214 q 835 1267 785 1267 q 903 1244 878 1267 q 928 1182 928 1221 q 900 1110 928 1140 q 810 1049 872 1079 l 689 990 q 644 979 663 979 q 617 988 628 979 q 607 1013 607 996 q 621 1054 607 1031 l 681 1156 z "},"Ê":{"ha":932,"x_min":-36,"x_max":1015,"o":"m 907 925 q 987 903 958 925 q 1015 842 1015 881 q 1010 804 1015 822 l 974 675 q 945 623 964 638 q 892 608 926 608 q 840 623 858 608 q 811 671 821 638 l 789 750 q 772 783 782 775 q 735 792 763 792 l 589 792 l 519 544 l 581 544 q 607 558 590 544 l 654 600 q 690 626 675 618 q 728 635 706 635 q 769 622 753 635 q 785 588 785 608 q 782 571 785 582 l 725 378 q 697 333 717 347 q 653 318 676 318 q 594 358 614 318 l 571 407 q 540 428 561 428 l 486 428 l 404 133 l 526 133 q 573 144 553 133 q 617 181 593 154 l 700 272 q 742 306 722 296 q 792 317 763 317 q 842 303 822 317 q 861 261 861 289 q 857 235 861 250 l 817 94 q 772 21 801 42 q 688 0 743 0 l 25 0 q -20 10 -4 0 q -36 36 -36 19 q -32 54 -36 44 q -14 78 -26 69 q 1 88 -1 86 q 38 116 24 101 q 61 164 51 131 l 232 763 q 238 796 238 781 q 233 824 238 813 q 218 847 228 835 q 206 876 206 865 q 208 892 206 881 q 233 917 214 910 q 290 925 253 925 l 907 925 m 853 1074 q 863 1029 863 1050 q 847 990 863 1004 q 810 976 832 976 q 748 1001 778 976 q 682 1074 718 1025 l 671 1088 l 610 1047 q 463 986 514 986 q 435 996 444 986 q 425 1021 425 1006 q 457 1083 425 1051 l 599 1217 q 654 1256 625 1242 q 710 1271 683 1271 q 792 1211 765 1271 l 853 1074 z "},"Ë":{"ha":932,"x_min":-36,"x_max":1015,"o":"m 907 925 q 987 903 958 925 q 1015 842 1015 881 q 1010 804 1015 822 l 974 675 q 945 623 964 638 q 892 608 926 608 q 840 623 858 608 q 811 671 821 638 l 789 750 q 772 783 782 775 q 735 792 763 792 l 589 792 l 519 544 l 581 544 q 607 558 590 544 l 654 600 q 690 626 675 618 q 728 635 706 635 q 769 622 753 635 q 785 588 785 608 q 782 571 785 582 l 725 378 q 697 333 717 347 q 653 318 676 318 q 594 358 614 318 l 571 407 q 540 428 561 428 l 486 428 l 404 133 l 526 133 q 573 144 553 133 q 617 181 593 154 l 700 272 q 742 306 722 296 q 792 317 763 317 q 842 303 822 317 q 861 261 861 289 q 857 235 861 250 l 817 94 q 772 21 801 42 q 688 0 743 0 l 25 0 q -20 10 -4 0 q -36 36 -36 19 q -32 54 -36 44 q -14 78 -26 69 q 1 88 -1 86 q 38 116 24 101 q 61 164 51 131 l 232 763 q 238 796 238 781 q 233 824 238 813 q 218 847 228 835 q 206 876 206 865 q 208 892 206 881 q 233 917 214 910 q 290 925 253 925 l 907 925 m 514 1251 q 604 1216 568 1251 q 640 1129 640 1181 q 622 1058 640 1093 q 569 1002 603 1024 q 493 981 535 981 q 405 1016 440 981 q 368 1104 369 1051 q 386 1173 368 1139 q 438 1229 404 1207 q 514 1251 471 1251 m 825 1251 q 915 1216 879 1251 q 951 1129 951 1181 q 933 1058 951 1093 q 880 1002 914 1024 q 804 981 846 981 q 716 1016 751 981 q 679 1104 681 1051 q 697 1173 679 1139 q 749 1229 715 1207 q 825 1251 782 1251 z "},"Ì":{"ha":561,"x_min":-36,"x_max":678,"o":"m 617 925 q 662 916 646 925 q 678 890 678 907 q 674 872 678 883 q 662 855 669 863 q 648 844 654 847 q 639 838 642 840 q 603 810 617 825 q 579 763 589 794 l 411 164 q 406 129 406 146 q 410 101 406 113 q 425 78 415 90 q 438 49 438 60 q 435 35 438 46 q 410 8 429 15 q 351 0 390 0 l 25 0 q -20 10 -4 0 q -36 36 -36 19 q -32 54 -36 44 q -14 78 -26 69 q 1 88 -1 86 q 38 116 24 101 q 61 164 51 131 l 231 763 q 236 797 236 781 q 231 823 236 813 q 218 847 226 833 q 206 876 206 865 q 208 892 206 881 q 233 917 214 910 q 290 925 251 925 l 617 925 m 506 1046 q 511 1017 511 1031 q 501 989 511 1000 q 476 978 492 978 q 444 984 460 978 q 410 1006 429 990 l 329 1068 q 273 1125 290 1100 q 256 1182 256 1150 q 280 1243 256 1219 q 347 1267 304 1267 q 422 1240 392 1267 q 471 1156 451 1214 l 506 1046 z "},"Í":{"ha":561,"x_min":-36,"x_max":761,"o":"m 617 925 q 662 916 646 925 q 678 890 678 907 q 674 872 678 883 q 662 855 669 863 q 648 844 654 847 q 639 838 642 840 q 603 810 617 825 q 579 763 589 794 l 411 164 q 406 129 406 146 q 410 101 406 113 q 425 78 415 90 q 438 49 438 60 q 435 35 438 46 q 410 8 429 15 q 351 0 390 0 l 25 0 q -20 10 -4 0 q -36 36 -36 19 q -32 54 -36 44 q -14 78 -26 69 q 1 88 -1 86 q 38 116 24 101 q 61 164 51 131 l 231 763 q 236 797 236 781 q 231 823 236 813 q 218 847 226 833 q 206 876 206 865 q 208 892 206 881 q 233 917 214 910 q 290 925 251 925 l 617 925 m 514 1156 q 583 1240 547 1214 q 668 1267 618 1267 q 736 1244 711 1267 q 761 1182 761 1221 q 733 1110 761 1140 q 643 1049 706 1079 l 522 990 q 478 979 496 979 q 451 988 461 979 q 440 1013 440 996 q 454 1054 440 1031 l 514 1156 z "},"Î":{"ha":561,"x_min":-36,"x_max":696,"o":"m 617 925 q 662 916 646 925 q 678 890 678 907 q 674 872 678 883 q 662 855 669 863 q 648 844 654 847 q 639 838 642 840 q 603 810 617 825 q 579 763 589 794 l 411 164 q 406 129 406 146 q 410 101 406 113 q 425 78 415 90 q 438 49 438 60 q 435 35 438 46 q 410 8 429 15 q 351 0 390 0 l 25 0 q -20 10 -4 0 q -36 36 -36 19 q -32 54 -36 44 q -14 78 -26 69 q 1 88 -1 86 q 38 116 24 101 q 61 164 51 131 l 231 763 q 236 797 236 781 q 231 823 236 813 q 218 847 226 833 q 206 876 206 865 q 208 892 206 881 q 233 917 214 910 q 290 925 251 925 l 617 925 m 686 1074 q 696 1029 696 1050 q 681 990 696 1004 q 643 976 665 976 q 581 1001 611 976 q 515 1074 551 1025 l 504 1088 l 443 1047 q 296 986 347 986 q 268 996 278 986 q 258 1021 258 1006 q 290 1083 258 1051 l 432 1217 q 488 1256 458 1242 q 543 1271 517 1271 q 625 1211 599 1271 l 686 1074 z "},"Ï":{"ha":561,"x_min":-36,"x_max":785,"o":"m 617 925 q 662 916 646 925 q 678 890 678 907 q 674 872 678 883 q 662 855 669 863 q 648 844 654 847 q 639 838 642 840 q 603 810 617 825 q 579 763 589 794 l 411 164 q 406 129 406 146 q 410 101 406 113 q 425 78 415 90 q 438 49 438 60 q 435 35 438 46 q 410 8 429 15 q 351 0 390 0 l 25 0 q -20 10 -4 0 q -36 36 -36 19 q -32 54 -36 44 q -14 78 -26 69 q 1 88 -1 86 q 38 116 24 101 q 61 164 51 131 l 231 763 q 236 797 236 781 q 231 823 236 813 q 218 847 226 833 q 206 876 206 865 q 208 892 206 881 q 233 917 214 910 q 290 925 251 925 l 617 925 m 347 1251 q 438 1216 401 1251 q 474 1129 474 1181 q 455 1058 474 1093 q 402 1002 436 1024 q 326 981 368 981 q 238 1016 274 981 q 201 1104 203 1051 q 219 1173 201 1139 q 271 1229 238 1207 q 347 1251 304 1251 m 658 1251 q 749 1216 713 1251 q 785 1129 785 1181 q 766 1058 785 1093 q 713 1002 747 1024 q 638 981 679 981 q 549 1016 585 981 q 513 1104 514 1051 q 531 1173 513 1139 q 582 1229 549 1207 q 658 1251 615 1251 z "},"Ð":{"ha":1056,"x_min":-53,"x_max":1068,"o":"m 649 925 q 963 845 857 925 q 1068 611 1068 765 q 1040 435 1068 535 q 917 179 994 274 q 712 42 839 85 q 386 0 585 -1 l 8 1 q -37 11 -21 1 q -53 38 -53 21 q -49 56 -53 46 q -37 74 -44 68 q -14 89 -29 79 q 22 117 8 101 q 44 165 35 132 l 107 386 l 53 382 q 10 392 25 381 q -4 425 -4 403 q -1 446 -4 432 q 86 510 14 503 l 143 515 l 214 763 q 219 797 219 781 q 215 823 219 813 q 201 847 210 833 q 189 876 189 865 q 192 892 189 881 q 216 917 197 910 q 274 925 235 925 l 649 925 m 685 465 q 721 671 721 596 q 690 772 721 744 q 603 800 660 800 l 572 800 l 501 546 l 576 553 q 620 542 606 554 q 635 508 635 531 q 632 489 635 503 q 601 443 622 458 q 544 425 581 428 l 467 418 l 385 125 l 418 125 q 526 152 482 125 q 607 252 569 179 q 685 465 644 325 z "},"Ñ":{"ha":1010,"x_min":-32,"x_max":1139,"o":"m 1082 925 q 1139 889 1139 925 q 1138 875 1139 879 q 1125 853 1133 861 q 1101 836 1117 846 q 1067 808 1081 824 q 1043 761 1053 793 l 871 144 q 812 28 847 61 q 714 -6 776 -6 q 622 27 658 -6 q 553 128 585 60 l 343 569 l 226 164 q 222 132 222 146 q 228 102 222 114 q 246 78 235 90 q 261 47 261 60 q 260 35 261 39 q 235 8 254 15 q 176 0 215 0 l 25 0 q -32 36 -32 0 q -31 50 -32 46 q -18 72 -26 64 q 6 89 -10 79 q 40 117 26 101 q 64 164 54 132 l 240 788 l 218 833 q 204 882 204 861 q 260 925 204 925 l 465 925 q 533 905 510 925 q 582 833 556 885 l 785 426 l 881 761 q 885 793 885 781 q 878 823 885 811 q 861 847 872 835 q 846 878 846 865 q 847 890 846 886 q 872 917 853 910 q 931 925 892 925 l 1082 925 m 744 992 q 693 1001 717 992 q 638 1031 669 1011 q 618 1042 633 1033 q 590 1054 603 1050 q 568 1058 578 1058 q 536 1050 550 1058 q 506 1026 522 1042 q 494 1017 503 1024 q 478 1010 485 1010 q 463 1022 468 1010 q 458 1056 458 1035 q 464 1100 458 1078 q 531 1205 481 1165 q 644 1244 582 1244 q 693 1235 669 1244 q 749 1207 717 1225 q 790 1185 775 1192 q 821 1178 806 1178 q 853 1186 839 1178 q 883 1210 867 1194 q 895 1219 886 1213 q 911 1226 904 1226 q 925 1214 919 1226 q 931 1183 931 1201 q 924 1136 931 1164 q 858 1031 908 1071 q 744 992 807 992 z "},"Ò":{"ha":1018,"x_min":56,"x_max":1049,"o":"m 676 946 q 950 863 851 946 q 1049 625 1049 781 q 1026 467 1049 551 q 897 203 985 311 q 689 39 810 94 q 426 -17 568 -17 q 154 66 253 -17 q 56 304 56 149 q 79 467 56 375 q 206 728 119 621 q 413 891 293 836 q 676 946 533 946 m 651 810 q 576 776 610 810 q 510 667 543 743 q 440 457 478 592 q 385 189 385 263 q 400 126 385 146 q 449 107 415 107 q 524 141 490 107 q 589 250 557 175 q 660 457 621 325 q 714 726 714 649 q 699 790 714 771 q 651 810 683 810 m 732 1046 q 738 1017 738 1031 q 728 989 738 1000 q 703 978 718 978 q 671 984 686 978 q 636 1006 656 990 l 556 1068 q 499 1125 517 1100 q 482 1182 482 1150 q 506 1243 482 1219 q 574 1267 531 1267 q 648 1240 618 1267 q 697 1156 678 1214 l 732 1046 z "},"Ó":{"ha":1018,"x_min":56,"x_max":1049,"o":"m 676 946 q 950 863 851 946 q 1049 625 1049 781 q 1026 467 1049 551 q 897 203 985 311 q 689 39 810 94 q 426 -17 568 -17 q 154 66 253 -17 q 56 304 56 149 q 79 467 56 375 q 206 728 119 621 q 413 891 293 836 q 676 946 533 946 m 651 810 q 576 776 610 810 q 510 667 543 743 q 440 457 478 592 q 385 189 385 263 q 400 126 385 146 q 449 107 415 107 q 524 141 490 107 q 589 250 557 175 q 660 457 621 325 q 714 726 714 649 q 699 790 714 771 q 651 810 683 810 m 740 1156 q 809 1240 774 1214 q 894 1267 844 1267 q 963 1244 938 1267 q 988 1182 988 1221 q 960 1110 988 1140 q 869 1049 932 1079 l 749 990 q 704 979 722 979 q 677 988 688 979 q 667 1013 667 996 q 681 1054 667 1031 l 740 1156 z "},"Ô":{"ha":1018,"x_min":56,"x_max":1049,"o":"m 676 946 q 950 863 851 946 q 1049 625 1049 781 q 1026 467 1049 551 q 897 203 985 311 q 689 39 810 94 q 426 -17 568 -17 q 154 66 253 -17 q 56 304 56 149 q 79 467 56 375 q 206 728 119 621 q 413 891 293 836 q 676 946 533 946 m 651 810 q 576 776 610 810 q 510 667 543 743 q 440 457 478 592 q 385 189 385 263 q 400 126 385 146 q 449 107 415 107 q 524 141 490 107 q 589 250 557 175 q 660 457 621 325 q 714 726 714 649 q 699 790 714 771 q 651 810 683 810 m 913 1074 q 922 1029 922 1050 q 907 990 922 1004 q 869 976 892 976 q 808 1001 838 976 q 742 1074 778 1025 l 731 1088 l 669 1047 q 522 986 574 986 q 494 996 504 986 q 485 1021 485 1006 q 517 1083 485 1051 l 658 1217 q 714 1256 685 1242 q 769 1271 743 1271 q 851 1211 825 1271 l 913 1074 z "},"Õ":{"ha":1018,"x_min":56,"x_max":1049,"o":"m 676 946 q 950 863 851 946 q 1049 625 1049 781 q 1026 467 1049 551 q 897 203 985 311 q 689 39 810 94 q 426 -17 568 -17 q 154 66 253 -17 q 56 304 56 149 q 79 467 56 375 q 206 728 119 621 q 413 891 293 836 q 676 946 533 946 m 651 810 q 576 776 610 810 q 510 667 543 743 q 440 457 478 592 q 385 189 385 263 q 400 126 385 146 q 449 107 415 107 q 524 141 490 107 q 589 250 557 175 q 660 457 621 325 q 714 726 714 649 q 699 790 714 771 q 651 810 683 810 m 804 992 q 753 1001 776 992 q 697 1031 729 1011 q 678 1042 693 1033 q 650 1054 663 1050 q 628 1058 638 1058 q 596 1050 610 1058 q 565 1026 582 1042 q 553 1017 563 1024 q 538 1010 544 1010 q 523 1022 528 1010 q 518 1056 518 1035 q 524 1100 518 1078 q 591 1205 540 1165 q 704 1244 642 1244 q 753 1235 729 1244 q 808 1207 776 1225 q 850 1185 835 1192 q 881 1178 865 1178 q 913 1186 899 1178 q 943 1210 926 1194 q 955 1219 946 1213 q 971 1226 964 1226 q 985 1214 979 1226 q 990 1183 990 1201 q 983 1136 990 1164 q 917 1031 968 1071 q 804 992 867 992 z "},"Ö":{"ha":1018,"x_min":56,"x_max":1049,"o":"m 676 946 q 950 863 851 946 q 1049 625 1049 781 q 1026 467 1049 551 q 897 203 985 311 q 689 39 810 94 q 426 -17 568 -17 q 154 66 253 -17 q 56 304 56 149 q 79 467 56 375 q 206 728 119 621 q 413 891 293 836 q 676 946 533 946 m 651 810 q 576 776 610 810 q 510 667 543 743 q 440 457 478 592 q 385 189 385 263 q 400 126 385 146 q 449 107 415 107 q 524 141 490 107 q 589 250 557 175 q 660 457 621 325 q 714 726 714 649 q 699 790 714 771 q 651 810 683 810 m 574 1251 q 664 1216 628 1251 q 700 1129 700 1181 q 681 1058 700 1093 q 628 1002 663 1024 q 553 981 594 981 q 465 1016 500 981 q 428 1104 429 1051 q 446 1173 428 1139 q 497 1229 464 1207 q 574 1251 531 1251 m 885 1251 q 975 1216 939 1251 q 1011 1129 1011 1181 q 992 1058 1011 1093 q 940 1002 974 1024 q 864 981 906 981 q 776 1016 811 981 q 739 1104 740 1051 q 757 1173 739 1139 q 808 1229 775 1207 q 885 1251 842 1251 z "},"×":{"ha":921,"x_min":81,"x_max":922,"o":"m 851 771 q 902 749 882 771 q 922 699 922 728 q 919 676 922 683 q 901 643 914 657 q 860 611 888 629 l 622 457 l 749 328 q 793 243 793 281 q 771 192 793 211 q 721 172 749 172 q 635 221 683 172 l 489 371 l 225 200 q 150 172 185 172 q 100 193 119 172 q 81 243 81 214 q 83 265 81 257 q 142 332 93 299 l 378 485 l 254 613 q 221 654 232 635 q 210 693 210 674 q 231 748 210 726 q 283 769 251 769 q 321 759 303 769 q 363 725 339 749 l 511 572 l 776 743 q 851 771 819 771 z "},"Ø":{"ha":1061,"x_min":10,"x_max":1128,"o":"m 1068 939 q 1112 917 1096 939 q 1128 871 1128 896 q 1126 858 1128 863 q 1114 828 1124 840 q 1085 800 1104 817 l 1040 764 q 1065 626 1065 703 q 1043 467 1065 551 q 914 203 1001 311 q 706 39 826 94 q 443 -17 585 -17 q 178 60 275 -17 l 122 14 q 64 -10 92 -10 q 26 11 43 -10 q 10 57 10 32 q 20 96 10 79 q 56 133 31 113 l 97 168 q 72 306 72 226 q 96 467 72 382 q 223 728 136 621 q 430 891 310 836 q 693 946 550 946 q 960 869 860 946 l 1015 915 q 1068 939 1046 939 m 668 810 q 593 777 626 810 q 528 669 560 744 q 458 461 496 593 l 728 681 q 731 725 731 714 q 715 790 731 769 q 668 810 700 810 m 681 469 l 407 246 q 401 189 401 201 q 417 126 401 146 q 465 107 433 107 q 540 141 507 107 q 606 250 574 175 q 676 457 638 325 l 681 469 z "},"Ù":{"ha":1094,"x_min":119,"x_max":1203,"o":"m 849 738 q 923 882 875 833 q 1056 931 971 931 q 1163 888 1122 931 q 1203 783 1203 846 q 1196 735 1203 763 q 1142 647 1181 674 q 1057 619 1103 619 q 1015 623 1033 619 q 979 632 996 626 l 897 331 q 749 78 853 165 q 465 -8 644 -8 q 210 54 301 -8 q 119 249 119 117 q 142 389 119 313 l 247 763 q 253 797 253 781 q 248 824 253 814 q 235 849 243 835 q 222 878 222 867 q 225 892 222 883 q 250 917 231 910 q 307 925 269 925 l 633 925 q 693 889 693 925 q 692 875 693 881 q 680 855 688 863 q 657 838 672 847 q 621 810 635 825 q 597 763 607 794 l 476 338 q 464 257 464 290 q 564 164 464 164 q 666 203 625 164 q 735 339 707 243 l 849 738 m 810 1046 q 815 1017 815 1031 q 806 989 815 1000 q 781 978 796 978 q 749 984 764 978 q 714 1006 733 990 l 633 1068 q 577 1125 594 1100 q 560 1182 560 1150 q 584 1243 560 1219 q 651 1267 608 1267 q 726 1240 696 1267 q 775 1156 756 1214 l 810 1046 z "},"Ú":{"ha":1094,"x_min":119,"x_max":1203,"o":"m 849 738 q 923 882 875 833 q 1056 931 971 931 q 1163 888 1122 931 q 1203 783 1203 846 q 1196 735 1203 763 q 1142 647 1181 674 q 1057 619 1103 619 q 1015 623 1033 619 q 979 632 996 626 l 897 331 q 749 78 853 165 q 465 -8 644 -8 q 210 54 301 -8 q 119 249 119 117 q 142 389 119 313 l 247 763 q 253 797 253 781 q 248 824 253 814 q 235 849 243 835 q 222 878 222 867 q 225 892 222 883 q 250 917 231 910 q 307 925 269 925 l 633 925 q 693 889 693 925 q 692 875 693 881 q 680 855 688 863 q 657 838 672 847 q 621 810 635 825 q 597 763 607 794 l 476 338 q 464 257 464 290 q 564 164 464 164 q 666 203 625 164 q 735 339 707 243 l 849 738 m 818 1156 q 887 1240 851 1214 q 972 1267 922 1267 q 1040 1244 1015 1267 q 1065 1182 1065 1221 q 1038 1110 1065 1140 q 947 1049 1010 1079 l 826 990 q 782 979 800 979 q 755 988 765 979 q 744 1013 744 996 q 758 1054 744 1031 l 818 1156 z "},"Û":{"ha":1094,"x_min":119,"x_max":1203,"o":"m 849 738 q 923 882 875 833 q 1056 931 971 931 q 1163 888 1122 931 q 1203 783 1203 846 q 1196 735 1203 763 q 1142 647 1181 674 q 1057 619 1103 619 q 1015 623 1033 619 q 979 632 996 626 l 897 331 q 749 78 853 165 q 465 -8 644 -8 q 210 54 301 -8 q 119 249 119 117 q 142 389 119 313 l 247 763 q 253 797 253 781 q 248 824 253 814 q 235 849 243 835 q 222 878 222 867 q 225 892 222 883 q 250 917 231 910 q 307 925 269 925 l 633 925 q 693 889 693 925 q 692 875 693 881 q 680 855 688 863 q 657 838 672 847 q 621 810 635 825 q 597 763 607 794 l 476 338 q 464 257 464 290 q 564 164 464 164 q 666 203 625 164 q 735 339 707 243 l 849 738 m 990 1074 q 1000 1029 1000 1050 q 985 990 1000 1004 q 947 976 969 976 q 885 1001 915 976 q 819 1074 856 1025 l 808 1088 l 747 1047 q 600 986 651 986 q 572 996 582 986 q 563 1021 563 1006 q 594 1083 563 1051 l 736 1217 q 792 1256 763 1242 q 847 1271 821 1271 q 929 1211 903 1271 l 990 1074 z "},"Ü":{"ha":1094,"x_min":119,"x_max":1203,"o":"m 849 738 q 923 882 875 833 q 1056 931 971 931 q 1163 888 1122 931 q 1203 783 1203 846 q 1196 735 1203 763 q 1142 647 1181 674 q 1057 619 1103 619 q 1015 623 1033 619 q 979 632 996 626 l 897 331 q 749 78 853 165 q 465 -8 644 -8 q 210 54 301 -8 q 119 249 119 117 q 142 389 119 313 l 247 763 q 253 797 253 781 q 248 824 253 814 q 235 849 243 835 q 222 878 222 867 q 225 892 222 883 q 250 917 231 910 q 307 925 269 925 l 633 925 q 693 889 693 925 q 692 875 693 881 q 680 855 688 863 q 657 838 672 847 q 621 810 635 825 q 597 763 607 794 l 476 338 q 464 257 464 290 q 564 164 464 164 q 666 203 625 164 q 735 339 707 243 l 849 738 m 651 1251 q 742 1216 706 1251 q 778 1129 778 1181 q 759 1058 778 1093 q 706 1002 740 1024 q 631 981 672 981 q 542 1016 578 981 q 506 1104 507 1051 q 524 1173 506 1139 q 575 1229 542 1207 q 651 1251 608 1251 m 963 1251 q 1053 1216 1017 1251 q 1089 1129 1089 1181 q 1070 1058 1089 1093 q 1017 1002 1051 1024 q 942 981 983 981 q 853 1016 889 981 q 817 1104 818 1051 q 835 1173 817 1139 q 886 1229 853 1207 q 963 1251 919 1251 z "},"Ý":{"ha":1096,"x_min":178,"x_max":1247,"o":"m 1108 931 q 1208 891 1169 931 q 1247 790 1247 851 q 1244 760 1247 782 q 1192 661 1233 693 q 1097 629 1151 629 q 1036 640 1061 629 q 989 678 1011 651 l 760 379 l 696 164 q 693 142 693 156 q 703 109 693 122 q 731 81 713 96 q 753 57 746 67 q 756 35 760 47 q 728 8 750 15 q 669 0 707 0 l 319 0 q 266 13 283 0 q 254 50 249 26 q 265 70 257 63 q 289 89 272 78 q 324 117 310 101 q 347 164 338 133 l 411 381 l 283 744 q 251 806 269 785 q 207 849 232 828 q 185 868 192 860 q 178 888 178 876 q 192 915 178 904 q 235 925 207 925 l 606 925 q 672 917 654 925 q 692 888 690 908 q 686 866 692 875 q 669 844 681 857 q 651 817 657 828 q 644 792 644 807 q 647 774 644 788 l 711 529 l 888 781 q 995 896 944 861 q 1108 931 1046 931 m 821 1156 q 890 1240 854 1214 q 975 1267 925 1267 q 1043 1244 1018 1267 q 1068 1182 1068 1221 q 1040 1110 1068 1140 q 950 1049 1013 1079 l 829 990 q 785 979 803 979 q 758 988 768 979 q 747 1013 747 996 q 761 1054 747 1031 l 821 1156 z "},"Þ":{"ha":963,"x_min":-36,"x_max":1032,"o":"m 744 719 q 961 670 890 719 q 1032 532 1032 621 q 1019 451 1032 493 q 887 278 986 332 q 604 224 788 224 l 428 224 l 411 164 q 406 129 406 146 q 410 101 406 113 q 425 78 415 90 q 438 49 438 60 q 435 35 438 46 q 410 8 429 15 q 351 0 390 0 l 25 0 q -20 10 -4 0 q -36 36 -36 19 q -32 54 -36 44 q -14 78 -26 69 q 1 88 -1 86 q 38 116 24 101 q 61 164 51 131 l 231 763 q 236 797 236 781 q 231 823 236 813 q 218 847 226 833 q 206 876 206 865 q 208 892 206 881 q 233 917 214 910 q 290 925 251 925 l 617 925 q 662 916 646 925 q 678 890 678 907 q 674 872 678 883 q 662 855 669 863 q 648 844 654 847 q 639 838 642 840 q 603 810 617 825 q 579 763 589 794 l 567 719 l 744 719 m 674 472 q 683 528 683 508 q 606 594 683 594 l 532 594 l 463 349 l 536 349 q 674 472 639 349 z "},"ß":{"ha":1000,"x_min":-69,"x_max":1000,"o":"m 624 925 q 329 865 435 925 q 178 654 224 804 l 24 147 q 0 99 14 114 q -35 72 -14 83 q -64 43 -58 60 q -53 12 -69 24 q 0 0 -36 0 l 317 0 q 381 8 360 0 q 408 35 401 17 q 407 51 411 44 q 393 67 403 57 q 374 87 381 76 q 367 115 367 97 q 371 144 367 128 l 546 714 q 584 792 563 769 q 635 815 606 815 q 665 801 653 815 q 678 761 678 788 q 669 715 678 743 q 640 649 657 676 q 594 588 622 622 q 556 525 561 547 q 558 494 551 510 q 583 451 565 478 q 618 389 606 417 q 631 326 631 361 q 622 269 631 294 q 583 209 610 231 q 522 188 556 188 q 485 194 500 188 q 465 200 471 200 q 444 174 453 200 q 440 142 440 157 q 466 69 440 103 q 541 15 492 36 q 658 -6 590 -6 q 853 54 769 -6 q 961 211 936 114 q 971 282 971 246 q 938 406 971 354 q 854 504 906 457 q 828 531 839 518 q 818 550 818 543 q 831 565 818 557 q 868 582 843 572 q 950 625 919 604 q 993 682 981 646 q 1000 724 1000 706 q 956 824 1000 778 q 828 897 913 869 q 624 925 743 925 z "}}}
